STARTFONT 2.1
FONT -TakWolf-Ark Pixel 12px Mono zh_cn-Regular-R-Normal-Sans Serif-12-120-75-75-M-117-ISO10646-1
SIZE 12 75 75
FONTBOUNDINGBOX 12 12 0 -2
STARTPROPERTIES 24
FOUNDRY "TakWolf"
FAMILY_NAME "Ark Pixel 12px Mono zh_cn"
WEIGHT_NAME "Regular"
SLANT "R"
SETWIDTH_NAME "Normal"
ADD_STYLE_NAME "Sans Serif"
PIXEL_SIZE 12
POINT_SIZE 120
RESOLUTION_X 75
RESOLUTION_Y 75
SPACING "M"
AVERAGE_WIDTH 117
CHARSET_REGISTRY "ISO10646"
CHARSET_ENCODING "1"
DEFAULT_CHAR -1
FONT_ASCENT 10
FONT_DESCENT 2
X_HEIGHT 6
CAP_HEIGHT 8
UNDERLINE_POSITION -2
UNDERLINE_THICKNESS 1
FONT_VERSION "2026.05.07"
COPYRIGHT "Copyright (c) 2021, TakWolf (https://takwolf.com)"
LICENSE "This Font Software is licensed under the SIL Open Font License, Version 1.1"
ENDPROPERTIES
CHARS 24409
STARTCHAR .notdef
ENCODING -1
SWIDTH 1000 0
DWIDTH 12 0
BBX 12 12 0 -2
BITMAP
FFF0
8010
8010
8010
8010
8010
8010
8010
8010
8010
8010
FFF0
ENDCHAR
STARTCHAR u0020
ENCODING 32
SWIDTH 500 0
DWIDTH 6 0
BBX 6 12 0 -2
BITMAP
00
00
00
00
00
00
00
00
00
00
00
00
ENDCHAR
STARTCHAR u0021
ENCODING 33
SWIDTH 500 0
DWIDTH 6 0
BBX 6 12 0 -2
BITMAP
00
00
20
20
20
20
20
20
00
20
00
00
ENDCHAR
STARTCHAR u0022
ENCODING 34
SWIDTH 500 0
DWIDTH 6 0
BBX 6 12 0 -2
BITMAP
00
00
50
50
50
00
00
00
00
00
00
00
ENDCHAR
STARTCHAR u0023
ENCODING 35
SWIDTH 500 0
DWIDTH 6 0
BBX 6 12 0 -2
BITMAP
00
00
50
50
F8
50
50
F8
50
50
00
00
ENDCHAR
STARTCHAR u0024
ENCODING 36
SWIDTH 500 0
DWIDTH 6 0
BBX 6 12 0 -2
BITMAP
00
20
70
A8
A0
60
30
28
A8
70
20
00
ENDCHAR
STARTCHAR u0025
ENCODING 37
SWIDTH 500 0
DWIDTH 6 0
BBX 6 12 0 -2
BITMAP
00
00
48
A8
50
20
20
50
A8
90
00
00
ENDCHAR
STARTCHAR u0026
ENCODING 38
SWIDTH 500 0
DWIDTH 6 0
BBX 6 12 0 -2
BITMAP
00
00
60
90
90
A0
48
A8
90
68
00
00
ENDCHAR
STARTCHAR u0027
ENCODING 39
SWIDTH 500 0
DWIDTH 6 0
BBX 6 12 0 -2
BITMAP
00
00
20
20
20
00
00
00
00
00
00
00
ENDCHAR
STARTCHAR u0028
ENCODING 40
SWIDTH 500 0
DWIDTH 6 0
BBX 6 12 0 -2
BITMAP
00
10
20
20
40
40
40
40
20
20
10
00
ENDCHAR
STARTCHAR u0029
ENCODING 41
SWIDTH 500 0
DWIDTH 6 0
BBX 6 12 0 -2
BITMAP
00
40
20
20
10
10
10
10
20
20
40
00
ENDCHAR
STARTCHAR u002A
ENCODING 42
SWIDTH 500 0
DWIDTH 6 0
BBX 6 12 0 -2
BITMAP
00
00
00
00
20
A8
70
A8
20
00
00
00
ENDCHAR
STARTCHAR u002B
ENCODING 43
SWIDTH 500 0
DWIDTH 6 0
BBX 6 12 0 -2
BITMAP
00
00
00
00
20
20
F8
20
20
00
00
00
ENDCHAR
STARTCHAR u002C
ENCODING 44
SWIDTH 500 0
DWIDTH 6 0
BBX 6 12 0 -2
BITMAP
00
00
00
00
00
00
00
00
00
20
20
40
ENDCHAR
STARTCHAR u002D
ENCODING 45
SWIDTH 500 0
DWIDTH 6 0
BBX 6 12 0 -2
BITMAP
00
00
00
00
00
00
F8
00
00
00
00
00
ENDCHAR
STARTCHAR u002E
ENCODING 46
SWIDTH 500 0
DWIDTH 6 0
BBX 6 12 0 -2
BITMAP
00
00
00
00
00
00
00
00
00
20
00
00
ENDCHAR
STARTCHAR u002F
ENCODING 47
SWIDTH 500 0
DWIDTH 6 0
BBX 6 12 0 -2
BITMAP
00
08
08
10
10
20
20
40
40
80
80
00
ENDCHAR
STARTCHAR u0030
ENCODING 48
SWIDTH 500 0
DWIDTH 6 0
BBX 6 12 0 -2
BITMAP
00
00
70
88
98
A8
A8
C8
88
70
00
00
ENDCHAR
STARTCHAR u0031
ENCODING 49
SWIDTH 500 0
DWIDTH 6 0
BBX 6 12 0 -2
BITMAP
00
00
20
E0
20
20
20
20
20
F8
00
00
ENDCHAR
STARTCHAR u0032
ENCODING 50
SWIDTH 500 0
DWIDTH 6 0
BBX 6 12 0 -2
BITMAP
00
00
70
88
08
10
20
40
80
F8
00
00
ENDCHAR
STARTCHAR u0033
ENCODING 51
SWIDTH 500 0
DWIDTH 6 0
BBX 6 12 0 -2
BITMAP
00
00
70
88
08
30
08
08
88
70
00
00
ENDCHAR
STARTCHAR u0034
ENCODING 52
SWIDTH 500 0
DWIDTH 6 0
BBX 6 12 0 -2
BITMAP
00
00
30
50
50
90
90
F8
10
10
00
00
ENDCHAR
STARTCHAR u0035
ENCODING 53
SWIDTH 500 0
DWIDTH 6 0
BBX 6 12 0 -2
BITMAP
00
00
F8
80
80
F0
08
08
88
70
00
00
ENDCHAR
STARTCHAR u0036
ENCODING 54
SWIDTH 500 0
DWIDTH 6 0
BBX 6 12 0 -2
BITMAP
00
00
70
88
80
F0
88
88
88
70
00
00
ENDCHAR
STARTCHAR u0037
ENCODING 55
SWIDTH 500 0
DWIDTH 6 0
BBX 6 12 0 -2
BITMAP
00
00
F8
08
08
10
10
20
20
20
00
00
ENDCHAR
STARTCHAR u0038
ENCODING 56
SWIDTH 500 0
DWIDTH 6 0
BBX 6 12 0 -2
BITMAP
00
00
70
88
88
70
88
88
88
70
00
00
ENDCHAR
STARTCHAR u0039
ENCODING 57
SWIDTH 500 0
DWIDTH 6 0
BBX 6 12 0 -2
BITMAP
00
00
70
88
88
88
78
08
88
70
00
00
ENDCHAR
STARTCHAR u003A
ENCODING 58
SWIDTH 500 0
DWIDTH 6 0
BBX 6 12 0 -2
BITMAP
00
00
00
00
20
00
00
00
00
20
00
00
ENDCHAR
STARTCHAR u003B
ENCODING 59
SWIDTH 500 0
DWIDTH 6 0
BBX 6 12 0 -2
BITMAP
00
00
00
00
20
00
00
00
00
20
20
40
ENDCHAR
STARTCHAR u003C
ENCODING 60
SWIDTH 500 0
DWIDTH 6 0
BBX 6 12 0 -2
BITMAP
00
00
00
08
10
20
40
20
10
08
00
00
ENDCHAR
STARTCHAR u003D
ENCODING 61
SWIDTH 500 0
DWIDTH 6 0
BBX 6 12 0 -2
BITMAP
00
00
00
00
00
F8
00
F8
00
00
00
00
ENDCHAR
STARTCHAR u003E
ENCODING 62
SWIDTH 500 0
DWIDTH 6 0
BBX 6 12 0 -2
BITMAP
00
00
00
40
20
10
08
10
20
40
00
00
ENDCHAR
STARTCHAR u003F
ENCODING 63
SWIDTH 500 0
DWIDTH 6 0
BBX 6 12 0 -2
BITMAP
00
00
70
88
08
10
20
20
00
20
00
00
ENDCHAR
STARTCHAR u0040
ENCODING 64
SWIDTH 500 0
DWIDTH 6 0
BBX 6 12 0 -2
BITMAP
00
00
70
88
98
A8
A8
A8
B8
80
70
00
ENDCHAR
STARTCHAR u0041
ENCODING 65
SWIDTH 500 0
DWIDTH 6 0
BBX 6 12 0 -2
BITMAP
00
00
20
20
50
50
70
88
88
88
00
00
ENDCHAR
STARTCHAR u0042
ENCODING 66
SWIDTH 500 0
DWIDTH 6 0
BBX 6 12 0 -2
BITMAP
00
00
F0
88
88
F0
88
88
88
F0
00
00
ENDCHAR
STARTCHAR u0043
ENCODING 67
SWIDTH 500 0
DWIDTH 6 0
BBX 6 12 0 -2
BITMAP
00
00
70
88
80
80
80
80
88
70
00
00
ENDCHAR
STARTCHAR u0044
ENCODING 68
SWIDTH 500 0
DWIDTH 6 0
BBX 6 12 0 -2
BITMAP
00
00
F0
88
88
88
88
88
88
F0
00
00
ENDCHAR
STARTCHAR u0045
ENCODING 69
SWIDTH 500 0
DWIDTH 6 0
BBX 6 12 0 -2
BITMAP
00
00
F8
80
80
F0
80
80
80
F8
00
00
ENDCHAR
STARTCHAR u0046
ENCODING 70
SWIDTH 500 0
DWIDTH 6 0
BBX 6 12 0 -2
BITMAP
00
00
F8
80
80
F0
80
80
80
80
00
00
ENDCHAR
STARTCHAR u0047
ENCODING 71
SWIDTH 500 0
DWIDTH 6 0
BBX 6 12 0 -2
BITMAP
00
00
70
88
80
80
98
88
88
78
00
00
ENDCHAR
STARTCHAR u0048
ENCODING 72
SWIDTH 500 0
DWIDTH 6 0
BBX 6 12 0 -2
BITMAP
00
00
88
88
88
F8
88
88
88
88
00
00
ENDCHAR
STARTCHAR u0049
ENCODING 73
SWIDTH 500 0
DWIDTH 6 0
BBX 6 12 0 -2
BITMAP
00
00
F8
20
20
20
20
20
20
F8
00
00
ENDCHAR
STARTCHAR u004A
ENCODING 74
SWIDTH 500 0
DWIDTH 6 0
BBX 6 12 0 -2
BITMAP
00
00
08
08
08
08
08
88
88
70
00
00
ENDCHAR
STARTCHAR u004B
ENCODING 75
SWIDTH 500 0
DWIDTH 6 0
BBX 6 12 0 -2
BITMAP
00
00
88
90
A0
C0
C0
A0
90
88
00
00
ENDCHAR
STARTCHAR u004C
ENCODING 76
SWIDTH 500 0
DWIDTH 6 0
BBX 6 12 0 -2
BITMAP
00
00
80
80
80
80
80
80
80
F8
00
00
ENDCHAR
STARTCHAR u004D
ENCODING 77
SWIDTH 500 0
DWIDTH 6 0
BBX 6 12 0 -2
BITMAP
00
00
88
88
D8
D8
A8
A8
88
88
00
00
ENDCHAR
STARTCHAR u004E
ENCODING 78
SWIDTH 500 0
DWIDTH 6 0
BBX 6 12 0 -2
BITMAP
00
00
88
C8
C8
A8
A8
98
98
88
00
00
ENDCHAR
STARTCHAR u004F
ENCODING 79
SWIDTH 500 0
DWIDTH 6 0
BBX 6 12 0 -2
BITMAP
00
00
70
88
88
88
88
88
88
70
00
00
ENDCHAR
STARTCHAR u0050
ENCODING 80
SWIDTH 500 0
DWIDTH 6 0
BBX 6 12 0 -2
BITMAP
00
00
F0
88
88
88
F0
80
80
80
00
00
ENDCHAR
STARTCHAR u0051
ENCODING 81
SWIDTH 500 0
DWIDTH 6 0
BBX 6 12 0 -2
BITMAP
00
00
70
88
88
88
88
A8
90
68
00
00
ENDCHAR
STARTCHAR u0052
ENCODING 82
SWIDTH 500 0
DWIDTH 6 0
BBX 6 12 0 -2
BITMAP
00
00
F0
88
88
88
F0
90
88
88
00
00
ENDCHAR
STARTCHAR u0053
ENCODING 83
SWIDTH 500 0
DWIDTH 6 0
BBX 6 12 0 -2
BITMAP
00
00
70
88
80
60
10
08
88
70
00
00
ENDCHAR
STARTCHAR u0054
ENCODING 84
SWIDTH 500 0
DWIDTH 6 0
BBX 6 12 0 -2
BITMAP
00
00
F8
20
20
20
20
20
20
20
00
00
ENDCHAR
STARTCHAR u0055
ENCODING 85
SWIDTH 500 0
DWIDTH 6 0
BBX 6 12 0 -2
BITMAP
00
00
88
88
88
88
88
88
88
70
00
00
ENDCHAR
STARTCHAR u0056
ENCODING 86
SWIDTH 500 0
DWIDTH 6 0
BBX 6 12 0 -2
BITMAP
00
00
88
88
88
50
50
50
20
20
00
00
ENDCHAR
STARTCHAR u0057
ENCODING 87
SWIDTH 500 0
DWIDTH 6 0
BBX 6 12 0 -2
BITMAP
00
00
A8
A8
A8
A8
A8
50
50
50
00
00
ENDCHAR
STARTCHAR u0058
ENCODING 88
SWIDTH 500 0
DWIDTH 6 0
BBX 6 12 0 -2
BITMAP
00
00
88
88
50
20
20
50
88
88
00
00
ENDCHAR
STARTCHAR u0059
ENCODING 89
SWIDTH 500 0
DWIDTH 6 0
BBX 6 12 0 -2
BITMAP
00
00
88
88
50
50
20
20
20
20
00
00
ENDCHAR
STARTCHAR u005A
ENCODING 90
SWIDTH 500 0
DWIDTH 6 0
BBX 6 12 0 -2
BITMAP
00
00
F8
08
10
20
20
40
80
F8
00
00
ENDCHAR
STARTCHAR u005B
ENCODING 91
SWIDTH 500 0
DWIDTH 6 0
BBX 6 12 0 -2
BITMAP
00
70
40
40
40
40
40
40
40
40
70
00
ENDCHAR
STARTCHAR u005C
ENCODING 92
SWIDTH 500 0
DWIDTH 6 0
BBX 6 12 0 -2
BITMAP
00
80
80
40
40
20
20
10
10
08
08
00
ENDCHAR
STARTCHAR u005D
ENCODING 93
SWIDTH 500 0
DWIDTH 6 0
BBX 6 12 0 -2
BITMAP
00
70
10
10
10
10
10
10
10
10
70
00
ENDCHAR
STARTCHAR u005E
ENCODING 94
SWIDTH 500 0
DWIDTH 6 0
BBX 6 12 0 -2
BITMAP
00
00
20
50
88
00
00
00
00
00
00
00
ENDCHAR
STARTCHAR u005F
ENCODING 95
SWIDTH 500 0
DWIDTH 6 0
BBX 6 12 0 -2
BITMAP
00
00
00
00
00
00
00
00
00
00
00
F8
ENDCHAR
STARTCHAR u0060
ENCODING 96
SWIDTH 500 0
DWIDTH 6 0
BBX 6 12 0 -2
BITMAP
00
00
20
10
00
00
00
00
00
00
00
00
ENDCHAR
STARTCHAR u0061
ENCODING 97
SWIDTH 500 0
DWIDTH 6 0
BBX 6 12 0 -2
BITMAP
00
00
00
00
70
08
78
88
88
78
00
00
ENDCHAR
STARTCHAR u0062
ENCODING 98
SWIDTH 500 0
DWIDTH 6 0
BBX 6 12 0 -2
BITMAP
00
00
80
80
F0
88
88
88
88
F0
00
00
ENDCHAR
STARTCHAR u0063
ENCODING 99
SWIDTH 500 0
DWIDTH 6 0
BBX 6 12 0 -2
BITMAP
00
00
00
00
70
88
80
80
88
70
00
00
ENDCHAR
STARTCHAR u0064
ENCODING 100
SWIDTH 500 0
DWIDTH 6 0
BBX 6 12 0 -2
BITMAP
00
00
08
08
78
88
88
88
88
78
00
00
ENDCHAR
STARTCHAR u0065
ENCODING 101
SWIDTH 500 0
DWIDTH 6 0
BBX 6 12 0 -2
BITMAP
00
00
00
00
70
88
F8
80
88
70
00
00
ENDCHAR
STARTCHAR u0066
ENCODING 102
SWIDTH 500 0
DWIDTH 6 0
BBX 6 12 0 -2
BITMAP
00
00
18
20
F8
20
20
20
20
20
00
00
ENDCHAR
STARTCHAR u0067
ENCODING 103
SWIDTH 500 0
DWIDTH 6 0
BBX 6 12 0 -2
BITMAP
00
00
00
00
78
88
88
88
88
78
08
70
ENDCHAR
STARTCHAR u0068
ENCODING 104
SWIDTH 500 0
DWIDTH 6 0
BBX 6 12 0 -2
BITMAP
00
00
80
80
B0
C8
88
88
88
88
00
00
ENDCHAR
STARTCHAR u0069
ENCODING 105
SWIDTH 500 0
DWIDTH 6 0
BBX 6 12 0 -2
BITMAP
00
00
20
00
E0
20
20
20
20
F8
00
00
ENDCHAR
STARTCHAR u006A
ENCODING 106
SWIDTH 500 0
DWIDTH 6 0
BBX 6 12 0 -2
BITMAP
00
00
10
00
F0
10
10
10
10
10
10
E0
ENDCHAR
STARTCHAR u006B
ENCODING 107
SWIDTH 500 0
DWIDTH 6 0
BBX 6 12 0 -2
BITMAP
00
00
80
80
88
B0
C0
A0
90
88
00
00
ENDCHAR
STARTCHAR u006C
ENCODING 108
SWIDTH 500 0
DWIDTH 6 0
BBX 6 12 0 -2
BITMAP
00
00
E0
20
20
20
20
20
20
18
00
00
ENDCHAR
STARTCHAR u006D
ENCODING 109
SWIDTH 500 0
DWIDTH 6 0
BBX 6 12 0 -2
BITMAP
00
00
00
00
D0
A8
A8
A8
A8
A8
00
00
ENDCHAR
STARTCHAR u006E
ENCODING 110
SWIDTH 500 0
DWIDTH 6 0
BBX 6 12 0 -2
BITMAP
00
00
00
00
B0
C8
88
88
88
88
00
00
ENDCHAR
STARTCHAR u006F
ENCODING 111
SWIDTH 500 0
DWIDTH 6 0
BBX 6 12 0 -2
BITMAP
00
00
00
00
70
88
88
88
88
70
00
00
ENDCHAR
STARTCHAR u0070
ENCODING 112
SWIDTH 500 0
DWIDTH 6 0
BBX 6 12 0 -2
BITMAP
00
00
00
00
F0
88
88
88
88
F0
80
80
ENDCHAR
STARTCHAR u0071
ENCODING 113
SWIDTH 500 0
DWIDTH 6 0
BBX 6 12 0 -2
BITMAP
00
00
00
00
78
88
88
88
88
78
08
08
ENDCHAR
STARTCHAR u0072
ENCODING 114
SWIDTH 500 0
DWIDTH 6 0
BBX 6 12 0 -2
BITMAP
00
00
00
00
B0
C8
80
80
80
80
00
00
ENDCHAR
STARTCHAR u0073
ENCODING 115
SWIDTH 500 0
DWIDTH 6 0
BBX 6 12 0 -2
BITMAP
00
00
00
00
70
88
60
10
88
70
00
00
ENDCHAR
STARTCHAR u0074
ENCODING 116
SWIDTH 500 0
DWIDTH 6 0
BBX 6 12 0 -2
BITMAP
00
00
20
20
F8
20
20
20
20
18
00
00
ENDCHAR
STARTCHAR u0075
ENCODING 117
SWIDTH 500 0
DWIDTH 6 0
BBX 6 12 0 -2
BITMAP
00
00
00
00
88
88
88
88
98
68
00
00
ENDCHAR
STARTCHAR u0076
ENCODING 118
SWIDTH 500 0
DWIDTH 6 0
BBX 6 12 0 -2
BITMAP
00
00
00
00
88
88
50
50
20
20
00
00
ENDCHAR
STARTCHAR u0077
ENCODING 119
SWIDTH 500 0
DWIDTH 6 0
BBX 6 12 0 -2
BITMAP
00
00
00
00
A8
A8
A8
A8
50
50
00
00
ENDCHAR
STARTCHAR u0078
ENCODING 120
SWIDTH 500 0
DWIDTH 6 0
BBX 6 12 0 -2
BITMAP
00
00
00
00
88
50
20
20
50
88
00
00
ENDCHAR
STARTCHAR u0079
ENCODING 121
SWIDTH 500 0
DWIDTH 6 0
BBX 6 12 0 -2
BITMAP
00
00
00
00
88
88
88
50
50
20
20
C0
ENDCHAR
STARTCHAR u007A
ENCODING 122
SWIDTH 500 0
DWIDTH 6 0
BBX 6 12 0 -2
BITMAP
00
00
00
00
F8
10
20
40
80
F8
00
00
ENDCHAR
STARTCHAR u007B
ENCODING 123
SWIDTH 500 0
DWIDTH 6 0
BBX 6 12 0 -2
BITMAP
00
30
40
40
40
80
40
40
40
40
30
00
ENDCHAR
STARTCHAR u007C
ENCODING 124
SWIDTH 500 0
DWIDTH 6 0
BBX 6 12 0 -2
BITMAP
00
20
20
20
20
20
20
20
20
20
20
00
ENDCHAR
STARTCHAR u007D
ENCODING 125
SWIDTH 500 0
DWIDTH 6 0
BBX 6 12 0 -2
BITMAP
00
60
10
10
10
08
10
10
10
10
60
00
ENDCHAR
STARTCHAR u007E
ENCODING 126
SWIDTH 500 0
DWIDTH 6 0
BBX 6 12 0 -2
BITMAP
00
00
00
00
00
40
A8
10
00
00
00
00
ENDCHAR
STARTCHAR u00A1
ENCODING 161
SWIDTH 500 0
DWIDTH 6 0
BBX 6 12 0 -2
BITMAP
00
00
00
00
20
00
20
20
20
20
20
20
ENDCHAR
STARTCHAR u00A2
ENCODING 162
SWIDTH 500 0
DWIDTH 6 0
BBX 6 12 0 -2
BITMAP
00
00
00
20
70
A8
A0
A0
A8
70
20
00
ENDCHAR
STARTCHAR u00A3
ENCODING 163
SWIDTH 500 0
DWIDTH 6 0
BBX 6 12 0 -2
BITMAP
00
00
70
88
80
40
F0
40
80
F8
00
00
ENDCHAR
STARTCHAR u00A4
ENCODING 164
SWIDTH 500 0
DWIDTH 6 0
BBX 6 12 0 -2
BITMAP
00
00
00
00
88
70
50
70
88
00
00
00
ENDCHAR
STARTCHAR u00A5
ENCODING 165
SWIDTH 500 0
DWIDTH 6 0
BBX 6 12 0 -2
BITMAP
00
00
88
88
50
50
F8
20
F8
20
00
00
ENDCHAR
STARTCHAR u00A6
ENCODING 166
SWIDTH 500 0
DWIDTH 6 0
BBX 6 12 0 -2
BITMAP
00
20
20
20
20
00
20
20
20
20
20
00
ENDCHAR
STARTCHAR u00A7
ENCODING 167
SWIDTH 500 0
DWIDTH 6 0
BBX 6 12 0 -2
BITMAP
00
00
70
88
80
60
90
48
30
08
88
70
ENDCHAR
STARTCHAR u00A8
ENCODING 168
SWIDTH 500 0
DWIDTH 6 0
BBX 6 12 0 -2
BITMAP
00
00
50
00
00
00
00
00
00
00
00
00
ENDCHAR
STARTCHAR u00A9
ENCODING 169
SWIDTH 1000 0
DWIDTH 12 0
BBX 12 12 0 -2
BITMAP
0000
0000
1F00
2080
4E40
5140
5040
5140
4E40
2080
1F00
0000
ENDCHAR
STARTCHAR u00AA
ENCODING 170
SWIDTH 500 0
DWIDTH 6 0
BBX 6 12 0 -2
BITMAP
00
00
60
10
70
90
70
00
00
00
00
00
ENDCHAR
STARTCHAR u00AB
ENCODING 171
SWIDTH 500 0
DWIDTH 6 0
BBX 6 12 0 -2
BITMAP
00
00
00
00
28
50
A0
50
28
00
00
00
ENDCHAR
STARTCHAR u00AC
ENCODING 172
SWIDTH 500 0
DWIDTH 6 0
BBX 6 12 0 -2
BITMAP
00
00
00
00
00
F8
08
08
00
00
00
00
ENDCHAR
STARTCHAR u00AE
ENCODING 174
SWIDTH 1000 0
DWIDTH 12 0
BBX 12 12 0 -2
BITMAP
0000
3C00
4200
B900
A500
B900
A500
4200
3C00
0000
0000
0000
ENDCHAR
STARTCHAR u00AF
ENCODING 175
SWIDTH 500 0
DWIDTH 6 0
BBX 6 12 0 -2
BITMAP
00
00
F8
00
00
00
00
00
00
00
00
00
ENDCHAR
STARTCHAR u00B0
ENCODING 176
SWIDTH 500 0
DWIDTH 6 0
BBX 6 12 0 -2
BITMAP
00
30
48
48
30
00
00
00
00
00
00
00
ENDCHAR
STARTCHAR u00B1
ENCODING 177
SWIDTH 500 0
DWIDTH 6 0
BBX 6 12 0 -2
BITMAP
00
00
00
00
20
20
F8
20
20
F8
00
00
ENDCHAR
STARTCHAR u00B2
ENCODING 178
SWIDTH 500 0
DWIDTH 6 0
BBX 6 12 0 -2
BITMAP
00
60
90
10
60
80
F0
00
00
00
00
00
ENDCHAR
STARTCHAR u00B3
ENCODING 179
SWIDTH 500 0
DWIDTH 6 0
BBX 6 12 0 -2
BITMAP
00
60
90
20
10
90
60
00
00
00
00
00
ENDCHAR
STARTCHAR u00B4
ENCODING 180
SWIDTH 500 0
DWIDTH 6 0
BBX 6 12 0 -2
BITMAP
00
00
10
20
00
00
00
00
00
00
00
00
ENDCHAR
STARTCHAR u00B5
ENCODING 181
SWIDTH 500 0
DWIDTH 6 0
BBX 6 12 0 -2
BITMAP
00
00
00
00
88
88
88
88
98
E8
80
80
ENDCHAR
STARTCHAR u00B6
ENCODING 182
SWIDTH 500 0
DWIDTH 6 0
BBX 6 12 0 -2
BITMAP
00
00
38
68
E8
E8
E8
68
28
28
28
28
ENDCHAR
STARTCHAR u00B7-ZH_CN
ENCODING 183
SWIDTH 1000 0
DWIDTH 12 0
BBX 12 12 0 -2
BITMAP
0000
0000
0000
0000
0000
0000
0600
0600
0000
0000
0000
0000
ENDCHAR
STARTCHAR u00B8
ENCODING 184
SWIDTH 500 0
DWIDTH 6 0
BBX 6 12 0 -2
BITMAP
00
00
00
00
00
00
00
00
00
20
10
60
ENDCHAR
STARTCHAR u00B9
ENCODING 185
SWIDTH 500 0
DWIDTH 6 0
BBX 6 12 0 -2
BITMAP
00
20
60
20
20
20
70
00
00
00
00
00
ENDCHAR
STARTCHAR u00BA
ENCODING 186
SWIDTH 500 0
DWIDTH 6 0
BBX 6 12 0 -2
BITMAP
00
00
60
90
90
90
60
00
00
00
00
00
ENDCHAR
STARTCHAR u00BB
ENCODING 187
SWIDTH 500 0
DWIDTH 6 0
BBX 6 12 0 -2
BITMAP
00
00
00
00
A0
50
28
50
A0
00
00
00
ENDCHAR
STARTCHAR u00BC
ENCODING 188
SWIDTH 1000 0
DWIDTH 12 0
BBX 12 12 0 -2
BITMAP
0000
2020
6040
2080
2100
2200
7440
08C0
1140
2140
41E0
8040
ENDCHAR
STARTCHAR u00BD
ENCODING 189
SWIDTH 1000 0
DWIDTH 12 0
BBX 12 12 0 -2
BITMAP
0000
2020
6040
2080
2100
2200
74C0
0920
1020
20C0
4100
81E0
ENDCHAR
STARTCHAR u00BE
ENCODING 190
SWIDTH 1000 0
DWIDTH 12 0
BBX 12 12 0 -2
BITMAP
0000
6020
9040
2080
1100
9200
6440
08C0
1140
2140
41E0
8040
ENDCHAR
STARTCHAR u00BF
ENCODING 191
SWIDTH 500 0
DWIDTH 6 0
BBX 6 12 0 -2
BITMAP
00
00
00
00
20
00
20
20
40
80
88
70
ENDCHAR
STARTCHAR u00C0
ENCODING 192
SWIDTH 500 0
DWIDTH 6 0
BBX 6 12 0 -2
BITMAP
40
20
00
20
20
50
50
70
88
88
00
00
ENDCHAR
STARTCHAR u00C1
ENCODING 193
SWIDTH 500 0
DWIDTH 6 0
BBX 6 12 0 -2
BITMAP
10
20
00
20
20
50
50
70
88
88
00
00
ENDCHAR
STARTCHAR u00C2
ENCODING 194
SWIDTH 500 0
DWIDTH 6 0
BBX 6 12 0 -2
BITMAP
20
50
00
20
20
50
50
70
88
88
00
00
ENDCHAR
STARTCHAR u00C3
ENCODING 195
SWIDTH 500 0
DWIDTH 6 0
BBX 6 12 0 -2
BITMAP
68
90
00
20
20
50
50
70
88
88
00
00
ENDCHAR
STARTCHAR u00C4
ENCODING 196
SWIDTH 500 0
DWIDTH 6 0
BBX 6 12 0 -2
BITMAP
00
50
00
20
20
50
50
70
88
88
00
00
ENDCHAR
STARTCHAR u00C5
ENCODING 197
SWIDTH 500 0
DWIDTH 6 0
BBX 6 12 0 -2
BITMAP
20
50
20
00
20
50
50
70
88
88
00
00
ENDCHAR
STARTCHAR u00C6
ENCODING 198
SWIDTH 500 0
DWIDTH 6 0
BBX 6 12 0 -2
BITMAP
00
00
38
50
50
58
70
90
90
98
00
00
ENDCHAR
STARTCHAR u00C7
ENCODING 199
SWIDTH 500 0
DWIDTH 6 0
BBX 6 12 0 -2
BITMAP
00
00
70
88
80
80
80
80
88
70
20
40
ENDCHAR
STARTCHAR u00C8
ENCODING 200
SWIDTH 500 0
DWIDTH 6 0
BBX 6 12 0 -2
BITMAP
40
20
00
F8
80
80
F0
80
80
F8
00
00
ENDCHAR
STARTCHAR u00C9
ENCODING 201
SWIDTH 500 0
DWIDTH 6 0
BBX 6 12 0 -2
BITMAP
10
20
00
F8
80
80
F0
80
80
F8
00
00
ENDCHAR
STARTCHAR u00CA
ENCODING 202
SWIDTH 500 0
DWIDTH 6 0
BBX 6 12 0 -2
BITMAP
20
50
00
F8
80
80
F0
80
80
F8
00
00
ENDCHAR
STARTCHAR u00CB
ENCODING 203
SWIDTH 500 0
DWIDTH 6 0
BBX 6 12 0 -2
BITMAP
00
50
00
F8
80
80
F0
80
80
F8
00
00
ENDCHAR
STARTCHAR u00CC
ENCODING 204
SWIDTH 500 0
DWIDTH 6 0
BBX 6 12 0 -2
BITMAP
40
20
00
F8
20
20
20
20
20
F8
00
00
ENDCHAR
STARTCHAR u00CD
ENCODING 205
SWIDTH 500 0
DWIDTH 6 0
BBX 6 12 0 -2
BITMAP
10
20
00
F8
20
20
20
20
20
F8
00
00
ENDCHAR
STARTCHAR u00CE
ENCODING 206
SWIDTH 500 0
DWIDTH 6 0
BBX 6 12 0 -2
BITMAP
20
50
00
F8
20
20
20
20
20
F8
00
00
ENDCHAR
STARTCHAR u00CF
ENCODING 207
SWIDTH 500 0
DWIDTH 6 0
BBX 6 12 0 -2
BITMAP
00
50
00
F8
20
20
20
20
20
F8
00
00
ENDCHAR
STARTCHAR u00D0
ENCODING 208
SWIDTH 500 0
DWIDTH 6 0
BBX 6 12 0 -2
BITMAP
00
00
70
48
48
E8
48
48
48
70
00
00
ENDCHAR
STARTCHAR u00D1
ENCODING 209
SWIDTH 500 0
DWIDTH 6 0
BBX 6 12 0 -2
BITMAP
68
90
00
88
C8
C8
A8
98
98
88
00
00
ENDCHAR
STARTCHAR u00D2
ENCODING 210
SWIDTH 500 0
DWIDTH 6 0
BBX 6 12 0 -2
BITMAP
40
20
00
70
88
88
88
88
88
70
00
00
ENDCHAR
STARTCHAR u00D3
ENCODING 211
SWIDTH 500 0
DWIDTH 6 0
BBX 6 12 0 -2
BITMAP
10
20
00
70
88
88
88
88
88
70
00
00
ENDCHAR
STARTCHAR u00D4
ENCODING 212
SWIDTH 500 0
DWIDTH 6 0
BBX 6 12 0 -2
BITMAP
20
50
00
70
88
88
88
88
88
70
00
00
ENDCHAR
STARTCHAR u00D5
ENCODING 213
SWIDTH 500 0
DWIDTH 6 0
BBX 6 12 0 -2
BITMAP
68
90
00
70
88
88
88
88
88
70
00
00
ENDCHAR
STARTCHAR u00D6
ENCODING 214
SWIDTH 500 0
DWIDTH 6 0
BBX 6 12 0 -2
BITMAP
00
50
00
70
88
88
88
88
88
70
00
00
ENDCHAR
STARTCHAR u00D7
ENCODING 215
SWIDTH 500 0
DWIDTH 6 0
BBX 6 12 0 -2
BITMAP
00
00
00
00
88
50
20
50
88
00
00
00
ENDCHAR
STARTCHAR u00D8
ENCODING 216
SWIDTH 500 0
DWIDTH 6 0
BBX 6 12 0 -2
BITMAP
00
08
70
98
A8
A8
A8
A8
C8
70
80
00
ENDCHAR
STARTCHAR u00D9
ENCODING 217
SWIDTH 500 0
DWIDTH 6 0
BBX 6 12 0 -2
BITMAP
40
20
00
88
88
88
88
88
88
70
00
00
ENDCHAR
STARTCHAR u00DA
ENCODING 218
SWIDTH 500 0
DWIDTH 6 0
BBX 6 12 0 -2
BITMAP
10
20
00
88
88
88
88
88
88
70
00
00
ENDCHAR
STARTCHAR u00DB
ENCODING 219
SWIDTH 500 0
DWIDTH 6 0
BBX 6 12 0 -2
BITMAP
20
50
00
88
88
88
88
88
88
70
00
00
ENDCHAR
STARTCHAR u00DC
ENCODING 220
SWIDTH 500 0
DWIDTH 6 0
BBX 6 12 0 -2
BITMAP
00
50
00
88
88
88
88
88
88
70
00
00
ENDCHAR
STARTCHAR u00DD
ENCODING 221
SWIDTH 500 0
DWIDTH 6 0
BBX 6 12 0 -2
BITMAP
10
20
00
88
88
50
50
20
20
20
00
00
ENDCHAR
STARTCHAR u00DE
ENCODING 222
SWIDTH 500 0
DWIDTH 6 0
BBX 6 12 0 -2
BITMAP
00
00
80
80
F0
88
88
F0
80
80
00
00
ENDCHAR
STARTCHAR u00DF
ENCODING 223
SWIDTH 500 0
DWIDTH 6 0
BBX 6 12 0 -2
BITMAP
00
00
60
90
90
A0
90
88
88
B0
00
00
ENDCHAR
STARTCHAR u00E0
ENCODING 224
SWIDTH 500 0
DWIDTH 6 0
BBX 6 12 0 -2
BITMAP
00
40
20
00
70
08
78
88
88
78
00
00
ENDCHAR
STARTCHAR u00E1
ENCODING 225
SWIDTH 500 0
DWIDTH 6 0
BBX 6 12 0 -2
BITMAP
00
10
20
00
70
08
78
88
88
78
00
00
ENDCHAR
STARTCHAR u00E2
ENCODING 226
SWIDTH 500 0
DWIDTH 6 0
BBX 6 12 0 -2
BITMAP
00
20
50
00
70
08
78
88
88
78
00
00
ENDCHAR
STARTCHAR u00E3
ENCODING 227
SWIDTH 500 0
DWIDTH 6 0
BBX 6 12 0 -2
BITMAP
00
68
90
00
70
08
78
88
88
78
00
00
ENDCHAR
STARTCHAR u00E4
ENCODING 228
SWIDTH 500 0
DWIDTH 6 0
BBX 6 12 0 -2
BITMAP
00
00
50
00
70
08
78
88
88
78
00
00
ENDCHAR
STARTCHAR u00E5
ENCODING 229
SWIDTH 500 0
DWIDTH 6 0
BBX 6 12 0 -2
BITMAP
00
20
50
20
00
70
08
78
88
78
00
00
ENDCHAR
STARTCHAR u00E6
ENCODING 230
SWIDTH 500 0
DWIDTH 6 0
BBX 6 12 0 -2
BITMAP
00
00
00
00
D0
28
78
A0
A0
58
00
00
ENDCHAR
STARTCHAR u00E7
ENCODING 231
SWIDTH 500 0
DWIDTH 6 0
BBX 6 12 0 -2
BITMAP
00
00
00
00
70
88
80
80
88
70
20
40
ENDCHAR
STARTCHAR u00E8
ENCODING 232
SWIDTH 500 0
DWIDTH 6 0
BBX 6 12 0 -2
BITMAP
00
40
20
00
70
88
F8
80
88
70
00
00
ENDCHAR
STARTCHAR u00E9
ENCODING 233
SWIDTH 500 0
DWIDTH 6 0
BBX 6 12 0 -2
BITMAP
00
10
20
00
70
88
F8
80
88
70
00
00
ENDCHAR
STARTCHAR u00EA
ENCODING 234
SWIDTH 500 0
DWIDTH 6 0
BBX 6 12 0 -2
BITMAP
00
20
50
00
70
88
F8
80
88
70
00
00
ENDCHAR
STARTCHAR u00EB
ENCODING 235
SWIDTH 500 0
DWIDTH 6 0
BBX 6 12 0 -2
BITMAP
00
00
50
00
70
88
F8
80
88
70
00
00
ENDCHAR
STARTCHAR u00EC
ENCODING 236
SWIDTH 500 0
DWIDTH 6 0
BBX 6 12 0 -2
BITMAP
00
40
20
00
E0
20
20
20
20
F8
00
00
ENDCHAR
STARTCHAR u00ED
ENCODING 237
SWIDTH 500 0
DWIDTH 6 0
BBX 6 12 0 -2
BITMAP
00
10
20
00
E0
20
20
20
20
F8
00
00
ENDCHAR
STARTCHAR u00EE
ENCODING 238
SWIDTH 500 0
DWIDTH 6 0
BBX 6 12 0 -2
BITMAP
00
20
50
00
E0
20
20
20
20
F8
00
00
ENDCHAR
STARTCHAR u00EF
ENCODING 239
SWIDTH 500 0
DWIDTH 6 0
BBX 6 12 0 -2
BITMAP
00
00
50
00
E0
20
20
20
20
F8
00
00
ENDCHAR
STARTCHAR u00F0
ENCODING 240
SWIDTH 500 0
DWIDTH 6 0
BBX 6 12 0 -2
BITMAP
40
38
E0
10
70
88
88
88
88
70
00
00
ENDCHAR
STARTCHAR u00F1
ENCODING 241
SWIDTH 500 0
DWIDTH 6 0
BBX 6 12 0 -2
BITMAP
00
68
90
00
B0
C8
88
88
88
88
00
00
ENDCHAR
STARTCHAR u00F2
ENCODING 242
SWIDTH 500 0
DWIDTH 6 0
BBX 6 12 0 -2
BITMAP
00
40
20
00
70
88
88
88
88
70
00
00
ENDCHAR
STARTCHAR u00F3
ENCODING 243
SWIDTH 500 0
DWIDTH 6 0
BBX 6 12 0 -2
BITMAP
00
10
20
00
70
88
88
88
88
70
00
00
ENDCHAR
STARTCHAR u00F4
ENCODING 244
SWIDTH 500 0
DWIDTH 6 0
BBX 6 12 0 -2
BITMAP
00
20
50
00
70
88
88
88
88
70
00
00
ENDCHAR
STARTCHAR u00F5
ENCODING 245
SWIDTH 500 0
DWIDTH 6 0
BBX 6 12 0 -2
BITMAP
00
68
90
00
70
88
88
88
88
70
00
00
ENDCHAR
STARTCHAR u00F6
ENCODING 246
SWIDTH 500 0
DWIDTH 6 0
BBX 6 12 0 -2
BITMAP
00
00
50
00
70
88
88
88
88
70
00
00
ENDCHAR
STARTCHAR u00F7
ENCODING 247
SWIDTH 500 0
DWIDTH 6 0
BBX 6 12 0 -2
BITMAP
00
00
00
00
20
00
F8
00
20
00
00
00
ENDCHAR
STARTCHAR u00F8
ENCODING 248
SWIDTH 500 0
DWIDTH 6 0
BBX 6 12 0 -2
BITMAP
00
00
00
08
70
98
A8
A8
C8
70
80
00
ENDCHAR
STARTCHAR u00F9
ENCODING 249
SWIDTH 500 0
DWIDTH 6 0
BBX 6 12 0 -2
BITMAP
00
40
20
00
88
88
88
88
98
68
00
00
ENDCHAR
STARTCHAR u00FA
ENCODING 250
SWIDTH 500 0
DWIDTH 6 0
BBX 6 12 0 -2
BITMAP
00
10
20
00
88
88
88
88
98
68
00
00
ENDCHAR
STARTCHAR u00FB
ENCODING 251
SWIDTH 500 0
DWIDTH 6 0
BBX 6 12 0 -2
BITMAP
00
20
50
00
88
88
88
88
98
68
00
00
ENDCHAR
STARTCHAR u00FC
ENCODING 252
SWIDTH 500 0
DWIDTH 6 0
BBX 6 12 0 -2
BITMAP
00
00
50
00
88
88
88
88
98
68
00
00
ENDCHAR
STARTCHAR u00FD
ENCODING 253
SWIDTH 500 0
DWIDTH 6 0
BBX 6 12 0 -2
BITMAP
00
10
20
00
88
88
88
50
50
20
20
C0
ENDCHAR
STARTCHAR u00FE
ENCODING 254
SWIDTH 500 0
DWIDTH 6 0
BBX 6 12 0 -2
BITMAP
00
00
80
80
F0
88
88
88
88
F0
80
80
ENDCHAR
STARTCHAR u00FF
ENCODING 255
SWIDTH 500 0
DWIDTH 6 0
BBX 6 12 0 -2
BITMAP
00
00
50
00
88
88
88
50
50
20
20
C0
ENDCHAR
STARTCHAR u0100
ENCODING 256
SWIDTH 500 0
DWIDTH 6 0
BBX 6 12 0 -2
BITMAP
00
70
00
20
20
50
50
70
88
88
00
00
ENDCHAR
STARTCHAR u0101
ENCODING 257
SWIDTH 500 0
DWIDTH 6 0
BBX 6 12 0 -2
BITMAP
00
00
70
00
70
08
78
88
88
78
00
00
ENDCHAR
STARTCHAR u0102
ENCODING 258
SWIDTH 500 0
DWIDTH 6 0
BBX 6 12 0 -2
BITMAP
88
70
00
20
20
50
50
70
88
88
00
00
ENDCHAR
STARTCHAR u0103
ENCODING 259
SWIDTH 500 0
DWIDTH 6 0
BBX 6 12 0 -2
BITMAP
00
48
30
00
70
08
78
88
88
78
00
00
ENDCHAR
STARTCHAR u0104
ENCODING 260
SWIDTH 500 0
DWIDTH 6 0
BBX 6 12 0 -2
BITMAP
00
00
20
20
50
50
70
88
88
88
10
08
ENDCHAR
STARTCHAR u0105
ENCODING 261
SWIDTH 500 0
DWIDTH 6 0
BBX 6 12 0 -2
BITMAP
00
00
00
00
70
08
78
88
88
78
10
08
ENDCHAR
STARTCHAR u0106
ENCODING 262
SWIDTH 500 0
DWIDTH 6 0
BBX 6 12 0 -2
BITMAP
10
20
00
70
88
80
80
80
88
70
00
00
ENDCHAR
STARTCHAR u0107
ENCODING 263
SWIDTH 500 0
DWIDTH 6 0
BBX 6 12 0 -2
BITMAP
00
10
20
00
70
88
80
80
88
70
00
00
ENDCHAR
STARTCHAR u0108
ENCODING 264
SWIDTH 500 0
DWIDTH 6 0
BBX 6 12 0 -2
BITMAP
20
50
00
70
88
80
80
80
88
70
00
00
ENDCHAR
STARTCHAR u0109
ENCODING 265
SWIDTH 500 0
DWIDTH 6 0
BBX 6 12 0 -2
BITMAP
00
20
50
00
70
88
80
80
88
70
00
00
ENDCHAR
STARTCHAR u010A
ENCODING 266
SWIDTH 500 0
DWIDTH 6 0
BBX 6 12 0 -2
BITMAP
00
20
00
70
88
80
80
80
88
70
00
00
ENDCHAR
STARTCHAR u010B
ENCODING 267
SWIDTH 500 0
DWIDTH 6 0
BBX 6 12 0 -2
BITMAP
00
00
20
00
70
88
80
80
88
70
00
00
ENDCHAR
STARTCHAR u010C
ENCODING 268
SWIDTH 500 0
DWIDTH 6 0
BBX 6 12 0 -2
BITMAP
50
20
00
70
88
80
80
80
88
70
00
00
ENDCHAR
STARTCHAR u010D
ENCODING 269
SWIDTH 500 0
DWIDTH 6 0
BBX 6 12 0 -2
BITMAP
00
50
20
00
70
88
80
80
88
70
00
00
ENDCHAR
STARTCHAR u010E
ENCODING 270
SWIDTH 500 0
DWIDTH 6 0
BBX 6 12 0 -2
BITMAP
50
20
00
F0
88
88
88
88
88
F0
00
00
ENDCHAR
STARTCHAR u010F
ENCODING 271
SWIDTH 500 0
DWIDTH 6 0
BBX 6 12 0 -2
BITMAP
00
00
14
14
70
90
90
90
90
70
00
00
ENDCHAR
STARTCHAR u0110
ENCODING 272
SWIDTH 500 0
DWIDTH 6 0
BBX 6 12 0 -2
BITMAP
00
00
70
48
48
E8
48
48
48
70
00
00
ENDCHAR
STARTCHAR u0111
ENCODING 273
SWIDTH 500 0
DWIDTH 6 0
BBX 6 12 0 -2
BITMAP
00
00
10
38
10
70
90
90
90
70
00
00
ENDCHAR
STARTCHAR u0112
ENCODING 274
SWIDTH 500 0
DWIDTH 6 0
BBX 6 12 0 -2
BITMAP
00
70
00
F8
80
80
F0
80
80
F8
00
00
ENDCHAR
STARTCHAR u0113
ENCODING 275
SWIDTH 500 0
DWIDTH 6 0
BBX 6 12 0 -2
BITMAP
00
00
70
00
70
88
F8
80
88
70
00
00
ENDCHAR
STARTCHAR u0114
ENCODING 276
SWIDTH 500 0
DWIDTH 6 0
BBX 6 12 0 -2
BITMAP
88
70
00
F8
80
80
F0
80
80
F8
00
00
ENDCHAR
STARTCHAR u0115
ENCODING 277
SWIDTH 500 0
DWIDTH 6 0
BBX 6 12 0 -2
BITMAP
00
48
30
00
70
88
F8
80
88
70
00
00
ENDCHAR
STARTCHAR u0116
ENCODING 278
SWIDTH 500 0
DWIDTH 6 0
BBX 6 12 0 -2
BITMAP
00
20
00
F8
80
80
F0
80
80
F8
00
00
ENDCHAR
STARTCHAR u0117
ENCODING 279
SWIDTH 500 0
DWIDTH 6 0
BBX 6 12 0 -2
BITMAP
00
00
20
00
70
88
F8
80
88
70
00
00
ENDCHAR
STARTCHAR u0118
ENCODING 280
SWIDTH 500 0
DWIDTH 6 0
BBX 6 12 0 -2
BITMAP
00
00
F8
80
80
F0
80
80
80
F8
10
08
ENDCHAR
STARTCHAR u0119
ENCODING 281
SWIDTH 500 0
DWIDTH 6 0
BBX 6 12 0 -2
BITMAP
00
00
00
00
70
88
F8
80
88
70
10
08
ENDCHAR
STARTCHAR u011A
ENCODING 282
SWIDTH 500 0
DWIDTH 6 0
BBX 6 12 0 -2
BITMAP
50
20
00
F8
80
80
F0
80
80
F8
00
00
ENDCHAR
STARTCHAR u011B
ENCODING 283
SWIDTH 500 0
DWIDTH 6 0
BBX 6 12 0 -2
BITMAP
00
50
20
00
70
88
F8
80
88
70
00
00
ENDCHAR
STARTCHAR u011C
ENCODING 284
SWIDTH 500 0
DWIDTH 6 0
BBX 6 12 0 -2
BITMAP
20
50
00
70
88
80
80
98
88
78
00
00
ENDCHAR
STARTCHAR u011D
ENCODING 285
SWIDTH 500 0
DWIDTH 6 0
BBX 6 12 0 -2
BITMAP
00
20
50
00
78
88
88
88
88
78
08
70
ENDCHAR
STARTCHAR u011E
ENCODING 286
SWIDTH 500 0
DWIDTH 6 0
BBX 6 12 0 -2
BITMAP
88
70
00
70
88
80
80
98
88
78
00
00
ENDCHAR
STARTCHAR u011F
ENCODING 287
SWIDTH 500 0
DWIDTH 6 0
BBX 6 12 0 -2
BITMAP
00
48
30
00
78
88
88
88
88
78
08
70
ENDCHAR
STARTCHAR u0120
ENCODING 288
SWIDTH 500 0
DWIDTH 6 0
BBX 6 12 0 -2
BITMAP
00
20
00
70
88
80
80
98
88
78
00
00
ENDCHAR
STARTCHAR u0121
ENCODING 289
SWIDTH 500 0
DWIDTH 6 0
BBX 6 12 0 -2
BITMAP
00
00
20
00
78
88
88
88
88
78
08
70
ENDCHAR
STARTCHAR u0122
ENCODING 290
SWIDTH 500 0
DWIDTH 6 0
BBX 6 12 0 -2
BITMAP
00
00
70
88
80
80
98
88
88
78
20
40
ENDCHAR
STARTCHAR u0123
ENCODING 291
SWIDTH 500 0
DWIDTH 6 0
BBX 6 12 0 -2
BITMAP
00
10
20
00
78
88
88
88
88
78
08
70
ENDCHAR
STARTCHAR u0124
ENCODING 292
SWIDTH 500 0
DWIDTH 6 0
BBX 6 12 0 -2
BITMAP
20
50
00
88
88
88
F8
88
88
88
00
00
ENDCHAR
STARTCHAR u0125
ENCODING 293
SWIDTH 500 0
DWIDTH 6 0
BBX 6 12 0 -2
BITMAP
20
50
00
80
80
B0
C8
88
88
88
00
00
ENDCHAR
STARTCHAR u0126
ENCODING 294
SWIDTH 500 0
DWIDTH 6 0
BBX 6 12 0 -2
BITMAP
00
00
48
FC
48
78
48
48
48
48
00
00
ENDCHAR
STARTCHAR u0127
ENCODING 295
SWIDTH 500 0
DWIDTH 6 0
BBX 6 12 0 -2
BITMAP
00
00
40
F0
40
50
68
48
48
48
00
00
ENDCHAR
STARTCHAR u0128
ENCODING 296
SWIDTH 500 0
DWIDTH 6 0
BBX 6 12 0 -2
BITMAP
68
90
00
F8
20
20
20
20
20
F8
00
00
ENDCHAR
STARTCHAR u0129
ENCODING 297
SWIDTH 500 0
DWIDTH 6 0
BBX 6 12 0 -2
BITMAP
00
68
90
00
E0
20
20
20
20
F8
00
00
ENDCHAR
STARTCHAR u012A
ENCODING 298
SWIDTH 500 0
DWIDTH 6 0
BBX 6 12 0 -2
BITMAP
00
70
00
F8
20
20
20
20
20
F8
00
00
ENDCHAR
STARTCHAR u012B
ENCODING 299
SWIDTH 500 0
DWIDTH 6 0
BBX 6 12 0 -2
BITMAP
00
00
70
00
E0
20
20
20
20
F8
00
00
ENDCHAR
STARTCHAR u012C
ENCODING 300
SWIDTH 500 0
DWIDTH 6 0
BBX 6 12 0 -2
BITMAP
88
70
00
F8
20
20
20
20
20
F8
00
00
ENDCHAR
STARTCHAR u012D
ENCODING 301
SWIDTH 500 0
DWIDTH 6 0
BBX 6 12 0 -2
BITMAP
00
48
30
00
E0
20
20
20
20
F8
00
00
ENDCHAR
STARTCHAR u012E
ENCODING 302
SWIDTH 500 0
DWIDTH 6 0
BBX 6 12 0 -2
BITMAP
00
00
F8
20
20
20
20
20
20
F8
20
10
ENDCHAR
STARTCHAR u012F
ENCODING 303
SWIDTH 500 0
DWIDTH 6 0
BBX 6 12 0 -2
BITMAP
00
00
20
00
E0
20
20
20
20
F8
20
10
ENDCHAR
STARTCHAR u0130
ENCODING 304
SWIDTH 500 0
DWIDTH 6 0
BBX 6 12 0 -2
BITMAP
00
20
00
F8
20
20
20
20
20
F8
00
00
ENDCHAR
STARTCHAR u0131
ENCODING 305
SWIDTH 500 0
DWIDTH 6 0
BBX 6 12 0 -2
BITMAP
00
00
00
00
E0
20
20
20
20
F8
00
00
ENDCHAR
STARTCHAR u0134
ENCODING 308
SWIDTH 500 0
DWIDTH 6 0
BBX 6 12 0 -2
BITMAP
20
50
00
08
08
08
08
88
88
70
00
00
ENDCHAR
STARTCHAR u0135
ENCODING 309
SWIDTH 500 0
DWIDTH 6 0
BBX 6 12 0 -2
BITMAP
00
10
28
00
F0
10
10
10
10
10
10
E0
ENDCHAR
STARTCHAR u0136
ENCODING 310
SWIDTH 500 0
DWIDTH 6 0
BBX 6 12 0 -2
BITMAP
00
00
88
90
A0
C0
C0
A0
90
88
20
40
ENDCHAR
STARTCHAR u0137
ENCODING 311
SWIDTH 500 0
DWIDTH 6 0
BBX 6 12 0 -2
BITMAP
00
00
80
80
88
B0
C0
A0
90
88
20
40
ENDCHAR
STARTCHAR u0138
ENCODING 312
SWIDTH 500 0
DWIDTH 6 0
BBX 6 12 0 -2
BITMAP
00
00
00
00
88
B0
C0
A0
90
88
00
00
ENDCHAR
STARTCHAR u0139
ENCODING 313
SWIDTH 500 0
DWIDTH 6 0
BBX 6 12 0 -2
BITMAP
40
80
00
80
80
80
80
80
80
F8
00
00
ENDCHAR
STARTCHAR u013A
ENCODING 314
SWIDTH 500 0
DWIDTH 6 0
BBX 6 12 0 -2
BITMAP
10
20
00
E0
20
20
20
20
20
18
00
00
ENDCHAR
STARTCHAR u013B
ENCODING 315
SWIDTH 500 0
DWIDTH 6 0
BBX 6 12 0 -2
BITMAP
00
00
80
80
80
80
80
80
80
F8
20
40
ENDCHAR
STARTCHAR u013C
ENCODING 316
SWIDTH 500 0
DWIDTH 6 0
BBX 6 12 0 -2
BITMAP
00
00
E0
20
20
20
20
20
20
18
40
80
ENDCHAR
STARTCHAR u013D
ENCODING 317
SWIDTH 500 0
DWIDTH 6 0
BBX 6 12 0 -2
BITMAP
00
00
A0
A0
80
80
80
80
80
F8
00
00
ENDCHAR
STARTCHAR u013E
ENCODING 318
SWIDTH 500 0
DWIDTH 6 0
BBX 6 12 0 -2
BITMAP
00
00
E8
28
20
20
20
20
20
18
00
00
ENDCHAR
STARTCHAR u013F
ENCODING 319
SWIDTH 500 0
DWIDTH 6 0
BBX 6 12 0 -2
BITMAP
00
00
80
80
80
A0
80
80
80
F8
00
00
ENDCHAR
STARTCHAR u0140
ENCODING 320
SWIDTH 500 0
DWIDTH 6 0
BBX 6 12 0 -2
BITMAP
00
00
E0
20
20
28
20
20
20
18
00
00
ENDCHAR
STARTCHAR u0141
ENCODING 321
SWIDTH 500 0
DWIDTH 6 0
BBX 6 12 0 -2
BITMAP
00
00
40
40
50
60
C0
40
40
78
00
00
ENDCHAR
STARTCHAR u0142
ENCODING 322
SWIDTH 500 0
DWIDTH 6 0
BBX 6 12 0 -2
BITMAP
00
00
E0
20
28
30
60
A0
20
18
00
00
ENDCHAR
STARTCHAR u0143
ENCODING 323
SWIDTH 500 0
DWIDTH 6 0
BBX 6 12 0 -2
BITMAP
10
20
00
88
C8
C8
A8
98
98
88
00
00
ENDCHAR
STARTCHAR u0144
ENCODING 324
SWIDTH 500 0
DWIDTH 6 0
BBX 6 12 0 -2
BITMAP
00
10
20
00
B0
C8
88
88
88
88
00
00
ENDCHAR
STARTCHAR u0145
ENCODING 325
SWIDTH 500 0
DWIDTH 6 0
BBX 6 12 0 -2
BITMAP
00
00
88
C8
C8
A8
A8
98
98
88
20
40
ENDCHAR
STARTCHAR u0146
ENCODING 326
SWIDTH 500 0
DWIDTH 6 0
BBX 6 12 0 -2
BITMAP
00
00
00
00
B0
C8
88
88
88
88
20
40
ENDCHAR
STARTCHAR u0147
ENCODING 327
SWIDTH 500 0
DWIDTH 6 0
BBX 6 12 0 -2
BITMAP
50
20
00
88
C8
C8
A8
98
98
88
00
00
ENDCHAR
STARTCHAR u0148
ENCODING 328
SWIDTH 500 0
DWIDTH 6 0
BBX 6 12 0 -2
BITMAP
00
50
20
00
B0
C8
88
88
88
88
00
00
ENDCHAR
STARTCHAR u0149
ENCODING 329
SWIDTH 500 0
DWIDTH 6 0
BBX 6 12 0 -2
BITMAP
00
40
80
00
B0
C8
88
88
88
88
00
00
ENDCHAR
STARTCHAR u014A
ENCODING 330
SWIDTH 500 0
DWIDTH 6 0
BBX 6 12 0 -2
BITMAP
00
00
88
C8
C8
A8
A8
98
98
88
08
30
ENDCHAR
STARTCHAR u014B
ENCODING 331
SWIDTH 500 0
DWIDTH 6 0
BBX 6 12 0 -2
BITMAP
00
00
00
00
B0
C8
88
88
88
88
08
30
ENDCHAR
STARTCHAR u014C
ENCODING 332
SWIDTH 500 0
DWIDTH 6 0
BBX 6 12 0 -2
BITMAP
00
70
00
70
88
88
88
88
88
70
00
00
ENDCHAR
STARTCHAR u014D
ENCODING 333
SWIDTH 500 0
DWIDTH 6 0
BBX 6 12 0 -2
BITMAP
00
00
70
00
70
88
88
88
88
70
00
00
ENDCHAR
STARTCHAR u014E
ENCODING 334
SWIDTH 500 0
DWIDTH 6 0
BBX 6 12 0 -2
BITMAP
88
70
00
70
88
88
88
88
88
70
00
00
ENDCHAR
STARTCHAR u014F
ENCODING 335
SWIDTH 500 0
DWIDTH 6 0
BBX 6 12 0 -2
BITMAP
00
48
30
00
70
88
88
88
88
70
00
00
ENDCHAR
STARTCHAR u0150
ENCODING 336
SWIDTH 500 0
DWIDTH 6 0
BBX 6 12 0 -2
BITMAP
28
50
00
70
88
88
88
88
88
70
00
00
ENDCHAR
STARTCHAR u0151
ENCODING 337
SWIDTH 500 0
DWIDTH 6 0
BBX 6 12 0 -2
BITMAP
00
28
50
00
70
88
88
88
88
70
00
00
ENDCHAR
STARTCHAR u0152
ENCODING 338
SWIDTH 500 0
DWIDTH 6 0
BBX 6 12 0 -2
BITMAP
00
00
78
A0
A0
B8
A0
A0
A0
78
00
00
ENDCHAR
STARTCHAR u0153
ENCODING 339
SWIDTH 500 0
DWIDTH 6 0
BBX 6 12 0 -2
BITMAP
00
00
00
00
50
A8
B8
A0
A0
58
00
00
ENDCHAR
STARTCHAR u0154
ENCODING 340
SWIDTH 500 0
DWIDTH 6 0
BBX 6 12 0 -2
BITMAP
10
20
00
F0
88
88
F0
90
88
88
00
00
ENDCHAR
STARTCHAR u0155
ENCODING 341
SWIDTH 500 0
DWIDTH 6 0
BBX 6 12 0 -2
BITMAP
00
10
20
00
B0
C8
80
80
80
80
00
00
ENDCHAR
STARTCHAR u0156
ENCODING 342
SWIDTH 500 0
DWIDTH 6 0
BBX 6 12 0 -2
BITMAP
00
00
F0
88
88
88
F0
90
88
88
20
40
ENDCHAR
STARTCHAR u0157
ENCODING 343
SWIDTH 500 0
DWIDTH 6 0
BBX 6 12 0 -2
BITMAP
00
00
00
00
B0
C8
80
80
80
80
20
40
ENDCHAR
STARTCHAR u0158
ENCODING 344
SWIDTH 500 0
DWIDTH 6 0
BBX 6 12 0 -2
BITMAP
50
20
00
F0
88
88
F0
90
88
88
00
00
ENDCHAR
STARTCHAR u0159
ENCODING 345
SWIDTH 500 0
DWIDTH 6 0
BBX 6 12 0 -2
BITMAP
00
50
20
00
B0
C8
80
80
80
80
00
00
ENDCHAR
STARTCHAR u015A
ENCODING 346
SWIDTH 500 0
DWIDTH 6 0
BBX 6 12 0 -2
BITMAP
10
20
00
70
88
80
70
08
88
70
00
00
ENDCHAR
STARTCHAR u015B
ENCODING 347
SWIDTH 500 0
DWIDTH 6 0
BBX 6 12 0 -2
BITMAP
00
10
20
00
70
88
60
10
88
70
00
00
ENDCHAR
STARTCHAR u015C
ENCODING 348
SWIDTH 500 0
DWIDTH 6 0
BBX 6 12 0 -2
BITMAP
20
50
00
70
88
80
70
08
88
70
00
00
ENDCHAR
STARTCHAR u015D
ENCODING 349
SWIDTH 500 0
DWIDTH 6 0
BBX 6 12 0 -2
BITMAP
00
20
50
00
70
88
60
10
88
70
00
00
ENDCHAR
STARTCHAR u015E
ENCODING 350
SWIDTH 500 0
DWIDTH 6 0
BBX 6 12 0 -2
BITMAP
00
00
70
88
80
60
10
08
88
70
20
40
ENDCHAR
STARTCHAR u015F
ENCODING 351
SWIDTH 500 0
DWIDTH 6 0
BBX 6 12 0 -2
BITMAP
00
00
00
00
70
88
60
10
88
70
20
40
ENDCHAR
STARTCHAR u0160
ENCODING 352
SWIDTH 500 0
DWIDTH 6 0
BBX 6 12 0 -2
BITMAP
50
20
00
70
88
80
70
08
88
70
00
00
ENDCHAR
STARTCHAR u0161
ENCODING 353
SWIDTH 500 0
DWIDTH 6 0
BBX 6 12 0 -2
BITMAP
00
50
20
00
70
88
60
10
88
70
00
00
ENDCHAR
STARTCHAR u0162
ENCODING 354
SWIDTH 500 0
DWIDTH 6 0
BBX 6 12 0 -2
BITMAP
00
00
F8
20
20
20
20
20
20
20
10
20
ENDCHAR
STARTCHAR u0163
ENCODING 355
SWIDTH 500 0
DWIDTH 6 0
BBX 6 12 0 -2
BITMAP
00
00
20
20
F8
20
20
20
20
18
10
20
ENDCHAR
STARTCHAR u0164
ENCODING 356
SWIDTH 500 0
DWIDTH 6 0
BBX 6 12 0 -2
BITMAP
50
20
00
F8
20
20
20
20
20
20
00
00
ENDCHAR
STARTCHAR u0165
ENCODING 357
SWIDTH 500 0
DWIDTH 6 0
BBX 6 12 0 -2
BITMAP
00
08
28
20
F8
20
20
20
20
18
00
00
ENDCHAR
STARTCHAR u0166
ENCODING 358
SWIDTH 500 0
DWIDTH 6 0
BBX 6 12 0 -2
BITMAP
00
00
F8
20
20
70
20
20
20
20
00
00
ENDCHAR
STARTCHAR u0167
ENCODING 359
SWIDTH 500 0
DWIDTH 6 0
BBX 6 12 0 -2
BITMAP
00
00
20
20
F8
20
F8
20
20
18
00
00
ENDCHAR
STARTCHAR u0168
ENCODING 360
SWIDTH 500 0
DWIDTH 6 0
BBX 6 12 0 -2
BITMAP
68
90
00
88
88
88
88
88
88
70
00
00
ENDCHAR
STARTCHAR u0169
ENCODING 361
SWIDTH 500 0
DWIDTH 6 0
BBX 6 12 0 -2
BITMAP
00
68
90
00
88
88
88
88
98
68
00
00
ENDCHAR
STARTCHAR u016A
ENCODING 362
SWIDTH 500 0
DWIDTH 6 0
BBX 6 12 0 -2
BITMAP
00
70
00
88
88
88
88
88
88
70
00
00
ENDCHAR
STARTCHAR u016B
ENCODING 363
SWIDTH 500 0
DWIDTH 6 0
BBX 6 12 0 -2
BITMAP
00
00
70
00
88
88
88
88
98
68
00
00
ENDCHAR
STARTCHAR u016C
ENCODING 364
SWIDTH 500 0
DWIDTH 6 0
BBX 6 12 0 -2
BITMAP
88
70
00
88
88
88
88
88
88
70
00
00
ENDCHAR
STARTCHAR u016D
ENCODING 365
SWIDTH 500 0
DWIDTH 6 0
BBX 6 12 0 -2
BITMAP
00
48
30
00
88
88
88
88
98
68
00
00
ENDCHAR
STARTCHAR u016E
ENCODING 366
SWIDTH 500 0
DWIDTH 6 0
BBX 6 12 0 -2
BITMAP
20
50
20
88
88
88
88
88
88
70
00
00
ENDCHAR
STARTCHAR u016F
ENCODING 367
SWIDTH 500 0
DWIDTH 6 0
BBX 6 12 0 -2
BITMAP
20
50
20
00
88
88
88
88
98
68
00
00
ENDCHAR
STARTCHAR u0170
ENCODING 368
SWIDTH 500 0
DWIDTH 6 0
BBX 6 12 0 -2
BITMAP
28
50
00
88
88
88
88
88
88
70
00
00
ENDCHAR
STARTCHAR u0171
ENCODING 369
SWIDTH 500 0
DWIDTH 6 0
BBX 6 12 0 -2
BITMAP
00
28
50
00
88
88
88
88
98
68
00
00
ENDCHAR
STARTCHAR u0172
ENCODING 370
SWIDTH 500 0
DWIDTH 6 0
BBX 6 12 0 -2
BITMAP
00
00
88
88
88
88
88
88
88
70
20
10
ENDCHAR
STARTCHAR u0173
ENCODING 371
SWIDTH 500 0
DWIDTH 6 0
BBX 6 12 0 -2
BITMAP
00
00
00
00
88
88
88
88
98
68
10
08
ENDCHAR
STARTCHAR u0174
ENCODING 372
SWIDTH 500 0
DWIDTH 6 0
BBX 6 12 0 -2
BITMAP
20
50
00
A8
A8
A8
A8
50
50
50
00
00
ENDCHAR
STARTCHAR u0175
ENCODING 373
SWIDTH 500 0
DWIDTH 6 0
BBX 6 12 0 -2
BITMAP
00
20
50
00
A8
A8
A8
A8
50
50
00
00
ENDCHAR
STARTCHAR u0176
ENCODING 374
SWIDTH 500 0
DWIDTH 6 0
BBX 6 12 0 -2
BITMAP
20
50
00
88
88
50
50
20
20
20
00
00
ENDCHAR
STARTCHAR u0177
ENCODING 375
SWIDTH 500 0
DWIDTH 6 0
BBX 6 12 0 -2
BITMAP
00
20
50
00
88
88
88
50
50
20
20
C0
ENDCHAR
STARTCHAR u0178
ENCODING 376
SWIDTH 500 0
DWIDTH 6 0
BBX 6 12 0 -2
BITMAP
00
50
00
88
88
50
50
20
20
20
00
00
ENDCHAR
STARTCHAR u0179
ENCODING 377
SWIDTH 500 0
DWIDTH 6 0
BBX 6 12 0 -2
BITMAP
10
20
00
F8
08
10
20
40
80
F8
00
00
ENDCHAR
STARTCHAR u017A
ENCODING 378
SWIDTH 500 0
DWIDTH 6 0
BBX 6 12 0 -2
BITMAP
00
10
20
00
F8
10
20
40
80
F8
00
00
ENDCHAR
STARTCHAR u017B
ENCODING 379
SWIDTH 500 0
DWIDTH 6 0
BBX 6 12 0 -2
BITMAP
00
20
00
F8
08
10
20
40
80
F8
00
00
ENDCHAR
STARTCHAR u017C
ENCODING 380
SWIDTH 500 0
DWIDTH 6 0
BBX 6 12 0 -2
BITMAP
00
00
20
00
F8
10
20
40
80
F8
00
00
ENDCHAR
STARTCHAR u017D
ENCODING 381
SWIDTH 500 0
DWIDTH 6 0
BBX 6 12 0 -2
BITMAP
50
20
00
F8
08
10
20
40
80
F8
00
00
ENDCHAR
STARTCHAR u017E
ENCODING 382
SWIDTH 500 0
DWIDTH 6 0
BBX 6 12 0 -2
BITMAP
00
50
20
00
F8
10
20
40
80
F8
00
00
ENDCHAR
STARTCHAR u017F
ENCODING 383
SWIDTH 500 0
DWIDTH 6 0
BBX 6 12 0 -2
BITMAP
00
00
18
20
E0
20
20
20
20
20
00
00
ENDCHAR
STARTCHAR u0180
ENCODING 384
SWIDTH 500 0
DWIDTH 6 0
BBX 6 12 0 -2
BITMAP
00
00
40
E0
40
70
48
48
48
70
00
00
ENDCHAR
STARTCHAR u0182
ENCODING 386
SWIDTH 500 0
DWIDTH 6 0
BBX 6 12 0 -2
BITMAP
00
00
F0
80
80
F0
88
88
88
F0
00
00
ENDCHAR
STARTCHAR u0183
ENCODING 387
SWIDTH 500 0
DWIDTH 6 0
BBX 6 12 0 -2
BITMAP
00
00
F0
80
F0
88
88
88
88
F0
00
00
ENDCHAR
STARTCHAR u0186
ENCODING 390
SWIDTH 500 0
DWIDTH 6 0
BBX 6 12 0 -2
BITMAP
00
00
70
88
08
08
08
08
88
70
00
00
ENDCHAR
STARTCHAR u0189
ENCODING 393
SWIDTH 500 0
DWIDTH 6 0
BBX 6 12 0 -2
BITMAP
00
00
70
48
48
E8
48
48
48
70
00
00
ENDCHAR
STARTCHAR u018B
ENCODING 395
SWIDTH 500 0
DWIDTH 6 0
BBX 6 12 0 -2
BITMAP
00
00
78
08
08
78
88
88
88
78
00
00
ENDCHAR
STARTCHAR u018C
ENCODING 396
SWIDTH 500 0
DWIDTH 6 0
BBX 6 12 0 -2
BITMAP
00
00
78
08
78
88
88
88
88
78
00
00
ENDCHAR
STARTCHAR u018E
ENCODING 398
SWIDTH 500 0
DWIDTH 6 0
BBX 6 12 0 -2
BITMAP
00
00
F8
08
08
78
08
08
08
F8
00
00
ENDCHAR
STARTCHAR u018F
ENCODING 399
SWIDTH 500 0
DWIDTH 6 0
BBX 6 12 0 -2
BITMAP
00
00
70
88
08
08
F8
88
88
70
00
00
ENDCHAR
STARTCHAR u0191
ENCODING 401
SWIDTH 500 0
DWIDTH 6 0
BBX 6 12 0 -2
BITMAP
00
00
78
40
40
70
40
40
40
40
40
80
ENDCHAR
STARTCHAR u0192
ENCODING 402
SWIDTH 500 0
DWIDTH 6 0
BBX 6 12 0 -2
BITMAP
00
00
18
20
F8
20
20
20
20
20
20
C0
ENDCHAR
STARTCHAR u019A
ENCODING 410
SWIDTH 500 0
DWIDTH 6 0
BBX 6 12 0 -2
BITMAP
00
00
E0
20
20
F8
20
20
20
18
00
00
ENDCHAR
STARTCHAR u019E
ENCODING 414
SWIDTH 500 0
DWIDTH 6 0
BBX 6 12 0 -2
BITMAP
00
00
00
00
B0
C8
88
88
88
88
08
08
ENDCHAR
STARTCHAR u019F
ENCODING 415
SWIDTH 500 0
DWIDTH 6 0
BBX 6 12 0 -2
BITMAP
00
00
70
88
88
F8
88
88
88
70
00
00
ENDCHAR
STARTCHAR u01A0
ENCODING 416
SWIDTH 500 0
DWIDTH 6 0
BBX 6 12 0 -2
BITMAP
00
04
74
88
88
88
88
88
88
70
00
00
ENDCHAR
STARTCHAR u01A1
ENCODING 417
SWIDTH 500 0
DWIDTH 6 0
BBX 6 12 0 -2
BITMAP
00
00
00
04
74
88
88
88
88
70
00
00
ENDCHAR
STARTCHAR u01A7
ENCODING 423
SWIDTH 500 0
DWIDTH 6 0
BBX 6 12 0 -2
BITMAP
00
00
70
88
08
30
40
80
88
70
00
00
ENDCHAR
STARTCHAR u01A8
ENCODING 424
SWIDTH 500 0
DWIDTH 6 0
BBX 6 12 0 -2
BITMAP
00
00
00
00
70
88
30
40
88
70
00
00
ENDCHAR
STARTCHAR u01A9
ENCODING 425
SWIDTH 500 0
DWIDTH 6 0
BBX 6 12 0 -2
BITMAP
00
00
F8
40
20
10
20
40
80
F8
00
00
ENDCHAR
STARTCHAR u01AF
ENCODING 431
SWIDTH 500 0
DWIDTH 6 0
BBX 6 12 0 -2
BITMAP
00
04
84
88
88
88
88
88
88
70
00
00
ENDCHAR
STARTCHAR u01B0
ENCODING 432
SWIDTH 500 0
DWIDTH 6 0
BBX 6 12 0 -2
BITMAP
00
00
04
04
88
88
88
88
98
68
00
00
ENDCHAR
STARTCHAR u01B1
ENCODING 433
SWIDTH 500 0
DWIDTH 6 0
BBX 6 12 0 -2
BITMAP
00
00
D8
50
88
88
88
88
88
70
00
00
ENDCHAR
STARTCHAR u01CD
ENCODING 461
SWIDTH 500 0
DWIDTH 6 0
BBX 6 12 0 -2
BITMAP
50
20
00
20
20
50
50
70
88
88
00
00
ENDCHAR
STARTCHAR u01CE
ENCODING 462
SWIDTH 500 0
DWIDTH 6 0
BBX 6 12 0 -2
BITMAP
00
50
20
00
70
08
78
88
88
78
00
00
ENDCHAR
STARTCHAR u01CF
ENCODING 463
SWIDTH 500 0
DWIDTH 6 0
BBX 6 12 0 -2
BITMAP
50
20
00
F8
20
20
20
20
20
F8
00
00
ENDCHAR
STARTCHAR u01D0
ENCODING 464
SWIDTH 500 0
DWIDTH 6 0
BBX 6 12 0 -2
BITMAP
00
50
20
00
E0
20
20
20
20
F8
00
00
ENDCHAR
STARTCHAR u01D1
ENCODING 465
SWIDTH 500 0
DWIDTH 6 0
BBX 6 12 0 -2
BITMAP
50
20
00
70
88
88
88
88
88
70
00
00
ENDCHAR
STARTCHAR u01D2
ENCODING 466
SWIDTH 500 0
DWIDTH 6 0
BBX 6 12 0 -2
BITMAP
00
50
20
00
70
88
88
88
88
70
00
00
ENDCHAR
STARTCHAR u01D3
ENCODING 467
SWIDTH 500 0
DWIDTH 6 0
BBX 6 12 0 -2
BITMAP
50
20
00
88
88
88
88
88
88
70
00
00
ENDCHAR
STARTCHAR u01D4
ENCODING 468
SWIDTH 500 0
DWIDTH 6 0
BBX 6 12 0 -2
BITMAP
00
50
20
00
88
88
88
88
98
68
00
00
ENDCHAR
STARTCHAR u01D5
ENCODING 469
SWIDTH 500 0
DWIDTH 6 0
BBX 6 12 0 -2
BITMAP
70
00
50
00
88
88
88
88
88
70
00
00
ENDCHAR
STARTCHAR u01D6
ENCODING 470
SWIDTH 500 0
DWIDTH 6 0
BBX 6 12 0 -2
BITMAP
00
70
00
50
00
88
88
88
98
68
00
00
ENDCHAR
STARTCHAR u01D7
ENCODING 471
SWIDTH 500 0
DWIDTH 6 0
BBX 6 12 0 -2
BITMAP
10
20
88
00
88
88
88
88
88
70
00
00
ENDCHAR
STARTCHAR u01D8
ENCODING 472
SWIDTH 500 0
DWIDTH 6 0
BBX 6 12 0 -2
BITMAP
10
20
00
50
00
88
88
88
98
68
00
00
ENDCHAR
STARTCHAR u01D9
ENCODING 473
SWIDTH 500 0
DWIDTH 6 0
BBX 6 12 0 -2
BITMAP
50
20
88
00
88
88
88
88
88
70
00
00
ENDCHAR
STARTCHAR u01DA
ENCODING 474
SWIDTH 500 0
DWIDTH 6 0
BBX 6 12 0 -2
BITMAP
50
20
00
50
00
88
88
88
98
68
00
00
ENDCHAR
STARTCHAR u01DB
ENCODING 475
SWIDTH 500 0
DWIDTH 6 0
BBX 6 12 0 -2
BITMAP
40
20
88
00
88
88
88
88
88
70
00
00
ENDCHAR
STARTCHAR u01DC
ENCODING 476
SWIDTH 500 0
DWIDTH 6 0
BBX 6 12 0 -2
BITMAP
40
20
00
50
00
88
88
88
98
68
00
00
ENDCHAR
STARTCHAR u01DD
ENCODING 477
SWIDTH 500 0
DWIDTH 6 0
BBX 6 12 0 -2
BITMAP
00
00
00
00
70
88
08
F8
88
70
00
00
ENDCHAR
STARTCHAR u01DE
ENCODING 478
SWIDTH 500 0
DWIDTH 6 0
BBX 6 12 0 -2
BITMAP
70
00
50
00
20
50
50
70
88
88
00
00
ENDCHAR
STARTCHAR u01DF
ENCODING 479
SWIDTH 500 0
DWIDTH 6 0
BBX 6 12 0 -2
BITMAP
00
70
00
50
00
70
08
78
88
78
00
00
ENDCHAR
STARTCHAR u01E0
ENCODING 480
SWIDTH 500 0
DWIDTH 6 0
BBX 6 12 0 -2
BITMAP
70
00
20
00
20
50
50
70
88
88
00
00
ENDCHAR
STARTCHAR u01E1
ENCODING 481
SWIDTH 500 0
DWIDTH 6 0
BBX 6 12 0 -2
BITMAP
00
70
00
20
00
70
08
78
88
78
00
00
ENDCHAR
STARTCHAR u01E2
ENCODING 482
SWIDTH 500 0
DWIDTH 6 0
BBX 6 12 0 -2
BITMAP
00
70
00
38
50
50
58
70
90
98
00
00
ENDCHAR
STARTCHAR u01E3
ENCODING 483
SWIDTH 500 0
DWIDTH 6 0
BBX 6 12 0 -2
BITMAP
00
00
70
00
D0
28
78
A0
A0
58
00
00
ENDCHAR
STARTCHAR u01E6
ENCODING 486
SWIDTH 500 0
DWIDTH 6 0
BBX 6 12 0 -2
BITMAP
50
20
00
70
88
80
80
98
88
78
00
00
ENDCHAR
STARTCHAR u01E7
ENCODING 487
SWIDTH 500 0
DWIDTH 6 0
BBX 6 12 0 -2
BITMAP
00
50
20
00
78
88
88
88
88
78
08
70
ENDCHAR
STARTCHAR u01E8
ENCODING 488
SWIDTH 500 0
DWIDTH 6 0
BBX 6 12 0 -2
BITMAP
50
20
00
88
90
A0
C0
A0
90
88
00
00
ENDCHAR
STARTCHAR u01E9
ENCODING 489
SWIDTH 500 0
DWIDTH 6 0
BBX 6 12 0 -2
BITMAP
50
20
80
80
88
B0
C0
A0
90
88
00
00
ENDCHAR
STARTCHAR u01EA
ENCODING 490
SWIDTH 500 0
DWIDTH 6 0
BBX 6 12 0 -2
BITMAP
00
00
70
88
88
88
88
88
88
70
20
10
ENDCHAR
STARTCHAR u01EB
ENCODING 491
SWIDTH 500 0
DWIDTH 6 0
BBX 6 12 0 -2
BITMAP
00
00
00
00
70
88
88
88
88
70
20
10
ENDCHAR
STARTCHAR u01EC
ENCODING 492
SWIDTH 500 0
DWIDTH 6 0
BBX 6 12 0 -2
BITMAP
00
70
00
70
88
88
88
88
88
70
20
10
ENDCHAR
STARTCHAR u01ED
ENCODING 493
SWIDTH 500 0
DWIDTH 6 0
BBX 6 12 0 -2
BITMAP
00
00
70
00
70
88
88
88
88
70
20
10
ENDCHAR
STARTCHAR u01F0
ENCODING 496
SWIDTH 500 0
DWIDTH 6 0
BBX 6 12 0 -2
BITMAP
00
28
10
00
F0
10
10
10
10
10
10
E0
ENDCHAR
STARTCHAR u01F4
ENCODING 500
SWIDTH 500 0
DWIDTH 6 0
BBX 6 12 0 -2
BITMAP
10
20
00
70
88
80
80
98
88
78
00
00
ENDCHAR
STARTCHAR u01F5
ENCODING 501
SWIDTH 500 0
DWIDTH 6 0
BBX 6 12 0 -2
BITMAP
00
10
20
00
78
88
88
88
88
78
08
70
ENDCHAR
STARTCHAR u01F8
ENCODING 504
SWIDTH 500 0
DWIDTH 6 0
BBX 6 12 0 -2
BITMAP
40
20
00
88
C8
C8
A8
98
98
88
00
00
ENDCHAR
STARTCHAR u01F9
ENCODING 505
SWIDTH 500 0
DWIDTH 6 0
BBX 6 12 0 -2
BITMAP
00
40
20
00
B0
C8
88
88
88
88
00
00
ENDCHAR
STARTCHAR u01FA
ENCODING 506
SWIDTH 500 0
DWIDTH 6 0
BBX 6 12 0 -2
BITMAP
10
20
50
20
20
50
50
70
88
88
00
00
ENDCHAR
STARTCHAR u01FB
ENCODING 507
SWIDTH 500 0
DWIDTH 6 0
BBX 6 12 0 -2
BITMAP
10
20
50
20
00
70
08
78
88
78
00
00
ENDCHAR
STARTCHAR u01FC
ENCODING 508
SWIDTH 500 0
DWIDTH 6 0
BBX 6 12 0 -2
BITMAP
10
20
00
38
50
50
58
70
90
98
00
00
ENDCHAR
STARTCHAR u01FD
ENCODING 509
SWIDTH 500 0
DWIDTH 6 0
BBX 6 12 0 -2
BITMAP
00
10
20
00
D0
28
78
A0
A0
58
00
00
ENDCHAR
STARTCHAR u01FE
ENCODING 510
SWIDTH 500 0
DWIDTH 6 0
BBX 6 12 0 -2
BITMAP
10
20
08
70
98
A8
A8
A8
C8
70
80
00
ENDCHAR
STARTCHAR u01FF
ENCODING 511
SWIDTH 500 0
DWIDTH 6 0
BBX 6 12 0 -2
BITMAP
00
10
20
08
70
98
A8
A8
C8
70
80
00
ENDCHAR
STARTCHAR u0200
ENCODING 512
SWIDTH 500 0
DWIDTH 6 0
BBX 6 12 0 -2
BITMAP
A0
50
00
20
20
50
50
70
88
88
00
00
ENDCHAR
STARTCHAR u0201
ENCODING 513
SWIDTH 500 0
DWIDTH 6 0
BBX 6 12 0 -2
BITMAP
00
A0
50
00
70
08
78
88
88
78
00
00
ENDCHAR
STARTCHAR u0202
ENCODING 514
SWIDTH 500 0
DWIDTH 6 0
BBX 6 12 0 -2
BITMAP
70
88
00
20
20
50
50
70
88
88
00
00
ENDCHAR
STARTCHAR u0203
ENCODING 515
SWIDTH 500 0
DWIDTH 6 0
BBX 6 12 0 -2
BITMAP
00
30
48
00
70
08
78
88
88
78
00
00
ENDCHAR
STARTCHAR u0204
ENCODING 516
SWIDTH 500 0
DWIDTH 6 0
BBX 6 12 0 -2
BITMAP
A0
50
00
F8
80
80
F0
80
80
F8
00
00
ENDCHAR
STARTCHAR u0205
ENCODING 517
SWIDTH 500 0
DWIDTH 6 0
BBX 6 12 0 -2
BITMAP
00
A0
50
00
70
88
F8
80
88
70
00
00
ENDCHAR
STARTCHAR u0206
ENCODING 518
SWIDTH 500 0
DWIDTH 6 0
BBX 6 12 0 -2
BITMAP
70
88
00
F8
80
80
F0
80
80
F8
00
00
ENDCHAR
STARTCHAR u0207
ENCODING 519
SWIDTH 500 0
DWIDTH 6 0
BBX 6 12 0 -2
BITMAP
00
30
48
00
70
88
F8
80
88
70
00
00
ENDCHAR
STARTCHAR u0208
ENCODING 520
SWIDTH 500 0
DWIDTH 6 0
BBX 6 12 0 -2
BITMAP
A0
50
00
F8
20
20
20
20
20
F8
00
00
ENDCHAR
STARTCHAR u0209
ENCODING 521
SWIDTH 500 0
DWIDTH 6 0
BBX 6 12 0 -2
BITMAP
00
A0
50
00
E0
20
20
20
20
F8
00
00
ENDCHAR
STARTCHAR u020A
ENCODING 522
SWIDTH 500 0
DWIDTH 6 0
BBX 6 12 0 -2
BITMAP
70
88
00
F8
20
20
20
20
20
F8
00
00
ENDCHAR
STARTCHAR u020B
ENCODING 523
SWIDTH 500 0
DWIDTH 6 0
BBX 6 12 0 -2
BITMAP
00
30
48
00
E0
20
20
20
20
F8
00
00
ENDCHAR
STARTCHAR u020C
ENCODING 524
SWIDTH 500 0
DWIDTH 6 0
BBX 6 12 0 -2
BITMAP
A0
50
00
70
88
88
88
88
88
70
00
00
ENDCHAR
STARTCHAR u020D
ENCODING 525
SWIDTH 500 0
DWIDTH 6 0
BBX 6 12 0 -2
BITMAP
00
A0
50
00
70
88
88
88
88
70
00
00
ENDCHAR
STARTCHAR u020E
ENCODING 526
SWIDTH 500 0
DWIDTH 6 0
BBX 6 12 0 -2
BITMAP
70
88
00
70
88
88
88
88
88
70
00
00
ENDCHAR
STARTCHAR u020F
ENCODING 527
SWIDTH 500 0
DWIDTH 6 0
BBX 6 12 0 -2
BITMAP
00
30
48
00
70
88
88
88
88
70
00
00
ENDCHAR
STARTCHAR u0210
ENCODING 528
SWIDTH 500 0
DWIDTH 6 0
BBX 6 12 0 -2
BITMAP
A0
50
00
F0
88
88
F0
90
88
88
00
00
ENDCHAR
STARTCHAR u0211
ENCODING 529
SWIDTH 500 0
DWIDTH 6 0
BBX 6 12 0 -2
BITMAP
00
A0
50
00
B0
C8
80
80
80
80
00
00
ENDCHAR
STARTCHAR u0212
ENCODING 530
SWIDTH 500 0
DWIDTH 6 0
BBX 6 12 0 -2
BITMAP
70
88
00
F0
88
88
F0
90
88
88
00
00
ENDCHAR
STARTCHAR u0213
ENCODING 531
SWIDTH 500 0
DWIDTH 6 0
BBX 6 12 0 -2
BITMAP
00
30
48
00
B0
C8
80
80
80
80
00
00
ENDCHAR
STARTCHAR u0214
ENCODING 532
SWIDTH 500 0
DWIDTH 6 0
BBX 6 12 0 -2
BITMAP
A0
50
00
88
88
88
88
88
88
70
00
00
ENDCHAR
STARTCHAR u0215
ENCODING 533
SWIDTH 500 0
DWIDTH 6 0
BBX 6 12 0 -2
BITMAP
00
A0
50
00
88
88
88
88
98
68
00
00
ENDCHAR
STARTCHAR u0216
ENCODING 534
SWIDTH 500 0
DWIDTH 6 0
BBX 6 12 0 -2
BITMAP
70
88
00
88
88
88
88
88
88
70
00
00
ENDCHAR
STARTCHAR u0217
ENCODING 535
SWIDTH 500 0
DWIDTH 6 0
BBX 6 12 0 -2
BITMAP
00
30
48
00
88
88
88
88
98
68
00
00
ENDCHAR
STARTCHAR u0218
ENCODING 536
SWIDTH 500 0
DWIDTH 6 0
BBX 6 12 0 -2
BITMAP
00
00
70
88
80
60
10
08
88
70
20
40
ENDCHAR
STARTCHAR u0219
ENCODING 537
SWIDTH 500 0
DWIDTH 6 0
BBX 6 12 0 -2
BITMAP
00
00
00
00
70
88
60
10
88
70
20
40
ENDCHAR
STARTCHAR u021A
ENCODING 538
SWIDTH 500 0
DWIDTH 6 0
BBX 6 12 0 -2
BITMAP
00
00
F8
20
20
20
20
20
20
00
20
40
ENDCHAR
STARTCHAR u021B
ENCODING 539
SWIDTH 500 0
DWIDTH 6 0
BBX 6 12 0 -2
BITMAP
00
00
20
20
F8
20
20
20
20
18
20
40
ENDCHAR
STARTCHAR u021E
ENCODING 542
SWIDTH 500 0
DWIDTH 6 0
BBX 6 12 0 -2
BITMAP
50
20
00
88
88
88
F8
88
88
88
00
00
ENDCHAR
STARTCHAR u021F
ENCODING 543
SWIDTH 500 0
DWIDTH 6 0
BBX 6 12 0 -2
BITMAP
50
20
00
80
80
B0
C8
88
88
88
00
00
ENDCHAR
STARTCHAR u0220
ENCODING 544
SWIDTH 500 0
DWIDTH 6 0
BBX 6 12 0 -2
BITMAP
00
00
B0
C8
88
88
88
88
88
88
08
08
ENDCHAR
STARTCHAR u0226
ENCODING 550
SWIDTH 500 0
DWIDTH 6 0
BBX 6 12 0 -2
BITMAP
00
20
00
20
20
50
50
70
88
88
00
00
ENDCHAR
STARTCHAR u0227
ENCODING 551
SWIDTH 500 0
DWIDTH 6 0
BBX 6 12 0 -2
BITMAP
00
00
00
20
00
70
08
78
88
78
00
00
ENDCHAR
STARTCHAR u0228
ENCODING 552
SWIDTH 500 0
DWIDTH 6 0
BBX 6 12 0 -2
BITMAP
00
00
F8
80
80
F0
80
80
80
F8
20
40
ENDCHAR
STARTCHAR u0229
ENCODING 553
SWIDTH 500 0
DWIDTH 6 0
BBX 6 12 0 -2
BITMAP
00
00
00
00
70
88
F8
80
88
70
20
40
ENDCHAR
STARTCHAR u022A
ENCODING 554
SWIDTH 500 0
DWIDTH 6 0
BBX 6 12 0 -2
BITMAP
70
00
50
00
70
88
88
88
88
70
00
00
ENDCHAR
STARTCHAR u022B
ENCODING 555
SWIDTH 500 0
DWIDTH 6 0
BBX 6 12 0 -2
BITMAP
70
00
50
00
70
88
88
88
88
70
00
00
ENDCHAR
STARTCHAR u022C
ENCODING 556
SWIDTH 500 0
DWIDTH 6 0
BBX 6 12 0 -2
BITMAP
70
00
68
90
70
88
88
88
88
70
00
00
ENDCHAR
STARTCHAR u022D
ENCODING 557
SWIDTH 500 0
DWIDTH 6 0
BBX 6 12 0 -2
BITMAP
70
00
68
90
00
70
88
88
88
70
00
00
ENDCHAR
STARTCHAR u022E
ENCODING 558
SWIDTH 500 0
DWIDTH 6 0
BBX 6 12 0 -2
BITMAP
00
20
00
70
88
88
88
88
88
70
00
00
ENDCHAR
STARTCHAR u022F
ENCODING 559
SWIDTH 500 0
DWIDTH 6 0
BBX 6 12 0 -2
BITMAP
00
00
20
00
70
88
88
88
88
70
00
00
ENDCHAR
STARTCHAR u0230
ENCODING 560
SWIDTH 500 0
DWIDTH 6 0
BBX 6 12 0 -2
BITMAP
70
00
20
00
70
88
88
88
88
70
00
00
ENDCHAR
STARTCHAR u0231
ENCODING 561
SWIDTH 500 0
DWIDTH 6 0
BBX 6 12 0 -2
BITMAP
70
00
20
00
70
88
88
88
88
70
00
00
ENDCHAR
STARTCHAR u0232
ENCODING 562
SWIDTH 500 0
DWIDTH 6 0
BBX 6 12 0 -2
BITMAP
00
70
00
88
88
50
50
20
20
20
00
00
ENDCHAR
STARTCHAR u0233
ENCODING 563
SWIDTH 500 0
DWIDTH 6 0
BBX 6 12 0 -2
BITMAP
00
00
70
00
88
88
88
50
50
20
20
C0
ENDCHAR
STARTCHAR u0237
ENCODING 567
SWIDTH 500 0
DWIDTH 6 0
BBX 6 12 0 -2
BITMAP
00
00
00
00
F0
10
10
10
10
10
10
E0
ENDCHAR
STARTCHAR u023D
ENCODING 573
SWIDTH 500 0
DWIDTH 6 0
BBX 6 12 0 -2
BITMAP
00
00
40
40
40
F0
40
40
40
78
00
00
ENDCHAR
STARTCHAR u0244
ENCODING 580
SWIDTH 500 0
DWIDTH 6 0
BBX 6 12 0 -2
BITMAP
00
00
48
48
48
FC
48
48
48
30
00
00
ENDCHAR
STARTCHAR u0245
ENCODING 581
SWIDTH 500 0
DWIDTH 6 0
BBX 6 12 0 -2
BITMAP
00
00
20
20
50
50
50
88
88
88
00
00
ENDCHAR
STARTCHAR u0248
ENCODING 584
SWIDTH 500 0
DWIDTH 6 0
BBX 6 12 0 -2
BITMAP
00
00
10
10
10
78
10
90
90
60
00
00
ENDCHAR
STARTCHAR u0249
ENCODING 585
SWIDTH 500 0
DWIDTH 6 0
BBX 6 12 0 -2
BITMAP
00
00
10
00
F0
10
10
78
10
10
10
E0
ENDCHAR
STARTCHAR u0376
ENCODING 886
SWIDTH 500 0
DWIDTH 6 0
BBX 6 12 0 -2
BITMAP
00
00
88
98
98
A8
A8
C8
C8
88
00
00
ENDCHAR
STARTCHAR u0377
ENCODING 887
SWIDTH 500 0
DWIDTH 6 0
BBX 6 12 0 -2
BITMAP
00
00
00
00
88
98
A8
C8
88
88
00
00
ENDCHAR
STARTCHAR u037B
ENCODING 891
SWIDTH 500 0
DWIDTH 6 0
BBX 6 12 0 -2
BITMAP
00
00
00
00
70
88
08
08
88
70
00
00
ENDCHAR
STARTCHAR u037C
ENCODING 892
SWIDTH 500 0
DWIDTH 6 0
BBX 6 12 0 -2
BITMAP
00
00
00
00
70
88
A0
80
88
70
00
00
ENDCHAR
STARTCHAR u037D
ENCODING 893
SWIDTH 500 0
DWIDTH 6 0
BBX 6 12 0 -2
BITMAP
00
00
00
00
70
88
28
08
88
70
00
00
ENDCHAR
STARTCHAR u037E
ENCODING 894
SWIDTH 500 0
DWIDTH 6 0
BBX 6 12 0 -2
BITMAP
00
00
00
00
20
00
00
00
00
20
20
40
ENDCHAR
STARTCHAR u037F
ENCODING 895
SWIDTH 500 0
DWIDTH 6 0
BBX 6 12 0 -2
BITMAP
00
00
08
08
08
08
08
88
88
70
00
00
ENDCHAR
STARTCHAR u0384
ENCODING 900
SWIDTH 500 0
DWIDTH 6 0
BBX 6 12 0 -2
BITMAP
00
10
20
00
00
00
00
00
00
00
00
00
ENDCHAR
STARTCHAR u0385
ENCODING 901
SWIDTH 500 0
DWIDTH 6 0
BBX 6 12 0 -2
BITMAP
00
10
20
00
50
00
00
00
00
00
00
00
ENDCHAR
STARTCHAR u0386
ENCODING 902
SWIDTH 500 0
DWIDTH 6 0
BBX 6 12 0 -2
BITMAP
40
80
00
20
20
50
50
70
88
88
00
00
ENDCHAR
STARTCHAR u0387
ENCODING 903
SWIDTH 500 0
DWIDTH 6 0
BBX 6 12 0 -2
BITMAP
00
00
00
00
00
00
20
00
00
00
00
00
ENDCHAR
STARTCHAR u0388
ENCODING 904
SWIDTH 500 0
DWIDTH 6 0
BBX 6 12 0 -2
BITMAP
40
80
00
F8
80
80
F0
80
80
F8
00
00
ENDCHAR
STARTCHAR u0389
ENCODING 905
SWIDTH 500 0
DWIDTH 6 0
BBX 6 12 0 -2
BITMAP
40
80
00
88
88
88
F8
88
88
88
00
00
ENDCHAR
STARTCHAR u038A
ENCODING 906
SWIDTH 500 0
DWIDTH 6 0
BBX 6 12 0 -2
BITMAP
40
80
00
F8
20
20
20
20
20
F8
00
00
ENDCHAR
STARTCHAR u038C
ENCODING 908
SWIDTH 500 0
DWIDTH 6 0
BBX 6 12 0 -2
BITMAP
40
80
00
70
88
88
88
88
88
70
00
00
ENDCHAR
STARTCHAR u038E
ENCODING 910
SWIDTH 500 0
DWIDTH 6 0
BBX 6 12 0 -2
BITMAP
40
80
00
88
88
50
50
20
20
20
00
00
ENDCHAR
STARTCHAR u038F
ENCODING 911
SWIDTH 500 0
DWIDTH 6 0
BBX 6 12 0 -2
BITMAP
40
80
00
70
88
88
88
88
50
D8
00
00
ENDCHAR
STARTCHAR u0390
ENCODING 912
SWIDTH 500 0
DWIDTH 6 0
BBX 6 12 0 -2
BITMAP
10
20
00
50
00
60
A0
20
20
18
00
00
ENDCHAR
STARTCHAR u0391
ENCODING 913
SWIDTH 500 0
DWIDTH 6 0
BBX 6 12 0 -2
BITMAP
00
00
20
20
50
50
70
88
88
88
00
00
ENDCHAR
STARTCHAR u0392
ENCODING 914
SWIDTH 500 0
DWIDTH 6 0
BBX 6 12 0 -2
BITMAP
00
00
F0
88
88
F0
88
88
88
F0
00
00
ENDCHAR
STARTCHAR u0393
ENCODING 915
SWIDTH 500 0
DWIDTH 6 0
BBX 6 12 0 -2
BITMAP
00
00
F8
80
80
80
80
80
80
80
00
00
ENDCHAR
STARTCHAR u0394
ENCODING 916
SWIDTH 500 0
DWIDTH 6 0
BBX 6 12 0 -2
BITMAP
00
00
20
20
50
50
50
88
88
F8
00
00
ENDCHAR
STARTCHAR u0395
ENCODING 917
SWIDTH 500 0
DWIDTH 6 0
BBX 6 12 0 -2
BITMAP
00
00
F8
80
80
F0
80
80
80
F8
00
00
ENDCHAR
STARTCHAR u0396
ENCODING 918
SWIDTH 500 0
DWIDTH 6 0
BBX 6 12 0 -2
BITMAP
00
00
F8
08
10
20
20
40
80
F8
00
00
ENDCHAR
STARTCHAR u0397
ENCODING 919
SWIDTH 500 0
DWIDTH 6 0
BBX 6 12 0 -2
BITMAP
00
00
88
88
88
F8
88
88
88
88
00
00
ENDCHAR
STARTCHAR u0398
ENCODING 920
SWIDTH 500 0
DWIDTH 6 0
BBX 6 12 0 -2
BITMAP
00
00
70
88
88
E8
88
88
88
70
00
00
ENDCHAR
STARTCHAR u0399
ENCODING 921
SWIDTH 500 0
DWIDTH 6 0
BBX 6 12 0 -2
BITMAP
00
00
F8
20
20
20
20
20
20
F8
00
00
ENDCHAR
STARTCHAR u039A
ENCODING 922
SWIDTH 500 0
DWIDTH 6 0
BBX 6 12 0 -2
BITMAP
00
00
88
90
A0
C0
C0
A0
90
88
00
00
ENDCHAR
STARTCHAR u039B
ENCODING 923
SWIDTH 500 0
DWIDTH 6 0
BBX 6 12 0 -2
BITMAP
00
00
20
20
50
50
50
88
88
88
00
00
ENDCHAR
STARTCHAR u039C
ENCODING 924
SWIDTH 500 0
DWIDTH 6 0
BBX 6 12 0 -2
BITMAP
00
00
88
88
D8
D8
A8
A8
88
88
00
00
ENDCHAR
STARTCHAR u039D
ENCODING 925
SWIDTH 500 0
DWIDTH 6 0
BBX 6 12 0 -2
BITMAP
00
00
88
C8
C8
A8
A8
98
98
88
00
00
ENDCHAR
STARTCHAR u039E
ENCODING 926
SWIDTH 500 0
DWIDTH 6 0
BBX 6 12 0 -2
BITMAP
00
00
F8
00
00
70
00
00
00
F8
00
00
ENDCHAR
STARTCHAR u039F
ENCODING 927
SWIDTH 500 0
DWIDTH 6 0
BBX 6 12 0 -2
BITMAP
00
00
70
88
88
88
88
88
88
70
00
00
ENDCHAR
STARTCHAR u03A0
ENCODING 928
SWIDTH 500 0
DWIDTH 6 0
BBX 6 12 0 -2
BITMAP
00
00
F8
88
88
88
88
88
88
88
00
00
ENDCHAR
STARTCHAR u03A1
ENCODING 929
SWIDTH 500 0
DWIDTH 6 0
BBX 6 12 0 -2
BITMAP
00
00
F0
88
88
88
F0
80
80
80
00
00
ENDCHAR
STARTCHAR u03A3
ENCODING 931
SWIDTH 500 0
DWIDTH 6 0
BBX 6 12 0 -2
BITMAP
00
00
F8
40
20
10
20
40
80
F8
00
00
ENDCHAR
STARTCHAR u03A4
ENCODING 932
SWIDTH 500 0
DWIDTH 6 0
BBX 6 12 0 -2
BITMAP
00
00
F8
20
20
20
20
20
20
20
00
00
ENDCHAR
STARTCHAR u03A5
ENCODING 933
SWIDTH 500 0
DWIDTH 6 0
BBX 6 12 0 -2
BITMAP
00
00
88
88
50
50
20
20
20
20
00
00
ENDCHAR
STARTCHAR u03A6
ENCODING 934
SWIDTH 500 0
DWIDTH 6 0
BBX 6 12 0 -2
BITMAP
00
00
20
70
A8
A8
A8
A8
70
20
00
00
ENDCHAR
STARTCHAR u03A7
ENCODING 935
SWIDTH 500 0
DWIDTH 6 0
BBX 6 12 0 -2
BITMAP
00
00
88
88
50
20
20
50
88
88
00
00
ENDCHAR
STARTCHAR u03A8
ENCODING 936
SWIDTH 500 0
DWIDTH 6 0
BBX 6 12 0 -2
BITMAP
00
00
A8
A8
A8
A8
70
20
20
20
00
00
ENDCHAR
STARTCHAR u03A9
ENCODING 937
SWIDTH 500 0
DWIDTH 6 0
BBX 6 12 0 -2
BITMAP
00
00
70
88
88
88
88
88
50
D8
00
00
ENDCHAR
STARTCHAR u03AA
ENCODING 938
SWIDTH 500 0
DWIDTH 6 0
BBX 6 12 0 -2
BITMAP
00
50
00
F8
20
20
20
20
20
F8
00
00
ENDCHAR
STARTCHAR u03AB
ENCODING 939
SWIDTH 500 0
DWIDTH 6 0
BBX 6 12 0 -2
BITMAP
00
50
00
88
88
50
50
20
20
20
00
00
ENDCHAR
STARTCHAR u03AC
ENCODING 940
SWIDTH 500 0
DWIDTH 6 0
BBX 6 12 0 -2
BITMAP
00
10
20
00
68
98
88
88
98
68
00
00
ENDCHAR
STARTCHAR u03AD
ENCODING 941
SWIDTH 500 0
DWIDTH 6 0
BBX 6 12 0 -2
BITMAP
00
10
20
00
70
88
60
80
88
70
00
00
ENDCHAR
STARTCHAR u03AE
ENCODING 942
SWIDTH 500 0
DWIDTH 6 0
BBX 6 12 0 -2
BITMAP
00
10
20
00
B0
C8
88
88
88
88
08
08
ENDCHAR
STARTCHAR u03AF
ENCODING 943
SWIDTH 500 0
DWIDTH 6 0
BBX 6 12 0 -2
BITMAP
00
10
20
00
60
A0
20
20
20
18
00
00
ENDCHAR
STARTCHAR u03B0
ENCODING 944
SWIDTH 500 0
DWIDTH 6 0
BBX 6 12 0 -2
BITMAP
10
20
00
50
00
88
88
88
88
70
00
00
ENDCHAR
STARTCHAR u03B1
ENCODING 945
SWIDTH 500 0
DWIDTH 6 0
BBX 6 12 0 -2
BITMAP
00
00
00
00
68
98
88
88
98
68
00
00
ENDCHAR
STARTCHAR u03B2
ENCODING 946
SWIDTH 500 0
DWIDTH 6 0
BBX 6 12 0 -2
BITMAP
00
00
60
90
90
A0
90
88
C8
B0
80
80
ENDCHAR
STARTCHAR u03B3
ENCODING 947
SWIDTH 500 0
DWIDTH 6 0
BBX 6 12 0 -2
BITMAP
00
00
00
00
88
48
50
50
20
20
40
40
ENDCHAR
STARTCHAR u03B4
ENCODING 948
SWIDTH 500 0
DWIDTH 6 0
BBX 6 12 0 -2
BITMAP
00
00
78
80
60
90
88
88
88
70
00
00
ENDCHAR
STARTCHAR u03B5
ENCODING 949
SWIDTH 500 0
DWIDTH 6 0
BBX 6 12 0 -2
BITMAP
00
00
00
00
70
88
60
80
88
70
00
00
ENDCHAR
STARTCHAR u03B6
ENCODING 950
SWIDTH 500 0
DWIDTH 6 0
BBX 6 12 0 -2
BITMAP
00
00
F8
10
20
40
80
80
40
30
08
10
ENDCHAR
STARTCHAR u03B7
ENCODING 951
SWIDTH 500 0
DWIDTH 6 0
BBX 6 12 0 -2
BITMAP
00
00
00
00
B0
C8
88
88
88
88
08
08
ENDCHAR
STARTCHAR u03B8
ENCODING 952
SWIDTH 500 0
DWIDTH 6 0
BBX 6 12 0 -2
BITMAP
00
00
70
88
88
F8
88
88
88
70
00
00
ENDCHAR
STARTCHAR u03B9
ENCODING 953
SWIDTH 500 0
DWIDTH 6 0
BBX 6 12 0 -2
BITMAP
00
00
00
00
60
A0
20
20
20
18
00
00
ENDCHAR
STARTCHAR u03BA
ENCODING 954
SWIDTH 500 0
DWIDTH 6 0
BBX 6 12 0 -2
BITMAP
00
00
00
00
88
B0
C0
A0
90
88
00
00
ENDCHAR
STARTCHAR u03BB
ENCODING 955
SWIDTH 500 0
DWIDTH 6 0
BBX 6 12 0 -2
BITMAP
00
00
C0
20
20
20
50
50
88
88
00
00
ENDCHAR
STARTCHAR u03BC
ENCODING 956
SWIDTH 500 0
DWIDTH 6 0
BBX 6 12 0 -2
BITMAP
00
00
00
00
88
88
88
88
98
E8
80
80
ENDCHAR
STARTCHAR u03BD
ENCODING 957
SWIDTH 500 0
DWIDTH 6 0
BBX 6 12 0 -2
BITMAP
00
00
00
00
88
88
50
50
20
20
00
00
ENDCHAR
STARTCHAR u03BE
ENCODING 958
SWIDTH 500 0
DWIDTH 6 0
BBX 6 12 0 -2
BITMAP
00
00
78
80
40
30
40
80
80
70
08
10
ENDCHAR
STARTCHAR u03BF
ENCODING 959
SWIDTH 500 0
DWIDTH 6 0
BBX 6 12 0 -2
BITMAP
00
00
00
00
70
88
88
88
88
70
00
00
ENDCHAR
STARTCHAR u03C0
ENCODING 960
SWIDTH 500 0
DWIDTH 6 0
BBX 6 12 0 -2
BITMAP
00
00
00
00
F8
50
50
50
50
98
00
00
ENDCHAR
STARTCHAR u03C1
ENCODING 961
SWIDTH 500 0
DWIDTH 6 0
BBX 6 12 0 -2
BITMAP
00
00
00
00
70
88
88
88
88
F0
80
80
ENDCHAR
STARTCHAR u03C2
ENCODING 962
SWIDTH 500 0
DWIDTH 6 0
BBX 6 12 0 -2
BITMAP
00
00
00
00
70
88
80
80
40
30
08
30
ENDCHAR
STARTCHAR u03C3
ENCODING 963
SWIDTH 500 0
DWIDTH 6 0
BBX 6 12 0 -2
BITMAP
00
00
00
00
78
90
88
88
88
70
00
00
ENDCHAR
STARTCHAR u03C4
ENCODING 964
SWIDTH 500 0
DWIDTH 6 0
BBX 6 12 0 -2
BITMAP
00
00
00
00
F8
20
20
20
20
18
00
00
ENDCHAR
STARTCHAR u03C5
ENCODING 965
SWIDTH 500 0
DWIDTH 6 0
BBX 6 12 0 -2
BITMAP
00
00
00
00
88
88
88
88
88
70
00
00
ENDCHAR
STARTCHAR u03C6
ENCODING 966
SWIDTH 500 0
DWIDTH 6 0
BBX 6 12 0 -2
BITMAP
00
00
00
00
90
A8
A8
A8
A8
70
20
20
ENDCHAR
STARTCHAR u03C7
ENCODING 967
SWIDTH 500 0
DWIDTH 6 0
BBX 6 12 0 -2
BITMAP
00
00
00
00
88
48
50
20
20
50
90
88
ENDCHAR
STARTCHAR u03C8
ENCODING 968
SWIDTH 500 0
DWIDTH 6 0
BBX 6 12 0 -2
BITMAP
00
00
00
00
A8
A8
A8
A8
A8
70
20
20
ENDCHAR
STARTCHAR u03C9
ENCODING 969
SWIDTH 500 0
DWIDTH 6 0
BBX 6 12 0 -2
BITMAP
00
00
00
00
50
88
A8
A8
A8
50
00
00
ENDCHAR
STARTCHAR u03CA
ENCODING 970
SWIDTH 500 0
DWIDTH 6 0
BBX 6 12 0 -2
BITMAP
00
00
50
00
60
A0
20
20
20
18
00
00
ENDCHAR
STARTCHAR u03CB
ENCODING 971
SWIDTH 500 0
DWIDTH 6 0
BBX 6 12 0 -2
BITMAP
00
00
50
00
88
88
88
88
88
70
00
00
ENDCHAR
STARTCHAR u03CC
ENCODING 972
SWIDTH 500 0
DWIDTH 6 0
BBX 6 12 0 -2
BITMAP
00
10
20
00
70
88
88
88
88
70
00
00
ENDCHAR
STARTCHAR u03CD
ENCODING 973
SWIDTH 500 0
DWIDTH 6 0
BBX 6 12 0 -2
BITMAP
00
10
20
00
88
88
88
88
88
70
00
00
ENDCHAR
STARTCHAR u03CE
ENCODING 974
SWIDTH 500 0
DWIDTH 6 0
BBX 6 12 0 -2
BITMAP
00
10
20
00
50
88
A8
A8
A8
50
00
00
ENDCHAR
STARTCHAR u03D2
ENCODING 978
SWIDTH 500 0
DWIDTH 6 0
BBX 6 12 0 -2
BITMAP
00
00
88
50
50
50
20
20
20
20
00
00
ENDCHAR
STARTCHAR u03D3
ENCODING 979
SWIDTH 500 0
DWIDTH 6 0
BBX 6 12 0 -2
BITMAP
40
80
00
88
50
50
20
20
20
20
00
00
ENDCHAR
STARTCHAR u03D4
ENCODING 980
SWIDTH 500 0
DWIDTH 6 0
BBX 6 12 0 -2
BITMAP
00
50
00
88
50
50
20
20
20
20
00
00
ENDCHAR
STARTCHAR u03D5
ENCODING 981
SWIDTH 500 0
DWIDTH 6 0
BBX 6 12 0 -2
BITMAP
00
00
20
20
70
A8
A8
A8
A8
70
20
20
ENDCHAR
STARTCHAR u03D6
ENCODING 982
SWIDTH 500 0
DWIDTH 6 0
BBX 6 12 0 -2
BITMAP
00
00
00
00
F8
50
88
A8
A8
50
00
00
ENDCHAR
STARTCHAR u03DA
ENCODING 986
SWIDTH 500 0
DWIDTH 6 0
BBX 6 12 0 -2
BITMAP
00
00
70
88
88
80
80
80
40
30
08
30
ENDCHAR
STARTCHAR u03DB
ENCODING 987
SWIDTH 500 0
DWIDTH 6 0
BBX 6 12 0 -2
BITMAP
00
00
00
00
70
88
80
80
40
30
08
30
ENDCHAR
STARTCHAR u03F2
ENCODING 1010
SWIDTH 500 0
DWIDTH 6 0
BBX 6 12 0 -2
BITMAP
00
00
00
00
70
88
80
80
88
70
00
00
ENDCHAR
STARTCHAR u03F3
ENCODING 1011
SWIDTH 500 0
DWIDTH 6 0
BBX 6 12 0 -2
BITMAP
00
00
10
00
F0
10
10
10
10
10
10
E0
ENDCHAR
STARTCHAR u03F4
ENCODING 1012
SWIDTH 500 0
DWIDTH 6 0
BBX 6 12 0 -2
BITMAP
00
00
70
88
88
F8
88
88
88
70
00
00
ENDCHAR
STARTCHAR u03F5
ENCODING 1013
SWIDTH 500 0
DWIDTH 6 0
BBX 6 12 0 -2
BITMAP
00
00
00
00
78
80
F8
80
80
78
00
00
ENDCHAR
STARTCHAR u03F6
ENCODING 1014
SWIDTH 500 0
DWIDTH 6 0
BBX 6 12 0 -2
BITMAP
00
00
00
00
F0
08
F8
08
08
F0
00
00
ENDCHAR
STARTCHAR u03F7
ENCODING 1015
SWIDTH 500 0
DWIDTH 6 0
BBX 6 12 0 -2
BITMAP
00
00
80
80
F0
88
88
F0
80
80
00
00
ENDCHAR
STARTCHAR u03F8
ENCODING 1016
SWIDTH 500 0
DWIDTH 6 0
BBX 6 12 0 -2
BITMAP
00
00
80
80
F0
88
88
88
88
F0
80
80
ENDCHAR
STARTCHAR u03F9
ENCODING 1017
SWIDTH 500 0
DWIDTH 6 0
BBX 6 12 0 -2
BITMAP
00
00
70
88
80
80
80
80
88
70
00
00
ENDCHAR
STARTCHAR u03FA
ENCODING 1018
SWIDTH 500 0
DWIDTH 6 0
BBX 6 12 0 -2
BITMAP
00
00
88
88
D8
D8
A8
A8
88
88
00
00
ENDCHAR
STARTCHAR u03FB
ENCODING 1019
SWIDTH 500 0
DWIDTH 6 0
BBX 6 12 0 -2
BITMAP
00
00
00
00
88
D8
D8
A8
A8
A8
80
80
ENDCHAR
STARTCHAR u03FD
ENCODING 1021
SWIDTH 500 0
DWIDTH 6 0
BBX 6 12 0 -2
BITMAP
00
00
70
88
08
08
08
08
88
70
00
00
ENDCHAR
STARTCHAR u03FE
ENCODING 1022
SWIDTH 500 0
DWIDTH 6 0
BBX 6 12 0 -2
BITMAP
00
00
70
88
80
A0
80
80
88
70
00
00
ENDCHAR
STARTCHAR u03FF
ENCODING 1023
SWIDTH 500 0
DWIDTH 6 0
BBX 6 12 0 -2
BITMAP
00
00
70
88
08
28
08
08
88
70
00
00
ENDCHAR
STARTCHAR u0400
ENCODING 1024
SWIDTH 500 0
DWIDTH 6 0
BBX 6 12 0 -2
BITMAP
40
20
00
F8
80
80
F0
80
80
F8
00
00
ENDCHAR
STARTCHAR u0401
ENCODING 1025
SWIDTH 500 0
DWIDTH 6 0
BBX 6 12 0 -2
BITMAP
00
50
00
F8
80
80
F0
80
80
F8
00
00
ENDCHAR
STARTCHAR u0403
ENCODING 1027
SWIDTH 500 0
DWIDTH 6 0
BBX 6 12 0 -2
BITMAP
10
20
00
F8
80
80
80
80
80
80
00
00
ENDCHAR
STARTCHAR u0404
ENCODING 1028
SWIDTH 500 0
DWIDTH 6 0
BBX 6 12 0 -2
BITMAP
00
00
70
88
80
E0
80
80
88
70
00
00
ENDCHAR
STARTCHAR u0405
ENCODING 1029
SWIDTH 500 0
DWIDTH 6 0
BBX 6 12 0 -2
BITMAP
00
00
70
88
80
60
10
08
88
70
00
00
ENDCHAR
STARTCHAR u0406
ENCODING 1030
SWIDTH 500 0
DWIDTH 6 0
BBX 6 12 0 -2
BITMAP
00
00
F8
20
20
20
20
20
20
F8
00
00
ENDCHAR
STARTCHAR u0407
ENCODING 1031
SWIDTH 500 0
DWIDTH 6 0
BBX 6 12 0 -2
BITMAP
00
50
00
F8
20
20
20
20
20
F8
00
00
ENDCHAR
STARTCHAR u0408
ENCODING 1032
SWIDTH 500 0
DWIDTH 6 0
BBX 6 12 0 -2
BITMAP
00
00
08
08
08
08
08
88
88
70
00
00
ENDCHAR
STARTCHAR u040C
ENCODING 1036
SWIDTH 500 0
DWIDTH 6 0
BBX 6 12 0 -2
BITMAP
10
20
00
88
90
A0
C0
A0
90
88
00
00
ENDCHAR
STARTCHAR u040D
ENCODING 1037
SWIDTH 500 0
DWIDTH 6 0
BBX 6 12 0 -2
BITMAP
40
20
00
88
98
98
A8
C8
C8
88
00
00
ENDCHAR
STARTCHAR u040E
ENCODING 1038
SWIDTH 500 0
DWIDTH 6 0
BBX 6 12 0 -2
BITMAP
88
70
00
88
88
50
50
20
20
C0
00
00
ENDCHAR
STARTCHAR u040F
ENCODING 1039
SWIDTH 500 0
DWIDTH 6 0
BBX 6 12 0 -2
BITMAP
00
00
88
88
88
88
88
88
88
F8
20
20
ENDCHAR
STARTCHAR u0410
ENCODING 1040
SWIDTH 500 0
DWIDTH 6 0
BBX 6 12 0 -2
BITMAP
00
00
20
20
50
50
70
88
88
88
00
00
ENDCHAR
STARTCHAR u0411
ENCODING 1041
SWIDTH 500 0
DWIDTH 6 0
BBX 6 12 0 -2
BITMAP
00
00
F0
80
80
F0
88
88
88
F0
00
00
ENDCHAR
STARTCHAR u0412
ENCODING 1042
SWIDTH 500 0
DWIDTH 6 0
BBX 6 12 0 -2
BITMAP
00
00
F0
88
88
F0
88
88
88
F0
00
00
ENDCHAR
STARTCHAR u0413
ENCODING 1043
SWIDTH 500 0
DWIDTH 6 0
BBX 6 12 0 -2
BITMAP
00
00
F8
80
80
80
80
80
80
80
00
00
ENDCHAR
STARTCHAR u0414
ENCODING 1044
SWIDTH 500 0
DWIDTH 6 0
BBX 6 12 0 -2
BITMAP
00
00
78
48
48
48
48
88
88
F8
88
88
ENDCHAR
STARTCHAR u0415
ENCODING 1045
SWIDTH 500 0
DWIDTH 6 0
BBX 6 12 0 -2
BITMAP
00
00
F8
80
80
F0
80
80
80
F8
00
00
ENDCHAR
STARTCHAR u0416
ENCODING 1046
SWIDTH 500 0
DWIDTH 6 0
BBX 6 12 0 -2
BITMAP
00
00
A8
A8
A8
70
A8
A8
A8
A8
00
00
ENDCHAR
STARTCHAR u0417
ENCODING 1047
SWIDTH 500 0
DWIDTH 6 0
BBX 6 12 0 -2
BITMAP
00
00
70
88
08
30
08
08
88
70
00
00
ENDCHAR
STARTCHAR u0418
ENCODING 1048
SWIDTH 500 0
DWIDTH 6 0
BBX 6 12 0 -2
BITMAP
00
00
88
98
98
A8
A8
C8
C8
88
00
00
ENDCHAR
STARTCHAR u0419
ENCODING 1049
SWIDTH 500 0
DWIDTH 6 0
BBX 6 12 0 -2
BITMAP
88
70
00
88
98
98
A8
C8
C8
88
00
00
ENDCHAR
STARTCHAR u041A
ENCODING 1050
SWIDTH 500 0
DWIDTH 6 0
BBX 6 12 0 -2
BITMAP
00
00
88
90
A0
C0
C0
A0
90
88
00
00
ENDCHAR
STARTCHAR u041B
ENCODING 1051
SWIDTH 500 0
DWIDTH 6 0
BBX 6 12 0 -2
BITMAP
00
00
78
48
48
48
48
48
48
88
00
00
ENDCHAR
STARTCHAR u041C
ENCODING 1052
SWIDTH 500 0
DWIDTH 6 0
BBX 6 12 0 -2
BITMAP
00
00
88
88
D8
D8
A8
A8
88
88
00
00
ENDCHAR
STARTCHAR u041D
ENCODING 1053
SWIDTH 500 0
DWIDTH 6 0
BBX 6 12 0 -2
BITMAP
00
00
88
88
88
F8
88
88
88
88
00
00
ENDCHAR
STARTCHAR u041E
ENCODING 1054
SWIDTH 500 0
DWIDTH 6 0
BBX 6 12 0 -2
BITMAP
00
00
70
88
88
88
88
88
88
70
00
00
ENDCHAR
STARTCHAR u041F
ENCODING 1055
SWIDTH 500 0
DWIDTH 6 0
BBX 6 12 0 -2
BITMAP
00
00
F8
88
88
88
88
88
88
88
00
00
ENDCHAR
STARTCHAR u0420
ENCODING 1056
SWIDTH 500 0
DWIDTH 6 0
BBX 6 12 0 -2
BITMAP
00
00
F0
88
88
88
F0
80
80
80
00
00
ENDCHAR
STARTCHAR u0421
ENCODING 1057
SWIDTH 500 0
DWIDTH 6 0
BBX 6 12 0 -2
BITMAP
00
00
70
88
80
80
80
80
88
70
00
00
ENDCHAR
STARTCHAR u0422
ENCODING 1058
SWIDTH 500 0
DWIDTH 6 0
BBX 6 12 0 -2
BITMAP
00
00
F8
20
20
20
20
20
20
20
00
00
ENDCHAR
STARTCHAR u0423
ENCODING 1059
SWIDTH 500 0
DWIDTH 6 0
BBX 6 12 0 -2
BITMAP
00
00
88
88
88
50
50
20
20
C0
00
00
ENDCHAR
STARTCHAR u0424
ENCODING 1060
SWIDTH 500 0
DWIDTH 6 0
BBX 6 12 0 -2
BITMAP
00
00
20
70
A8
A8
A8
A8
70
20
00
00
ENDCHAR
STARTCHAR u0425
ENCODING 1061
SWIDTH 500 0
DWIDTH 6 0
BBX 6 12 0 -2
BITMAP
00
00
88
88
50
20
20
50
88
88
00
00
ENDCHAR
STARTCHAR u0426
ENCODING 1062
SWIDTH 500 0
DWIDTH 6 0
BBX 6 12 0 -2
BITMAP
00
00
88
88
88
88
88
88
88
F8
08
08
ENDCHAR
STARTCHAR u0427
ENCODING 1063
SWIDTH 500 0
DWIDTH 6 0
BBX 6 12 0 -2
BITMAP
00
00
88
88
88
98
68
08
08
08
00
00
ENDCHAR
STARTCHAR u0428
ENCODING 1064
SWIDTH 500 0
DWIDTH 6 0
BBX 6 12 0 -2
BITMAP
00
00
A8
A8
A8
A8
A8
A8
A8
F8
00
00
ENDCHAR
STARTCHAR u0429
ENCODING 1065
SWIDTH 500 0
DWIDTH 6 0
BBX 6 12 0 -2
BITMAP
00
00
A8
A8
A8
A8
A8
A8
A8
F8
08
08
ENDCHAR
STARTCHAR u042A
ENCODING 1066
SWIDTH 500 0
DWIDTH 6 0
BBX 6 12 0 -2
BITMAP
00
00
C0
40
40
70
48
48
48
70
00
00
ENDCHAR
STARTCHAR u042B
ENCODING 1067
SWIDTH 500 0
DWIDTH 6 0
BBX 6 12 0 -2
BITMAP
00
00
88
88
88
C8
A8
A8
A8
C8
00
00
ENDCHAR
STARTCHAR u042C
ENCODING 1068
SWIDTH 500 0
DWIDTH 6 0
BBX 6 12 0 -2
BITMAP
00
00
80
80
80
F0
88
88
88
F0
00
00
ENDCHAR
STARTCHAR u042D
ENCODING 1069
SWIDTH 500 0
DWIDTH 6 0
BBX 6 12 0 -2
BITMAP
00
00
70
88
08
38
08
08
88
70
00
00
ENDCHAR
STARTCHAR u042E
ENCODING 1070
SWIDTH 500 0
DWIDTH 6 0
BBX 6 12 0 -2
BITMAP
00
00
90
A8
A8
E8
A8
A8
A8
90
00
00
ENDCHAR
STARTCHAR u042F
ENCODING 1071
SWIDTH 500 0
DWIDTH 6 0
BBX 6 12 0 -2
BITMAP
00
00
78
88
88
88
78
48
88
88
00
00
ENDCHAR
STARTCHAR u0430
ENCODING 1072
SWIDTH 500 0
DWIDTH 6 0
BBX 6 12 0 -2
BITMAP
00
00
00
00
70
08
78
88
88
78
00
00
ENDCHAR
STARTCHAR u0431
ENCODING 1073
SWIDTH 500 0
DWIDTH 6 0
BBX 6 12 0 -2
BITMAP
00
00
08
70
80
F0
88
88
88
70
00
00
ENDCHAR
STARTCHAR u0432
ENCODING 1074
SWIDTH 500 0
DWIDTH 6 0
BBX 6 12 0 -2
BITMAP
00
00
00
00
F0
88
F0
88
88
F0
00
00
ENDCHAR
STARTCHAR u0433
ENCODING 1075
SWIDTH 500 0
DWIDTH 6 0
BBX 6 12 0 -2
BITMAP
00
00
00
00
F8
80
80
80
80
80
00
00
ENDCHAR
STARTCHAR u0434
ENCODING 1076
SWIDTH 500 0
DWIDTH 6 0
BBX 6 12 0 -2
BITMAP
00
00
00
00
78
48
48
48
88
F8
88
88
ENDCHAR
STARTCHAR u0435
ENCODING 1077
SWIDTH 500 0
DWIDTH 6 0
BBX 6 12 0 -2
BITMAP
00
00
00
00
70
88
F8
80
88
70
00
00
ENDCHAR
STARTCHAR u0436
ENCODING 1078
SWIDTH 500 0
DWIDTH 6 0
BBX 6 12 0 -2
BITMAP
00
00
00
00
A8
A8
70
A8
A8
A8
00
00
ENDCHAR
STARTCHAR u0437
ENCODING 1079
SWIDTH 500 0
DWIDTH 6 0
BBX 6 12 0 -2
BITMAP
00
00
00
00
70
88
30
08
88
70
00
00
ENDCHAR
STARTCHAR u0438
ENCODING 1080
SWIDTH 500 0
DWIDTH 6 0
BBX 6 12 0 -2
BITMAP
00
00
00
00
88
98
A8
C8
88
88
00
00
ENDCHAR
STARTCHAR u0439
ENCODING 1081
SWIDTH 500 0
DWIDTH 6 0
BBX 6 12 0 -2
BITMAP
00
48
30
00
88
98
A8
C8
88
88
00
00
ENDCHAR
STARTCHAR u043A
ENCODING 1082
SWIDTH 500 0
DWIDTH 6 0
BBX 6 12 0 -2
BITMAP
00
00
00
00
88
B0
C0
A0
90
88
00
00
ENDCHAR
STARTCHAR u043B
ENCODING 1083
SWIDTH 500 0
DWIDTH 6 0
BBX 6 12 0 -2
BITMAP
00
00
00
00
78
48
48
48
48
88
00
00
ENDCHAR
STARTCHAR u043C
ENCODING 1084
SWIDTH 500 0
DWIDTH 6 0
BBX 6 12 0 -2
BITMAP
00
00
00
00
88
D8
D8
A8
A8
A8
00
00
ENDCHAR
STARTCHAR u043D
ENCODING 1085
SWIDTH 500 0
DWIDTH 6 0
BBX 6 12 0 -2
BITMAP
00
00
00
00
88
88
F8
88
88
88
00
00
ENDCHAR
STARTCHAR u043E
ENCODING 1086
SWIDTH 500 0
DWIDTH 6 0
BBX 6 12 0 -2
BITMAP
00
00
00
00
70
88
88
88
88
70
00
00
ENDCHAR
STARTCHAR u043F
ENCODING 1087
SWIDTH 500 0
DWIDTH 6 0
BBX 6 12 0 -2
BITMAP
00
00
00
00
F8
88
88
88
88
88
00
00
ENDCHAR
STARTCHAR u0440
ENCODING 1088
SWIDTH 500 0
DWIDTH 6 0
BBX 6 12 0 -2
BITMAP
00
00
00
00
F0
88
88
88
88
F0
80
80
ENDCHAR
STARTCHAR u0441
ENCODING 1089
SWIDTH 500 0
DWIDTH 6 0
BBX 6 12 0 -2
BITMAP
00
00
00
00
70
88
80
80
88
70
00
00
ENDCHAR
STARTCHAR u0442
ENCODING 1090
SWIDTH 500 0
DWIDTH 6 0
BBX 6 12 0 -2
BITMAP
00
00
00
00
F8
20
20
20
20
20
00
00
ENDCHAR
STARTCHAR u0443
ENCODING 1091
SWIDTH 500 0
DWIDTH 6 0
BBX 6 12 0 -2
BITMAP
00
00
00
00
88
88
88
50
50
20
20
C0
ENDCHAR
STARTCHAR u0444
ENCODING 1092
SWIDTH 500 0
DWIDTH 6 0
BBX 6 12 0 -2
BITMAP
00
00
20
20
70
A8
A8
A8
A8
70
20
20
ENDCHAR
STARTCHAR u0445
ENCODING 1093
SWIDTH 500 0
DWIDTH 6 0
BBX 6 12 0 -2
BITMAP
00
00
00
00
88
50
20
20
50
88
00
00
ENDCHAR
STARTCHAR u0446
ENCODING 1094
SWIDTH 500 0
DWIDTH 6 0
BBX 6 12 0 -2
BITMAP
00
00
00
00
88
88
88
88
88
F8
08
08
ENDCHAR
STARTCHAR u0447
ENCODING 1095
SWIDTH 500 0
DWIDTH 6 0
BBX 6 12 0 -2
BITMAP
00
00
00
00
88
88
98
68
08
08
00
00
ENDCHAR
STARTCHAR u0448
ENCODING 1096
SWIDTH 500 0
DWIDTH 6 0
BBX 6 12 0 -2
BITMAP
00
00
00
00
A8
A8
A8
A8
A8
F8
00
00
ENDCHAR
STARTCHAR u0449
ENCODING 1097
SWIDTH 500 0
DWIDTH 6 0
BBX 6 12 0 -2
BITMAP
00
00
00
00
A8
A8
A8
A8
A8
F8
08
08
ENDCHAR
STARTCHAR u044A
ENCODING 1098
SWIDTH 500 0
DWIDTH 6 0
BBX 6 12 0 -2
BITMAP
00
00
00
00
C0
40
70
48
48
70
00
00
ENDCHAR
STARTCHAR u044B
ENCODING 1099
SWIDTH 500 0
DWIDTH 6 0
BBX 6 12 0 -2
BITMAP
00
00
00
00
88
88
C8
A8
A8
C8
00
00
ENDCHAR
STARTCHAR u044C
ENCODING 1100
SWIDTH 500 0
DWIDTH 6 0
BBX 6 12 0 -2
BITMAP
00
00
00
00
80
80
F0
88
88
F0
00
00
ENDCHAR
STARTCHAR u044D
ENCODING 1101
SWIDTH 500 0
DWIDTH 6 0
BBX 6 12 0 -2
BITMAP
00
00
00
00
70
88
38
08
88
70
00
00
ENDCHAR
STARTCHAR u044E
ENCODING 1102
SWIDTH 500 0
DWIDTH 6 0
BBX 6 12 0 -2
BITMAP
00
00
00
00
90
A8
E8
A8
A8
90
00
00
ENDCHAR
STARTCHAR u044F
ENCODING 1103
SWIDTH 500 0
DWIDTH 6 0
BBX 6 12 0 -2
BITMAP
00
00
00
00
78
88
88
78
48
88
00
00
ENDCHAR
STARTCHAR u0450
ENCODING 1104
SWIDTH 500 0
DWIDTH 6 0
BBX 6 12 0 -2
BITMAP
00
40
20
00
70
88
F8
80
88
70
00
00
ENDCHAR
STARTCHAR u0451
ENCODING 1105
SWIDTH 500 0
DWIDTH 6 0
BBX 6 12 0 -2
BITMAP
00
00
50
00
70
88
F8
80
88
70
00
00
ENDCHAR
STARTCHAR u0453
ENCODING 1107
SWIDTH 500 0
DWIDTH 6 0
BBX 6 12 0 -2
BITMAP
00
10
20
00
F8
80
80
80
80
80
00
00
ENDCHAR
STARTCHAR u0454
ENCODING 1108
SWIDTH 500 0
DWIDTH 6 0
BBX 6 12 0 -2
BITMAP
00
00
00
00
70
88
E0
80
88
70
00
00
ENDCHAR
STARTCHAR u0455
ENCODING 1109
SWIDTH 500 0
DWIDTH 6 0
BBX 6 12 0 -2
BITMAP
00
00
00
00
70
88
60
10
88
70
00
00
ENDCHAR
STARTCHAR u0456
ENCODING 1110
SWIDTH 500 0
DWIDTH 6 0
BBX 6 12 0 -2
BITMAP
00
00
20
00
E0
20
20
20
20
F8
00
00
ENDCHAR
STARTCHAR u0457
ENCODING 1111
SWIDTH 500 0
DWIDTH 6 0
BBX 6 12 0 -2
BITMAP
00
00
50
00
E0
20
20
20
20
F8
00
00
ENDCHAR
STARTCHAR u0458
ENCODING 1112
SWIDTH 500 0
DWIDTH 6 0
BBX 6 12 0 -2
BITMAP
00
00
10
00
F0
10
10
10
10
10
10
E0
ENDCHAR
STARTCHAR u045B
ENCODING 1115
SWIDTH 500 0
DWIDTH 6 0
BBX 6 12 0 -2
BITMAP
00
00
40
F0
40
50
68
48
48
48
00
00
ENDCHAR
STARTCHAR u045C
ENCODING 1116
SWIDTH 500 0
DWIDTH 6 0
BBX 6 12 0 -2
BITMAP
00
10
20
00
88
B0
C0
A0
90
88
00
00
ENDCHAR
STARTCHAR u045D
ENCODING 1117
SWIDTH 500 0
DWIDTH 6 0
BBX 6 12 0 -2
BITMAP
00
40
20
00
88
98
A8
C8
88
88
00
00
ENDCHAR
STARTCHAR u045E
ENCODING 1118
SWIDTH 500 0
DWIDTH 6 0
BBX 6 12 0 -2
BITMAP
00
48
30
00
88
88
88
50
50
20
20
C0
ENDCHAR
STARTCHAR u045F
ENCODING 1119
SWIDTH 500 0
DWIDTH 6 0
BBX 6 12 0 -2
BITMAP
00
00
00
00
88
88
88
88
88
F8
20
20
ENDCHAR
STARTCHAR u0464
ENCODING 1124
SWIDTH 500 0
DWIDTH 6 0
BBX 6 12 0 -2
BITMAP
00
00
90
A8
A0
F0
A0
A0
A8
90
00
00
ENDCHAR
STARTCHAR u0465
ENCODING 1125
SWIDTH 500 0
DWIDTH 6 0
BBX 6 12 0 -2
BITMAP
00
00
00
00
98
A0
F0
A0
A8
90
00
00
ENDCHAR
STARTCHAR u0470
ENCODING 1136
SWIDTH 500 0
DWIDTH 6 0
BBX 6 12 0 -2
BITMAP
00
00
A8
A8
A8
A8
70
20
20
20
00
00
ENDCHAR
STARTCHAR u0471
ENCODING 1137
SWIDTH 500 0
DWIDTH 6 0
BBX 6 12 0 -2
BITMAP
00
00
00
00
A8
A8
A8
A8
A8
70
20
20
ENDCHAR
STARTCHAR u0472
ENCODING 1138
SWIDTH 500 0
DWIDTH 6 0
BBX 6 12 0 -2
BITMAP
00
00
70
88
88
F8
88
88
88
70
00
00
ENDCHAR
STARTCHAR u0473
ENCODING 1139
SWIDTH 500 0
DWIDTH 6 0
BBX 6 12 0 -2
BITMAP
00
00
00
00
70
88
F8
88
88
70
00
00
ENDCHAR
STARTCHAR u0490
ENCODING 1168
SWIDTH 500 0
DWIDTH 6 0
BBX 6 12 0 -2
BITMAP
00
08
08
F8
80
80
80
80
80
80
00
00
ENDCHAR
STARTCHAR u0491
ENCODING 1169
SWIDTH 500 0
DWIDTH 6 0
BBX 6 12 0 -2
BITMAP
00
00
08
08
F8
80
80
80
80
80
00
00
ENDCHAR
STARTCHAR u049E
ENCODING 1182
SWIDTH 500 0
DWIDTH 6 0
BBX 6 12 0 -2
BITMAP
00
00
48
E8
50
60
40
60
50
48
00
00
ENDCHAR
STARTCHAR u049F
ENCODING 1183
SWIDTH 500 0
DWIDTH 6 0
BBX 6 12 0 -2
BITMAP
00
00
40
E0
48
50
60
60
50
48
00
00
ENDCHAR
STARTCHAR u04AE
ENCODING 1198
SWIDTH 500 0
DWIDTH 6 0
BBX 6 12 0 -2
BITMAP
00
00
88
88
50
50
20
20
20
20
00
00
ENDCHAR
STARTCHAR u04AF
ENCODING 1199
SWIDTH 500 0
DWIDTH 6 0
BBX 6 12 0 -2
BITMAP
00
00
00
00
88
88
50
50
20
20
20
20
ENDCHAR
STARTCHAR u04B0
ENCODING 1200
SWIDTH 500 0
DWIDTH 6 0
BBX 6 12 0 -2
BITMAP
00
00
88
88
50
50
F8
20
20
20
00
00
ENDCHAR
STARTCHAR u04B1
ENCODING 1201
SWIDTH 500 0
DWIDTH 6 0
BBX 6 12 0 -2
BITMAP
00
00
00
00
88
88
50
50
F8
20
20
20
ENDCHAR
STARTCHAR u04BA
ENCODING 1210
SWIDTH 500 0
DWIDTH 6 0
BBX 6 12 0 -2
BITMAP
00
00
80
80
80
B0
C8
88
88
88
00
00
ENDCHAR
STARTCHAR u04BB
ENCODING 1211
SWIDTH 500 0
DWIDTH 6 0
BBX 6 12 0 -2
BITMAP
00
00
80
80
B0
C8
88
88
88
88
00
00
ENDCHAR
STARTCHAR u04C0
ENCODING 1216
SWIDTH 500 0
DWIDTH 6 0
BBX 6 12 0 -2
BITMAP
00
00
F8
20
20
20
20
20
20
F8
00
00
ENDCHAR
STARTCHAR u04C1
ENCODING 1217
SWIDTH 500 0
DWIDTH 6 0
BBX 6 12 0 -2
BITMAP
88
70
00
A8
A8
A8
70
A8
A8
A8
00
00
ENDCHAR
STARTCHAR u04C2
ENCODING 1218
SWIDTH 500 0
DWIDTH 6 0
BBX 6 12 0 -2
BITMAP
00
88
70
00
A8
A8
70
A8
A8
A8
00
00
ENDCHAR
STARTCHAR u04C7
ENCODING 1223
SWIDTH 500 0
DWIDTH 6 0
BBX 6 12 0 -2
BITMAP
00
00
88
88
88
F8
88
88
88
88
08
30
ENDCHAR
STARTCHAR u04C8
ENCODING 1224
SWIDTH 500 0
DWIDTH 6 0
BBX 6 12 0 -2
BITMAP
00
00
00
00
88
88
F8
88
88
88
08
30
ENDCHAR
STARTCHAR u04CF
ENCODING 1231
SWIDTH 500 0
DWIDTH 6 0
BBX 6 12 0 -2
BITMAP
00
00
F8
20
20
20
20
20
20
F8
00
00
ENDCHAR
STARTCHAR u04D0
ENCODING 1232
SWIDTH 500 0
DWIDTH 6 0
BBX 6 12 0 -2
BITMAP
88
70
00
20
20
50
50
70
88
88
00
00
ENDCHAR
STARTCHAR u04D1
ENCODING 1233
SWIDTH 500 0
DWIDTH 6 0
BBX 6 12 0 -2
BITMAP
00
48
30
00
70
08
78
88
88
78
00
00
ENDCHAR
STARTCHAR u04D2
ENCODING 1234
SWIDTH 500 0
DWIDTH 6 0
BBX 6 12 0 -2
BITMAP
00
50
00
20
20
50
50
70
88
88
00
00
ENDCHAR
STARTCHAR u04D3
ENCODING 1235
SWIDTH 500 0
DWIDTH 6 0
BBX 6 12 0 -2
BITMAP
00
00
50
00
70
08
78
88
88
78
00
00
ENDCHAR
STARTCHAR u04D4
ENCODING 1236
SWIDTH 500 0
DWIDTH 6 0
BBX 6 12 0 -2
BITMAP
00
00
38
50
50
58
70
90
90
98
00
00
ENDCHAR
STARTCHAR u04D5
ENCODING 1237
SWIDTH 500 0
DWIDTH 6 0
BBX 6 12 0 -2
BITMAP
00
00
00
00
D0
28
78
A0
A0
58
00
00
ENDCHAR
STARTCHAR u04D6
ENCODING 1238
SWIDTH 500 0
DWIDTH 6 0
BBX 6 12 0 -2
BITMAP
88
70
00
F8
80
80
F0
80
80
F8
00
00
ENDCHAR
STARTCHAR u04D7
ENCODING 1239
SWIDTH 500 0
DWIDTH 6 0
BBX 6 12 0 -2
BITMAP
00
48
30
00
70
88
F8
80
88
70
00
00
ENDCHAR
STARTCHAR u04D8
ENCODING 1240
SWIDTH 500 0
DWIDTH 6 0
BBX 6 12 0 -2
BITMAP
00
00
70
88
08
08
F8
88
88
70
00
00
ENDCHAR
STARTCHAR u04D9
ENCODING 1241
SWIDTH 500 0
DWIDTH 6 0
BBX 6 12 0 -2
BITMAP
00
00
00
00
70
88
08
F8
88
70
00
00
ENDCHAR
STARTCHAR u04DA
ENCODING 1242
SWIDTH 500 0
DWIDTH 6 0
BBX 6 12 0 -2
BITMAP
00
50
00
70
88
08
F8
88
88
70
00
00
ENDCHAR
STARTCHAR u04DB
ENCODING 1243
SWIDTH 500 0
DWIDTH 6 0
BBX 6 12 0 -2
BITMAP
00
00
50
00
70
88
08
F8
88
70
00
00
ENDCHAR
STARTCHAR u04DC
ENCODING 1244
SWIDTH 500 0
DWIDTH 6 0
BBX 6 12 0 -2
BITMAP
00
50
00
A8
A8
A8
70
A8
A8
A8
00
00
ENDCHAR
STARTCHAR u04DD
ENCODING 1245
SWIDTH 500 0
DWIDTH 6 0
BBX 6 12 0 -2
BITMAP
00
00
50
00
A8
A8
70
A8
A8
A8
00
00
ENDCHAR
STARTCHAR u04DE
ENCODING 1246
SWIDTH 500 0
DWIDTH 6 0
BBX 6 12 0 -2
BITMAP
00
50
00
70
88
08
30
08
88
70
00
00
ENDCHAR
STARTCHAR u04DF
ENCODING 1247
SWIDTH 500 0
DWIDTH 6 0
BBX 6 12 0 -2
BITMAP
00
00
50
00
70
88
30
08
88
70
00
00
ENDCHAR
STARTCHAR u04E2
ENCODING 1250
SWIDTH 500 0
DWIDTH 6 0
BBX 6 12 0 -2
BITMAP
00
70
00
88
98
98
A8
C8
C8
88
00
00
ENDCHAR
STARTCHAR u04E3
ENCODING 1251
SWIDTH 500 0
DWIDTH 6 0
BBX 6 12 0 -2
BITMAP
00
00
70
00
88
98
A8
C8
88
88
00
00
ENDCHAR
STARTCHAR u04E4
ENCODING 1252
SWIDTH 500 0
DWIDTH 6 0
BBX 6 12 0 -2
BITMAP
00
50
00
88
98
98
A8
C8
C8
88
00
00
ENDCHAR
STARTCHAR u04E5
ENCODING 1253
SWIDTH 500 0
DWIDTH 6 0
BBX 6 12 0 -2
BITMAP
00
00
50
00
88
98
A8
C8
88
88
00
00
ENDCHAR
STARTCHAR u04E6
ENCODING 1254
SWIDTH 500 0
DWIDTH 6 0
BBX 6 12 0 -2
BITMAP
00
50
00
70
88
88
88
88
88
70
00
00
ENDCHAR
STARTCHAR u04E7
ENCODING 1255
SWIDTH 500 0
DWIDTH 6 0
BBX 6 12 0 -2
BITMAP
00
00
50
00
70
88
88
88
88
70
00
00
ENDCHAR
STARTCHAR u04E8
ENCODING 1256
SWIDTH 500 0
DWIDTH 6 0
BBX 6 12 0 -2
BITMAP
00
00
70
88
88
F8
88
88
88
70
00
00
ENDCHAR
STARTCHAR u04E9
ENCODING 1257
SWIDTH 500 0
DWIDTH 6 0
BBX 6 12 0 -2
BITMAP
00
00
00
00
70
88
F8
88
88
70
00
00
ENDCHAR
STARTCHAR u04EA
ENCODING 1258
SWIDTH 500 0
DWIDTH 6 0
BBX 6 12 0 -2
BITMAP
00
50
00
70
88
88
F8
88
88
70
00
00
ENDCHAR
STARTCHAR u04EB
ENCODING 1259
SWIDTH 500 0
DWIDTH 6 0
BBX 6 12 0 -2
BITMAP
00
00
50
00
70
88
F8
88
88
70
00
00
ENDCHAR
STARTCHAR u04EC
ENCODING 1260
SWIDTH 500 0
DWIDTH 6 0
BBX 6 12 0 -2
BITMAP
00
50
00
70
88
08
38
08
88
70
00
00
ENDCHAR
STARTCHAR u04ED
ENCODING 1261
SWIDTH 500 0
DWIDTH 6 0
BBX 6 12 0 -2
BITMAP
00
00
50
00
70
88
38
08
88
70
00
00
ENDCHAR
STARTCHAR u04EE
ENCODING 1262
SWIDTH 500 0
DWIDTH 6 0
BBX 6 12 0 -2
BITMAP
00
70
00
88
88
50
50
20
20
C0
00
00
ENDCHAR
STARTCHAR u04EF
ENCODING 1263
SWIDTH 500 0
DWIDTH 6 0
BBX 6 12 0 -2
BITMAP
00
00
70
00
88
88
88
50
50
20
20
C0
ENDCHAR
STARTCHAR u04F0
ENCODING 1264
SWIDTH 500 0
DWIDTH 6 0
BBX 6 12 0 -2
BITMAP
00
50
00
88
88
50
50
20
20
C0
00
00
ENDCHAR
STARTCHAR u04F1
ENCODING 1265
SWIDTH 500 0
DWIDTH 6 0
BBX 6 12 0 -2
BITMAP
00
00
50
00
88
88
88
50
50
20
20
C0
ENDCHAR
STARTCHAR u04F2
ENCODING 1266
SWIDTH 500 0
DWIDTH 6 0
BBX 6 12 0 -2
BITMAP
28
50
00
88
88
50
50
20
20
C0
00
00
ENDCHAR
STARTCHAR u04F3
ENCODING 1267
SWIDTH 500 0
DWIDTH 6 0
BBX 6 12 0 -2
BITMAP
00
28
50
00
88
88
88
50
50
20
20
C0
ENDCHAR
STARTCHAR u04F4
ENCODING 1268
SWIDTH 500 0
DWIDTH 6 0
BBX 6 12 0 -2
BITMAP
00
50
00
88
88
98
68
08
08
08
00
00
ENDCHAR
STARTCHAR u04F5
ENCODING 1269
SWIDTH 500 0
DWIDTH 6 0
BBX 6 12 0 -2
BITMAP
00
00
50
00
88
88
98
68
08
08
00
00
ENDCHAR
STARTCHAR u04F6
ENCODING 1270
SWIDTH 500 0
DWIDTH 6 0
BBX 6 12 0 -2
BITMAP
00
00
F8
80
80
80
80
80
80
C0
40
40
ENDCHAR
STARTCHAR u04F7
ENCODING 1271
SWIDTH 500 0
DWIDTH 6 0
BBX 6 12 0 -2
BITMAP
00
00
00
00
F8
80
80
80
80
C0
40
40
ENDCHAR
STARTCHAR u04F8
ENCODING 1272
SWIDTH 500 0
DWIDTH 6 0
BBX 6 12 0 -2
BITMAP
00
50
00
88
88
C8
A8
A8
A8
C8
00
00
ENDCHAR
STARTCHAR u04F9
ENCODING 1273
SWIDTH 500 0
DWIDTH 6 0
BBX 6 12 0 -2
BITMAP
00
00
50
00
88
88
C8
A8
A8
C8
00
00
ENDCHAR
STARTCHAR u2010
ENCODING 8208
SWIDTH 1000 0
DWIDTH 12 0
BBX 12 12 0 -2
BITMAP
0000
0000
0000
0000
0000
0000
1F00
0000
0000
0000
0000
0000
ENDCHAR
STARTCHAR u2011
ENCODING 8209
SWIDTH 500 0
DWIDTH 6 0
BBX 6 12 0 -2
BITMAP
00
00
00
00
00
00
F8
00
00
00
00
00
ENDCHAR
STARTCHAR u2012
ENCODING 8210
SWIDTH 500 0
DWIDTH 6 0
BBX 6 12 0 -2
BITMAP
00
00
00
00
00
00
F8
00
00
00
00
00
ENDCHAR
STARTCHAR u2013
ENCODING 8211
SWIDTH 500 0
DWIDTH 6 0
BBX 6 12 0 -2
BITMAP
00
00
00
00
00
00
FC
00
00
00
00
00
ENDCHAR
STARTCHAR u2014
ENCODING 8212
SWIDTH 1000 0
DWIDTH 12 0
BBX 12 12 0 -2
BITMAP
0000
0000
0000
0000
0000
0000
FFE0
0000
0000
0000
0000
0000
ENDCHAR
STARTCHAR u2015
ENCODING 8213
SWIDTH 1000 0
DWIDTH 12 0
BBX 12 12 0 -2
BITMAP
0000
0000
0000
0000
0000
0000
FFF0
0000
0000
0000
0000
0000
ENDCHAR
STARTCHAR u2016
ENCODING 8214
SWIDTH 1000 0
DWIDTH 12 0
BBX 12 12 0 -2
BITMAP
0000
0A00
0A00
0A00
0A00
0A00
0A00
0A00
0A00
0A00
0A00
0A00
ENDCHAR
STARTCHAR u2017
ENCODING 8215
SWIDTH 1000 0
DWIDTH 12 0
BBX 12 12 0 -2
BITMAP
0000
0000
0000
0000
0000
0000
0000
0000
0000
FFE0
0000
FFE0
ENDCHAR
STARTCHAR u2018-ZH_CN
ENCODING 8216
SWIDTH 1000 0
DWIDTH 12 0
BBX 12 12 0 -2
BITMAP
0000
0040
0080
00C0
00C0
0000
0000
0000
0000
0000
0000
0000
ENDCHAR
STARTCHAR u2019-ZH_CN
ENCODING 8217
SWIDTH 1000 0
DWIDTH 12 0
BBX 12 12 0 -2
BITMAP
0000
6000
6000
2000
4000
0000
0000
0000
0000
0000
0000
0000
ENDCHAR
STARTCHAR u201A
ENCODING 8218
SWIDTH 500 0
DWIDTH 6 0
BBX 6 12 0 -2
BITMAP
00
00
00
00
00
00
00
00
00
20
20
40
ENDCHAR
STARTCHAR u201B
ENCODING 8219
SWIDTH 500 0
DWIDTH 6 0
BBX 6 12 0 -2
BITMAP
00
00
20
20
10
00
00
00
00
00
00
00
ENDCHAR
STARTCHAR u201C-ZH_CN
ENCODING 8220
SWIDTH 1000 0
DWIDTH 12 0
BBX 12 12 0 -2
BITMAP
0000
0240
0480
06C0
06C0
0000
0000
0000
0000
0000
0000
0000
ENDCHAR
STARTCHAR u201D-ZH_CN
ENCODING 8221
SWIDTH 1000 0
DWIDTH 12 0
BBX 12 12 0 -2
BITMAP
0000
6C00
6C00
2400
4800
0000
0000
0000
0000
0000
0000
0000
ENDCHAR
STARTCHAR u201E
ENCODING 8222
SWIDTH 500 0
DWIDTH 6 0
BBX 6 12 0 -2
BITMAP
00
00
00
00
00
00
00
00
00
50
50
A0
ENDCHAR
STARTCHAR u201F
ENCODING 8223
SWIDTH 500 0
DWIDTH 6 0
BBX 6 12 0 -2
BITMAP
00
00
50
50
28
00
00
00
00
00
00
00
ENDCHAR
STARTCHAR u2020
ENCODING 8224
SWIDTH 1000 0
DWIDTH 12 0
BBX 12 12 0 -2
BITMAP
0000
0400
0400
0400
3F80
0400
0400
0400
0400
0400
0400
0400
ENDCHAR
STARTCHAR u2021
ENCODING 8225
SWIDTH 1000 0
DWIDTH 12 0
BBX 12 12 0 -2
BITMAP
0000
0400
0400
3F80
0400
0400
0400
0400
0400
3F80
0400
0400
ENDCHAR
STARTCHAR u2022
ENCODING 8226
SWIDTH 1000 0
DWIDTH 12 0
BBX 12 12 0 -2
BITMAP
0000
0000
0000
0000
0600
0F00
0F00
0600
0000
0000
0000
0000
ENDCHAR
STARTCHAR u2023
ENCODING 8227
SWIDTH 1000 0
DWIDTH 12 0
BBX 12 12 0 -2
BITMAP
0000
0000
0000
0000
0C00
0E00
0F00
0E00
0C00
0000
0000
0000
ENDCHAR
STARTCHAR u2024-ZH_CN
ENCODING 8228
SWIDTH 1000 0
DWIDTH 12 0
BBX 12 12 0 -2
BITMAP
0000
0000
0000
0000
0000
0000
0600
0600
0000
0000
0000
0000
ENDCHAR
STARTCHAR u2025-ZH_CN
ENCODING 8229
SWIDTH 1000 0
DWIDTH 12 0
BBX 12 12 0 -2
BITMAP
0000
0000
0000
0000
0000
0000
3180
3180
0000
0000
0000
0000
ENDCHAR
STARTCHAR u2026-ZH_CN
ENCODING 8230
SWIDTH 1000 0
DWIDTH 12 0
BBX 12 12 0 -2
BITMAP
0000
0000
0000
0000
0000
0000
6660
6660
0000
0000
0000
0000
ENDCHAR
STARTCHAR u2027-ZH_CN
ENCODING 8231
SWIDTH 1000 0
DWIDTH 12 0
BBX 12 12 0 -2
BITMAP
0000
0000
0000
0000
0000
0000
0600
0600
0000
0000
0000
0000
ENDCHAR
STARTCHAR u2030
ENCODING 8240
SWIDTH 1000 0
DWIDTH 12 0
BBX 12 12 0 -2
BITMAP
0000
0000
2200
5200
2400
0400
0800
1000
1280
2540
2280
0000
ENDCHAR
STARTCHAR u2031
ENCODING 8241
SWIDTH 1000 0
DWIDTH 12 0
BBX 12 12 0 -2
BITMAP
0000
0000
4400
A400
4800
0800
1000
2000
2540
4AA0
4540
0000
ENDCHAR
STARTCHAR u2032
ENCODING 8242
SWIDTH 500 0
DWIDTH 6 0
BBX 6 12 0 -2
BITMAP
00
00
10
10
20
00
00
00
00
00
00
00
ENDCHAR
STARTCHAR u2033
ENCODING 8243
SWIDTH 500 0
DWIDTH 6 0
BBX 6 12 0 -2
BITMAP
00
00
28
28
50
00
00
00
00
00
00
00
ENDCHAR
STARTCHAR u2035
ENCODING 8245
SWIDTH 500 0
DWIDTH 6 0
BBX 6 12 0 -2
BITMAP
00
00
20
20
10
00
00
00
00
00
00
00
ENDCHAR
STARTCHAR u2036
ENCODING 8246
SWIDTH 500 0
DWIDTH 6 0
BBX 6 12 0 -2
BITMAP
00
00
50
50
28
00
00
00
00
00
00
00
ENDCHAR
STARTCHAR u203B
ENCODING 8251
SWIDTH 1000 0
DWIDTH 12 0
BBX 12 12 0 -2
BITMAP
0000
0000
4440
2080
1100
0A00
4440
0A00
1100
2080
4440
0000
ENDCHAR
STARTCHAR u203E
ENCODING 8254
SWIDTH 500 0
DWIDTH 6 0
BBX 6 12 0 -2
BITMAP
00
F8
00
00
00
00
00
00
00
00
00
00
ENDCHAR
STARTCHAR u2043
ENCODING 8259
SWIDTH 1000 0
DWIDTH 12 0
BBX 12 12 0 -2
BITMAP
0000
0000
0000
0000
0000
0F00
0F00
0000
0000
0000
0000
0000
ENDCHAR
STARTCHAR u204B
ENCODING 8267
SWIDTH 500 0
DWIDTH 6 0
BBX 6 12 0 -2
BITMAP
00
00
E0
B0
B8
B8
B8
B0
A0
A0
A0
A0
ENDCHAR
STARTCHAR u204C
ENCODING 8268
SWIDTH 500 0
DWIDTH 6 0
BBX 6 12 0 -2
BITMAP
00
00
00
00
38
68
E8
E8
68
38
00
00
ENDCHAR
STARTCHAR u204D
ENCODING 8269
SWIDTH 500 0
DWIDTH 6 0
BBX 6 12 0 -2
BITMAP
00
00
00
00
E0
B0
B8
B8
B0
E0
00
00
ENDCHAR
STARTCHAR u2070
ENCODING 8304
SWIDTH 500 0
DWIDTH 6 0
BBX 6 12 0 -2
BITMAP
00
60
90
B0
D0
90
60
00
00
00
00
00
ENDCHAR
STARTCHAR u2071
ENCODING 8305
SWIDTH 500 0
DWIDTH 6 0
BBX 6 12 0 -2
BITMAP
00
20
00
60
20
20
70
00
00
00
00
00
ENDCHAR
STARTCHAR u2074
ENCODING 8308
SWIDTH 500 0
DWIDTH 6 0
BBX 6 12 0 -2
BITMAP
00
20
60
A0
A0
F0
20
00
00
00
00
00
ENDCHAR
STARTCHAR u2075
ENCODING 8309
SWIDTH 500 0
DWIDTH 6 0
BBX 6 12 0 -2
BITMAP
00
F0
80
E0
10
90
60
00
00
00
00
00
ENDCHAR
STARTCHAR u2076
ENCODING 8310
SWIDTH 500 0
DWIDTH 6 0
BBX 6 12 0 -2
BITMAP
00
60
80
E0
90
90
60
00
00
00
00
00
ENDCHAR
STARTCHAR u2077
ENCODING 8311
SWIDTH 500 0
DWIDTH 6 0
BBX 6 12 0 -2
BITMAP
00
F0
10
10
20
20
20
00
00
00
00
00
ENDCHAR
STARTCHAR u2078
ENCODING 8312
SWIDTH 500 0
DWIDTH 6 0
BBX 6 12 0 -2
BITMAP
00
60
90
60
90
90
60
00
00
00
00
00
ENDCHAR
STARTCHAR u2079
ENCODING 8313
SWIDTH 500 0
DWIDTH 6 0
BBX 6 12 0 -2
BITMAP
00
60
90
90
70
10
60
00
00
00
00
00
ENDCHAR
STARTCHAR u207A
ENCODING 8314
SWIDTH 500 0
DWIDTH 6 0
BBX 6 12 0 -2
BITMAP
00
00
20
20
F8
20
20
00
00
00
00
00
ENDCHAR
STARTCHAR u207B
ENCODING 8315
SWIDTH 500 0
DWIDTH 6 0
BBX 6 12 0 -2
BITMAP
00
00
00
00
F8
00
00
00
00
00
00
00
ENDCHAR
STARTCHAR u207C
ENCODING 8316
SWIDTH 500 0
DWIDTH 6 0
BBX 6 12 0 -2
BITMAP
00
00
00
F8
00
F8
00
00
00
00
00
00
ENDCHAR
STARTCHAR u207D
ENCODING 8317
SWIDTH 500 0
DWIDTH 6 0
BBX 6 12 0 -2
BITMAP
00
20
40
40
40
40
20
00
00
00
00
00
ENDCHAR
STARTCHAR u207E
ENCODING 8318
SWIDTH 500 0
DWIDTH 6 0
BBX 6 12 0 -2
BITMAP
00
40
20
20
20
20
40
00
00
00
00
00
ENDCHAR
STARTCHAR u207F
ENCODING 8319
SWIDTH 500 0
DWIDTH 6 0
BBX 6 12 0 -2
BITMAP
00
00
E0
90
90
90
90
00
00
00
00
00
ENDCHAR
STARTCHAR u2080
ENCODING 8320
SWIDTH 500 0
DWIDTH 6 0
BBX 6 12 0 -2
BITMAP
00
00
00
00
00
00
60
90
B0
D0
90
60
ENDCHAR
STARTCHAR u2081
ENCODING 8321
SWIDTH 500 0
DWIDTH 6 0
BBX 6 12 0 -2
BITMAP
00
00
00
00
00
00
20
60
20
20
20
70
ENDCHAR
STARTCHAR u2082
ENCODING 8322
SWIDTH 500 0
DWIDTH 6 0
BBX 6 12 0 -2
BITMAP
00
00
00
00
00
00
60
90
10
60
80
F0
ENDCHAR
STARTCHAR u2083
ENCODING 8323
SWIDTH 500 0
DWIDTH 6 0
BBX 6 12 0 -2
BITMAP
00
00
00
00
00
00
60
90
20
10
90
60
ENDCHAR
STARTCHAR u2084
ENCODING 8324
SWIDTH 500 0
DWIDTH 6 0
BBX 6 12 0 -2
BITMAP
00
00
00
00
00
00
20
60
A0
A0
F0
20
ENDCHAR
STARTCHAR u2085
ENCODING 8325
SWIDTH 500 0
DWIDTH 6 0
BBX 6 12 0 -2
BITMAP
00
00
00
00
00
00
F0
80
E0
10
90
60
ENDCHAR
STARTCHAR u2086
ENCODING 8326
SWIDTH 500 0
DWIDTH 6 0
BBX 6 12 0 -2
BITMAP
00
00
00
00
00
00
60
80
E0
90
90
60
ENDCHAR
STARTCHAR u2087
ENCODING 8327
SWIDTH 500 0
DWIDTH 6 0
BBX 6 12 0 -2
BITMAP
00
00
00
00
00
00
F0
10
10
20
20
20
ENDCHAR
STARTCHAR u2088
ENCODING 8328
SWIDTH 500 0
DWIDTH 6 0
BBX 6 12 0 -2
BITMAP
00
00
00
00
00
00
60
90
60
90
90
60
ENDCHAR
STARTCHAR u2089
ENCODING 8329
SWIDTH 500 0
DWIDTH 6 0
BBX 6 12 0 -2
BITMAP
00
00
00
00
00
00
60
90
90
70
10
60
ENDCHAR
STARTCHAR u208A
ENCODING 8330
SWIDTH 500 0
DWIDTH 6 0
BBX 6 12 0 -2
BITMAP
00
00
00
00
00
00
00
20
20
F8
20
20
ENDCHAR
STARTCHAR u208B
ENCODING 8331
SWIDTH 500 0
DWIDTH 6 0
BBX 6 12 0 -2
BITMAP
00
00
00
00
00
00
00
00
00
F8
00
00
ENDCHAR
STARTCHAR u208C
ENCODING 8332
SWIDTH 500 0
DWIDTH 6 0
BBX 6 12 0 -2
BITMAP
00
00
00
00
00
00
00
00
F8
00
F8
00
ENDCHAR
STARTCHAR u208D
ENCODING 8333
SWIDTH 500 0
DWIDTH 6 0
BBX 6 12 0 -2
BITMAP
00
00
00
00
00
00
20
40
40
40
40
20
ENDCHAR
STARTCHAR u208E
ENCODING 8334
SWIDTH 500 0
DWIDTH 6 0
BBX 6 12 0 -2
BITMAP
00
00
00
00
00
00
40
20
20
20
20
40
ENDCHAR
STARTCHAR u2090
ENCODING 8336
SWIDTH 500 0
DWIDTH 6 0
BBX 6 12 0 -2
BITMAP
00
00
00
00
00
00
00
60
10
70
90
70
ENDCHAR
STARTCHAR u2091
ENCODING 8337
SWIDTH 500 0
DWIDTH 6 0
BBX 6 12 0 -2
BITMAP
00
00
00
00
00
00
00
60
90
F0
80
60
ENDCHAR
STARTCHAR u2092
ENCODING 8338
SWIDTH 500 0
DWIDTH 6 0
BBX 6 12 0 -2
BITMAP
00
00
00
00
00
00
00
60
90
90
90
60
ENDCHAR
STARTCHAR u2093
ENCODING 8339
SWIDTH 500 0
DWIDTH 6 0
BBX 6 12 0 -2
BITMAP
00
00
00
00
00
00
00
90
90
60
90
90
ENDCHAR
STARTCHAR u2094
ENCODING 8340
SWIDTH 500 0
DWIDTH 6 0
BBX 6 12 0 -2
BITMAP
00
00
00
00
00
00
00
60
10
F0
90
60
ENDCHAR
STARTCHAR u2095
ENCODING 8341
SWIDTH 500 0
DWIDTH 6 0
BBX 6 12 0 -2
BITMAP
00
00
00
00
00
00
00
80
E0
90
90
90
ENDCHAR
STARTCHAR u2096
ENCODING 8342
SWIDTH 500 0
DWIDTH 6 0
BBX 6 12 0 -2
BITMAP
00
00
00
00
00
00
00
80
B0
C0
A0
90
ENDCHAR
STARTCHAR u2097
ENCODING 8343
SWIDTH 500 0
DWIDTH 6 0
BBX 6 12 0 -2
BITMAP
00
00
00
00
00
00
00
60
20
20
20
30
ENDCHAR
STARTCHAR u2098
ENCODING 8344
SWIDTH 500 0
DWIDTH 6 0
BBX 6 12 0 -2
BITMAP
00
00
00
00
00
00
00
D0
A8
A8
A8
A8
ENDCHAR
STARTCHAR u2099
ENCODING 8345
SWIDTH 500 0
DWIDTH 6 0
BBX 6 12 0 -2
BITMAP
00
00
00
00
00
00
00
E0
90
90
90
90
ENDCHAR
STARTCHAR u209A
ENCODING 8346
SWIDTH 500 0
DWIDTH 6 0
BBX 6 12 0 -2
BITMAP
00
00
00
00
00
00
00
E0
90
90
E0
80
ENDCHAR
STARTCHAR u209B
ENCODING 8347
SWIDTH 500 0
DWIDTH 6 0
BBX 6 12 0 -2
BITMAP
00
00
00
00
00
00
00
70
80
60
10
E0
ENDCHAR
STARTCHAR u209C
ENCODING 8348
SWIDTH 500 0
DWIDTH 6 0
BBX 6 12 0 -2
BITMAP
00
00
00
00
00
00
00
20
F8
20
20
18
ENDCHAR
STARTCHAR u2103
ENCODING 8451
SWIDTH 1000 0
DWIDTH 12 0
BBX 12 12 0 -2
BITMAP
0000
3000
49C0
4A20
3200
0200
0200
0200
0220
01C0
0000
0000
ENDCHAR
STARTCHAR u2109
ENCODING 8457
SWIDTH 1000 0
DWIDTH 12 0
BBX 12 12 0 -2
BITMAP
0000
3000
4BE0
4A00
3200
03C0
0200
0200
0200
0200
0000
0000
ENDCHAR
STARTCHAR u2116
ENCODING 8470
SWIDTH 1000 0
DWIDTH 12 0
BBX 12 12 0 -2
BITMAP
0000
0000
8400
C400
A400
A4C0
9520
9520
8CC0
8C00
85E0
0000
ENDCHAR
STARTCHAR u2122
ENCODING 8482
SWIDTH 1000 0
DWIDTH 12 0
BBX 12 12 0 -2
BITMAP
0000
FA20
2360
22A0
2220
2220
0000
0000
0000
0000
0000
0000
ENDCHAR
STARTCHAR u2126
ENCODING 8486
SWIDTH 1000 0
DWIDTH 12 0
BBX 12 12 0 -2
BITMAP
0000
1F00
2080
4040
4040
4040
4040
4040
2080
1100
1100
71C0
ENDCHAR
STARTCHAR u2127
ENCODING 8487
SWIDTH 1000 0
DWIDTH 12 0
BBX 12 12 0 -2
BITMAP
0000
71C0
1100
1100
2080
4040
4040
4040
4040
4040
2080
1F00
ENDCHAR
STARTCHAR u212A
ENCODING 8490
SWIDTH 1000 0
DWIDTH 12 0
BBX 12 12 0 -2
BITMAP
0000
0000
1100
1200
1400
1800
1800
1400
1200
1100
0000
0000
ENDCHAR
STARTCHAR u212B
ENCODING 8491
SWIDTH 1000 0
DWIDTH 12 0
BBX 12 12 0 -2
BITMAP
0400
0A00
0400
0000
0400
0A00
0A00
0E00
1100
1100
0000
0000
ENDCHAR
STARTCHAR u212E
ENCODING 8494
SWIDTH 1000 0
DWIDTH 12 0
BBX 12 12 0 -2
BITMAP
0000
0000
1F00
2080
60C0
60C0
7FC0
6000
6000
2080
1F00
0000
ENDCHAR
STARTCHAR u2150
ENCODING 8528
SWIDTH 1000 0
DWIDTH 12 0
BBX 12 12 0 -2
BITMAP
0000
2020
6040
2080
2100
2200
75E0
0820
1020
2040
4040
8040
ENDCHAR
STARTCHAR u2151
ENCODING 8529
SWIDTH 1000 0
DWIDTH 12 0
BBX 12 12 0 -2
BITMAP
0000
2020
6040
2080
2100
2200
74C0
0920
1120
20E0
4020
80C0
ENDCHAR
STARTCHAR u2152
ENCODING 8530
SWIDTH 1000 0
DWIDTH 12 0
BBX 12 12 0 -2
BITMAP
0000
2020
6040
2080
2100
2200
7400
0A40
16A0
22A0
42A0
8740
ENDCHAR
STARTCHAR u2153
ENCODING 8531
SWIDTH 1000 0
DWIDTH 12 0
BBX 12 12 0 -2
BITMAP
0000
2020
6040
2080
2100
2200
74C0
0920
1040
2020
4120
80C0
ENDCHAR
STARTCHAR u2154
ENCODING 8532
SWIDTH 1000 0
DWIDTH 12 0
BBX 12 12 0 -2
BITMAP
0000
6020
9040
1080
6100
8200
F4C0
0920
1040
2020
4120
80C0
ENDCHAR
STARTCHAR u2155
ENCODING 8533
SWIDTH 1000 0
DWIDTH 12 0
BBX 12 12 0 -2
BITMAP
0000
2020
6040
2080
2100
2200
75E0
0900
11C0
2020
4120
80C0
ENDCHAR
STARTCHAR u2156
ENCODING 8534
SWIDTH 1000 0
DWIDTH 12 0
BBX 12 12 0 -2
BITMAP
0000
6020
9040
1080
6100
8200
F5E0
0900
11C0
2020
4120
80C0
ENDCHAR
STARTCHAR u2157
ENCODING 8535
SWIDTH 1000 0
DWIDTH 12 0
BBX 12 12 0 -2
BITMAP
0000
6020
9040
2080
1100
9200
65E0
0900
11C0
2020
4120
80C0
ENDCHAR
STARTCHAR u2158
ENCODING 8536
SWIDTH 1000 0
DWIDTH 12 0
BBX 12 12 0 -2
BITMAP
0000
2020
6040
A080
A100
F200
25E0
0900
11C0
2020
4120
80C0
ENDCHAR
STARTCHAR u2159
ENCODING 8537
SWIDTH 1000 0
DWIDTH 12 0
BBX 12 12 0 -2
BITMAP
0000
2020
6040
2080
2100
2200
74C0
0900
11C0
2120
4120
80C0
ENDCHAR
STARTCHAR u215A
ENCODING 8538
SWIDTH 1000 0
DWIDTH 12 0
BBX 12 12 0 -2
BITMAP
0000
F020
8040
E080
1100
9200
64C0
0900
11C0
2120
4120
80C0
ENDCHAR
STARTCHAR u215B
ENCODING 8539
SWIDTH 1000 0
DWIDTH 12 0
BBX 12 12 0 -2
BITMAP
0000
2020
6040
2080
2100
2200
74C0
0920
10C0
2120
4120
80C0
ENDCHAR
STARTCHAR u215C
ENCODING 8540
SWIDTH 1000 0
DWIDTH 12 0
BBX 12 12 0 -2
BITMAP
0000
6020
9040
2080
1100
9200
64C0
0920
10C0
2120
4120
80C0
ENDCHAR
STARTCHAR u215D
ENCODING 8541
SWIDTH 1000 0
DWIDTH 12 0
BBX 12 12 0 -2
BITMAP
0000
F020
8040
E080
1100
9200
64C0
0920
10C0
2120
4120
80C0
ENDCHAR
STARTCHAR u215E
ENCODING 8542
SWIDTH 1000 0
DWIDTH 12 0
BBX 12 12 0 -2
BITMAP
0000
F020
1040
1080
2100
2200
24C0
0920
10C0
2120
4120
80C0
ENDCHAR
STARTCHAR u215F
ENCODING 8543
SWIDTH 1000 0
DWIDTH 12 0
BBX 12 12 0 -2
BITMAP
0000
2020
6040
2080
2100
2200
7400
0800
1000
2000
4000
8000
ENDCHAR
STARTCHAR u2160
ENCODING 8544
SWIDTH 1000 0
DWIDTH 12 0
BBX 12 12 0 -2
BITMAP
0000
0000
0E00
0400
0400
0400
0400
0400
0400
0400
0E00
0000
ENDCHAR
STARTCHAR u2161
ENCODING 8545
SWIDTH 1000 0
DWIDTH 12 0
BBX 12 12 0 -2
BITMAP
0000
0000
3B80
1100
1100
1100
1100
1100
1100
1100
3B80
0000
ENDCHAR
STARTCHAR u2162
ENCODING 8546
SWIDTH 1000 0
DWIDTH 12 0
BBX 12 12 0 -2
BITMAP
0000
0000
7FC0
2480
2480
2480
2480
2480
2480
2480
7FC0
0000
ENDCHAR
STARTCHAR u2163
ENCODING 8547
SWIDTH 1000 0
DWIDTH 12 0
BBX 12 12 0 -2
BITMAP
0000
0000
EEE0
4440
4440
4440
4280
4280
4280
4100
E100
0000
ENDCHAR
STARTCHAR u2164
ENCODING 8548
SWIDTH 1000 0
DWIDTH 12 0
BBX 12 12 0 -2
BITMAP
0000
0000
3B80
1100
1100
1100
0A00
0A00
0A00
0400
0400
0000
ENDCHAR
STARTCHAR u2165
ENCODING 8549
SWIDTH 1000 0
DWIDTH 12 0
BBX 12 12 0 -2
BITMAP
0000
0000
EEE0
4440
4440
4440
2840
2840
2840
1040
10E0
0000
ENDCHAR
STARTCHAR u2166
ENCODING 8550
SWIDTH 1000 0
DWIDTH 12 0
BBX 12 12 0 -2
BITMAP
0000
0000
EFE0
4540
4540
4540
2940
2940
2940
1140
13E0
0000
ENDCHAR
STARTCHAR u2167
ENCODING 8551
SWIDTH 1000 0
DWIDTH 12 0
BBX 12 12 0 -2
BITMAP
0000
0000
DFE0
8AA0
8AA0
8AA0
52A0
52A0
52A0
22A0
27E0
0000
ENDCHAR
STARTCHAR u2168
ENCODING 8552
SWIDTH 1000 0
DWIDTH 12 0
BBX 12 12 0 -2
BITMAP
0000
0000
EEE0
4440
4440
4280
4100
4280
4440
4440
EEE0
0000
ENDCHAR
STARTCHAR u2169
ENCODING 8553
SWIDTH 1000 0
DWIDTH 12 0
BBX 12 12 0 -2
BITMAP
0000
0000
3B80
1100
1100
0A00
0400
0A00
1100
1100
3B80
0000
ENDCHAR
STARTCHAR u216A
ENCODING 8554
SWIDTH 1000 0
DWIDTH 12 0
BBX 12 12 0 -2
BITMAP
0000
0000
EEE0
4440
4440
2840
1040
2840
4440
4440
EEE0
0000
ENDCHAR
STARTCHAR u216B
ENCODING 8555
SWIDTH 1000 0
DWIDTH 12 0
BBX 12 12 0 -2
BITMAP
0000
0000
EFE0
4540
4540
2940
1140
2940
4540
4540
EFE0
0000
ENDCHAR
STARTCHAR u216C
ENCODING 8556
SWIDTH 1000 0
DWIDTH 12 0
BBX 12 12 0 -2
BITMAP
0000
0000
1000
1000
1000
1000
1000
1000
1000
1000
1F00
0000
ENDCHAR
STARTCHAR u216D
ENCODING 8557
SWIDTH 1000 0
DWIDTH 12 0
BBX 12 12 0 -2
BITMAP
0000
0000
0700
0880
1000
1000
1000
1000
1000
0880
0700
0000
ENDCHAR
STARTCHAR u216E
ENCODING 8558
SWIDTH 1000 0
DWIDTH 12 0
BBX 12 12 0 -2
BITMAP
0000
0000
1E00
1100
1080
1080
1080
1080
1080
1100
1E00
0000
ENDCHAR
STARTCHAR u216F
ENCODING 8559
SWIDTH 1000 0
DWIDTH 12 0
BBX 12 12 0 -2
BITMAP
0000
0000
2080
2080
3180
3180
2A80
2A80
2480
2480
2480
0000
ENDCHAR
STARTCHAR u2170
ENCODING 8560
SWIDTH 1000 0
DWIDTH 12 0
BBX 12 12 0 -2
BITMAP
0000
0000
0400
0000
0000
0C00
0400
0400
0400
0400
0E00
0000
ENDCHAR
STARTCHAR u2171
ENCODING 8561
SWIDTH 1000 0
DWIDTH 12 0
BBX 12 12 0 -2
BITMAP
0000
0000
1100
0000
0000
3300
1100
1100
1100
1100
3B80
0000
ENDCHAR
STARTCHAR u2172
ENCODING 8562
SWIDTH 1000 0
DWIDTH 12 0
BBX 12 12 0 -2
BITMAP
0000
0000
2480
0000
0000
6D80
2480
2480
2480
2480
7FC0
0000
ENDCHAR
STARTCHAR u2173
ENCODING 8563
SWIDTH 1000 0
DWIDTH 12 0
BBX 12 12 0 -2
BITMAP
0000
0000
2000
0000
0000
6EE0
2440
2280
2280
2100
7100
0000
ENDCHAR
STARTCHAR u2174
ENCODING 8564
SWIDTH 1000 0
DWIDTH 12 0
BBX 12 12 0 -2
BITMAP
0000
0000
0000
0000
0000
3B80
1100
0A00
0A00
0400
0400
0000
ENDCHAR
STARTCHAR u2175
ENCODING 8565
SWIDTH 1000 0
DWIDTH 12 0
BBX 12 12 0 -2
BITMAP
0000
0000
0040
0000
0000
EEC0
4440
2840
2840
1040
10E0
0000
ENDCHAR
STARTCHAR u2176
ENCODING 8566
SWIDTH 1000 0
DWIDTH 12 0
BBX 12 12 0 -2
BITMAP
0000
0000
0140
0000
0000
EFC0
4540
2940
2940
1140
13E0
0000
ENDCHAR
STARTCHAR u2177
ENCODING 8567
SWIDTH 1000 0
DWIDTH 12 0
BBX 12 12 0 -2
BITMAP
0000
0000
02A0
0000
0000
DFE0
8AA0
52A0
52A0
22A0
27E0
0000
ENDCHAR
STARTCHAR u2178
ENCODING 8568
SWIDTH 1000 0
DWIDTH 12 0
BBX 12 12 0 -2
BITMAP
0000
0000
2000
0000
0000
6440
2280
2100
2100
2280
7440
0000
ENDCHAR
STARTCHAR u2179
ENCODING 8569
SWIDTH 1000 0
DWIDTH 12 0
BBX 12 12 0 -2
BITMAP
0000
0000
0000
0000
0000
1100
0A00
0400
0400
0A00
1100
0000
ENDCHAR
STARTCHAR u217A
ENCODING 8570
SWIDTH 1000 0
DWIDTH 12 0
BBX 12 12 0 -2
BITMAP
0000
0000
0080
0000
0000
4580
2880
1080
1080
2880
45C0
0000
ENDCHAR
STARTCHAR u217B
ENCODING 8571
SWIDTH 1000 0
DWIDTH 12 0
BBX 12 12 0 -2
BITMAP
0000
0000
0140
0000
0000
8BC0
5140
2140
2140
5140
8BE0
0000
ENDCHAR
STARTCHAR u217C
ENCODING 8572
SWIDTH 1000 0
DWIDTH 12 0
BBX 12 12 0 -2
BITMAP
0000
0000
0C00
0400
0400
0400
0400
0400
0400
0400
0600
0000
ENDCHAR
STARTCHAR u217D
ENCODING 8573
SWIDTH 1000 0
DWIDTH 12 0
BBX 12 12 0 -2
BITMAP
0000
0000
0000
0000
0000
0E00
1100
1000
1000
1100
0E00
0000
ENDCHAR
STARTCHAR u217E
ENCODING 8574
SWIDTH 1000 0
DWIDTH 12 0
BBX 12 12 0 -2
BITMAP
0000
0000
0100
0100
0100
0F00
1100
1100
1100
1100
0F00
0000
ENDCHAR
STARTCHAR u217F
ENCODING 8575
SWIDTH 1000 0
DWIDTH 12 0
BBX 12 12 0 -2
BITMAP
0000
0000
0000
0000
0000
3B00
2480
2480
2480
2480
2480
0000
ENDCHAR
STARTCHAR u2180
ENCODING 8576
SWIDTH 1000 0
DWIDTH 12 0
BBX 12 12 0 -2
BITMAP
0000
0000
3F80
4440
8420
8420
8420
8420
8420
4440
3F80
0000
ENDCHAR
STARTCHAR u2181
ENCODING 8577
SWIDTH 1000 0
DWIDTH 12 0
BBX 12 12 0 -2
BITMAP
0000
0000
1E00
1100
1C80
1280
1280
1280
1C80
1100
1E00
0000
ENDCHAR
STARTCHAR u2182
ENCODING 8578
SWIDTH 1000 0
DWIDTH 12 0
BBX 12 12 0 -2
BITMAP
0000
0000
3F80
4440
9F20
A4A0
A4A0
A4A0
9F20
4440
3F80
0000
ENDCHAR
STARTCHAR u2183
ENCODING 8579
SWIDTH 1000 0
DWIDTH 12 0
BBX 12 12 0 -2
BITMAP
0000
0000
0E00
1100
0080
0080
0080
0080
0080
1100
0E00
0000
ENDCHAR
STARTCHAR u2184
ENCODING 8580
SWIDTH 1000 0
DWIDTH 12 0
BBX 12 12 0 -2
BITMAP
0000
0000
0000
0000
0000
0E00
1100
0100
0100
1100
0E00
0000
ENDCHAR
STARTCHAR u2185
ENCODING 8581
SWIDTH 1000 0
DWIDTH 12 0
BBX 12 12 0 -2
BITMAP
0000
0000
0700
0880
1000
1000
1000
1000
1080
0980
0680
0080
ENDCHAR
STARTCHAR u2186
ENCODING 8582
SWIDTH 1000 0
DWIDTH 12 0
BBX 12 12 0 -2
BITMAP
0000
0000
0400
0400
0400
0400
0400
2480
1500
0E00
0400
0000
ENDCHAR
STARTCHAR u2187
ENCODING 8583
SWIDTH 1000 0
DWIDTH 12 0
BBX 12 12 0 -2
BITMAP
0000
0000
1E00
1100
1C80
1280
1A80
1280
1C80
1100
1E00
0000
ENDCHAR
STARTCHAR u2188
ENCODING 8584
SWIDTH 1000 0
DWIDTH 12 0
BBX 12 12 0 -2
BITMAP
0000
0000
3F80
4440
9F20
A4A0
AEA0
A4A0
9F20
4440
3F80
0000
ENDCHAR
STARTCHAR u2189
ENCODING 8585
SWIDTH 1000 0
DWIDTH 12 0
BBX 12 12 0 -2
BITMAP
0000
6020
9040
B080
D100
9200
64C0
0920
1040
2020
4120
80C0
ENDCHAR
STARTCHAR u218A
ENCODING 8586
SWIDTH 1000 0
DWIDTH 12 0
BBX 12 12 0 -2
BITMAP
0000
0000
1F00
0100
0200
0400
0800
1000
1000
1100
0E00
0000
ENDCHAR
STARTCHAR u218B
ENCODING 8587
SWIDTH 1000 0
DWIDTH 12 0
BBX 12 12 0 -2
BITMAP
0000
0000
0E00
1100
1000
1000
0C00
1000
1000
1100
0E00
0000
ENDCHAR
STARTCHAR u2190
ENCODING 8592
SWIDTH 1000 0
DWIDTH 12 0
BBX 12 12 0 -2
BITMAP
0000
0000
0000
0000
2000
4000
FFE0
4000
2000
0000
0000
0000
ENDCHAR
STARTCHAR u2191
ENCODING 8593
SWIDTH 1000 0
DWIDTH 12 0
BBX 12 12 0 -2
BITMAP
0000
0400
0E00
1500
0400
0400
0400
0400
0400
0400
0400
0400
ENDCHAR
STARTCHAR u2192
ENCODING 8594
SWIDTH 1000 0
DWIDTH 12 0
BBX 12 12 0 -2
BITMAP
0000
0000
0000
0000
0080
0040
FFE0
0040
0080
0000
0000
0000
ENDCHAR
STARTCHAR u2193
ENCODING 8595
SWIDTH 1000 0
DWIDTH 12 0
BBX 12 12 0 -2
BITMAP
0000
0400
0400
0400
0400
0400
0400
0400
0400
1500
0E00
0400
ENDCHAR
STARTCHAR u2194
ENCODING 8596
SWIDTH 1000 0
DWIDTH 12 0
BBX 12 12 0 -2
BITMAP
0000
0000
0000
0000
2080
4040
FFE0
4040
2080
0000
0000
0000
ENDCHAR
STARTCHAR u2195
ENCODING 8597
SWIDTH 1000 0
DWIDTH 12 0
BBX 12 12 0 -2
BITMAP
0000
0400
0E00
1500
0400
0400
0400
0400
0400
1500
0E00
0400
ENDCHAR
STARTCHAR u2196
ENCODING 8598
SWIDTH 1000 0
DWIDTH 12 0
BBX 12 12 0 -2
BITMAP
0000
0000
7C00
6000
5000
4800
4400
0200
0100
0080
0040
0000
ENDCHAR
STARTCHAR u2197
ENCODING 8599
SWIDTH 1000 0
DWIDTH 12 0
BBX 12 12 0 -2
BITMAP
0000
0000
07C0
00C0
0140
0240
0440
0800
1000
2000
4000
0000
ENDCHAR
STARTCHAR u2198
ENCODING 8600
SWIDTH 1000 0
DWIDTH 12 0
BBX 12 12 0 -2
BITMAP
0000
0000
4000
2000
1000
0800
0440
0240
0140
00C0
07C0
0000
ENDCHAR
STARTCHAR u2199
ENCODING 8601
SWIDTH 1000 0
DWIDTH 12 0
BBX 12 12 0 -2
BITMAP
0000
0000
0040
0080
0100
0200
4400
4800
5000
6000
7C00
0000
ENDCHAR
STARTCHAR u219A
ENCODING 8602
SWIDTH 1000 0
DWIDTH 12 0
BBX 12 12 0 -2
BITMAP
0000
0000
0000
0080
2080
4100
FFE0
4100
2200
0200
0000
0000
ENDCHAR
STARTCHAR u219B
ENCODING 8603
SWIDTH 1000 0
DWIDTH 12 0
BBX 12 12 0 -2
BITMAP
0000
0000
0000
0800
0880
1040
FFE0
1040
2080
2000
0000
0000
ENDCHAR
STARTCHAR u219C
ENCODING 8604
SWIDTH 1000 0
DWIDTH 12 0
BBX 12 12 0 -2
BITMAP
0000
0000
0000
0000
F180
C240
A420
9800
0000
0000
0000
0000
ENDCHAR
STARTCHAR u219D
ENCODING 8605
SWIDTH 1000 0
DWIDTH 12 0
BBX 12 12 0 -2
BITMAP
0000
0000
0000
0000
31E0
4860
84A0
0320
0000
0000
0000
0000
ENDCHAR
STARTCHAR u219E
ENCODING 8606
SWIDTH 1000 0
DWIDTH 12 0
BBX 12 12 0 -2
BITMAP
0000
0000
0000
0000
2400
4800
FFE0
4800
2400
0000
0000
0000
ENDCHAR
STARTCHAR u219F
ENCODING 8607
SWIDTH 1000 0
DWIDTH 12 0
BBX 12 12 0 -2
BITMAP
0000
0400
0E00
1500
0400
0E00
1500
0400
0400
0400
0400
0400
ENDCHAR
STARTCHAR u21A0
ENCODING 8608
SWIDTH 1000 0
DWIDTH 12 0
BBX 12 12 0 -2
BITMAP
0000
0000
0000
0000
0480
0240
FFE0
0240
0480
0000
0000
0000
ENDCHAR
STARTCHAR u21A1
ENCODING 8609
SWIDTH 1000 0
DWIDTH 12 0
BBX 12 12 0 -2
BITMAP
0000
0400
0400
0400
0400
0400
1500
0E00
0400
1500
0E00
0400
ENDCHAR
STARTCHAR u21A2
ENCODING 8610
SWIDTH 1000 0
DWIDTH 12 0
BBX 12 12 0 -2
BITMAP
0000
0000
0000
0000
2020
4040
FF80
4040
2020
0000
0000
0000
ENDCHAR
STARTCHAR u21A3
ENCODING 8611
SWIDTH 1000 0
DWIDTH 12 0
BBX 12 12 0 -2
BITMAP
0000
0000
0000
0000
8080
4040
3FE0
4040
8080
0000
0000
0000
ENDCHAR
STARTCHAR u21A4
ENCODING 8612
SWIDTH 1000 0
DWIDTH 12 0
BBX 12 12 0 -2
BITMAP
0000
0000
0000
0000
2020
4020
FFE0
4020
2020
0000
0000
0000
ENDCHAR
STARTCHAR u21A5
ENCODING 8613
SWIDTH 1000 0
DWIDTH 12 0
BBX 12 12 0 -2
BITMAP
0000
0400
0E00
1500
0400
0400
0400
0400
0400
0400
0400
1F00
ENDCHAR
STARTCHAR u21A6
ENCODING 8614
SWIDTH 1000 0
DWIDTH 12 0
BBX 12 12 0 -2
BITMAP
0000
0000
0000
0000
8080
8040
FFE0
8040
8080
0000
0000
0000
ENDCHAR
STARTCHAR u21A7
ENCODING 8615
SWIDTH 1000 0
DWIDTH 12 0
BBX 12 12 0 -2
BITMAP
0000
1F00
0400
0400
0400
0400
0400
0400
0400
1500
0E00
0400
ENDCHAR
STARTCHAR u21A8
ENCODING 8616
SWIDTH 1000 0
DWIDTH 12 0
BBX 12 12 0 -2
BITMAP
0000
0400
0E00
1500
0400
0400
0400
1500
0E00
0400
0000
1F00
ENDCHAR
STARTCHAR u21A9
ENCODING 8617
SWIDTH 1000 0
DWIDTH 12 0
BBX 12 12 0 -2
BITMAP
0000
0000
1F00
0080
0040
0040
0040
1040
2080
7F00
2000
1000
ENDCHAR
STARTCHAR u21AA
ENCODING 8618
SWIDTH 1000 0
DWIDTH 12 0
BBX 12 12 0 -2
BITMAP
0000
0000
1F00
2000
4000
4000
4000
4100
2080
1FC0
0080
0100
ENDCHAR
STARTCHAR u21AB
ENCODING 8619
SWIDTH 1000 0
DWIDTH 12 0
BBX 12 12 0 -2
BITMAP
0000
0000
0000
00C0
2120
4120
FFC0
4100
2100
0000
0000
0000
ENDCHAR
STARTCHAR u21AC
ENCODING 8620
SWIDTH 1000 0
DWIDTH 12 0
BBX 12 12 0 -2
BITMAP
0000
0000
0000
6000
9080
9040
7FE0
1040
1080
0000
0000
0000
ENDCHAR
STARTCHAR u21AD
ENCODING 8621
SWIDTH 1000 0
DWIDTH 12 0
BBX 12 12 0 -2
BITMAP
0000
0000
0000
0000
2080
4440
EAE0
5140
2080
0000
0000
0000
ENDCHAR
STARTCHAR u21AE
ENCODING 8622
SWIDTH 1000 0
DWIDTH 12 0
BBX 12 12 0 -2
BITMAP
0000
0000
0000
0200
2280
4440
FFE0
4440
2880
0800
0000
0000
ENDCHAR
STARTCHAR u21AF
ENCODING 8623
SWIDTH 1000 0
DWIDTH 12 0
BBX 12 12 0 -2
BITMAP
0000
1000
1000
1200
1600
1A00
1200
0200
0200
0A80
0700
0200
ENDCHAR
STARTCHAR u21B0
ENCODING 8624
SWIDTH 1000 0
DWIDTH 12 0
BBX 12 12 0 -2
BITMAP
0000
2000
4000
FFC0
4040
2040
0040
0040
0040
0040
0040
0040
ENDCHAR
STARTCHAR u21B1
ENCODING 8625
SWIDTH 1000 0
DWIDTH 12 0
BBX 12 12 0 -2
BITMAP
0000
0080
0040
7FE0
4040
4080
4000
4000
4000
4000
4000
4000
ENDCHAR
STARTCHAR u21B2
ENCODING 8626
SWIDTH 1000 0
DWIDTH 12 0
BBX 12 12 0 -2
BITMAP
0000
0040
0040
0040
0040
0040
0040
2040
4040
FFC0
4000
2000
ENDCHAR
STARTCHAR u21B3
ENCODING 8627
SWIDTH 1000 0
DWIDTH 12 0
BBX 12 12 0 -2
BITMAP
0000
4000
4000
4000
4000
4000
4000
4080
4040
7FE0
0040
0080
ENDCHAR
STARTCHAR u21B4
ENCODING 8628
SWIDTH 1000 0
DWIDTH 12 0
BBX 12 12 0 -2
BITMAP
0000
0000
0000
FF80
0080
0080
0080
02A0
01C0
0080
0000
0000
ENDCHAR
STARTCHAR u21B5
ENCODING 8629
SWIDTH 1000 0
DWIDTH 12 0
BBX 12 12 0 -2
BITMAP
0000
0000
0000
0020
0020
2020
4020
FFE0
4000
2000
0000
0000
ENDCHAR
STARTCHAR u21B6
ENCODING 8630
SWIDTH 1000 0
DWIDTH 12 0
BBX 12 12 0 -2
BITMAP
0000
0000
0F00
1080
2040
2040
2040
2040
A840
7000
2000
0000
ENDCHAR
STARTCHAR u21B7
ENCODING 8631
SWIDTH 1000 0
DWIDTH 12 0
BBX 12 12 0 -2
BITMAP
0000
0000
1E00
2100
4080
4080
4080
4080
42A0
01C0
0080
0000
ENDCHAR
STARTCHAR u21B8
ENCODING 8632
SWIDTH 1000 0
DWIDTH 12 0
BBX 12 12 0 -2
BITMAP
0000
FFE0
0000
7C00
6000
5000
4800
4400
0200
0100
0080
0040
ENDCHAR
STARTCHAR u21B9
ENCODING 8633
SWIDTH 1000 0
DWIDTH 12 0
BBX 12 12 0 -2
BITMAP
0000
0000
9000
A000
FFE0
A000
9120
00A0
FFE0
00A0
0120
0000
ENDCHAR
STARTCHAR u21BA
ENCODING 8634
SWIDTH 1000 0
DWIDTH 12 0
BBX 12 12 0 -2
BITMAP
0000
03C0
1300
2280
4240
4040
4040
4040
4040
2080
1F00
0000
ENDCHAR
STARTCHAR u21BB
ENCODING 8635
SWIDTH 1000 0
DWIDTH 12 0
BBX 12 12 0 -2
BITMAP
0000
7800
1900
2880
4840
4040
4040
4040
4040
2080
1F00
0000
ENDCHAR
STARTCHAR u21BC
ENCODING 8636
SWIDTH 1000 0
DWIDTH 12 0
BBX 12 12 0 -2
BITMAP
0000
0000
0000
0000
2000
4000
FFE0
0000
0000
0000
0000
0000
ENDCHAR
STARTCHAR u21BD
ENCODING 8637
SWIDTH 1000 0
DWIDTH 12 0
BBX 12 12 0 -2
BITMAP
0000
0000
0000
0000
0000
0000
FFE0
4000
2000
0000
0000
0000
ENDCHAR
STARTCHAR u21BE
ENCODING 8638
SWIDTH 1000 0
DWIDTH 12 0
BBX 12 12 0 -2
BITMAP
0000
0400
0600
0500
0400
0400
0400
0400
0400
0400
0400
0400
ENDCHAR
STARTCHAR u21BF
ENCODING 8639
SWIDTH 1000 0
DWIDTH 12 0
BBX 12 12 0 -2
BITMAP
0000
0400
0C00
1400
0400
0400
0400
0400
0400
0400
0400
0400
ENDCHAR
STARTCHAR u21C0
ENCODING 8640
SWIDTH 1000 0
DWIDTH 12 0
BBX 12 12 0 -2
BITMAP
0000
0000
0000
0000
0080
0040
FFE0
0000
0000
0000
0000
0000
ENDCHAR
STARTCHAR u21C1
ENCODING 8641
SWIDTH 1000 0
DWIDTH 12 0
BBX 12 12 0 -2
BITMAP
0000
0000
0000
0000
0000
0000
FFE0
0040
0080
0000
0000
0000
ENDCHAR
STARTCHAR u21C2
ENCODING 8642
SWIDTH 1000 0
DWIDTH 12 0
BBX 12 12 0 -2
BITMAP
0000
0400
0400
0400
0400
0400
0400
0400
0400
0500
0600
0400
ENDCHAR
STARTCHAR u21C3
ENCODING 8643
SWIDTH 1000 0
DWIDTH 12 0
BBX 12 12 0 -2
BITMAP
0000
0400
0400
0400
0400
0400
0400
0400
0400
1400
0C00
0400
ENDCHAR
STARTCHAR u21C4
ENCODING 8644
SWIDTH 1000 0
DWIDTH 12 0
BBX 12 12 0 -2
BITMAP
0000
0000
0080
0040
FFE0
0040
2080
4000
FFE0
4000
2000
0000
ENDCHAR
STARTCHAR u21C5
ENCODING 8645
SWIDTH 1000 0
DWIDTH 12 0
BBX 12 12 0 -2
BITMAP
0000
1100
3900
5500
1100
1100
1100
1100
1100
1540
1380
1100
ENDCHAR
STARTCHAR u21C6
ENCODING 8646
SWIDTH 1000 0
DWIDTH 12 0
BBX 12 12 0 -2
BITMAP
0000
0000
2000
4000
FFE0
4000
2080
0040
FFE0
0040
0080
0000
ENDCHAR
STARTCHAR u21C7
ENCODING 8647
SWIDTH 1000 0
DWIDTH 12 0
BBX 12 12 0 -2
BITMAP
0000
0000
2000
4000
FFE0
4000
2000
4000
FFE0
4000
2000
0000
ENDCHAR
STARTCHAR u21C8
ENCODING 8648
SWIDTH 1000 0
DWIDTH 12 0
BBX 12 12 0 -2
BITMAP
0000
1100
3B80
5540
1100
1100
1100
1100
1100
1100
1100
1100
ENDCHAR
STARTCHAR u21C9
ENCODING 8649
SWIDTH 1000 0
DWIDTH 12 0
BBX 12 12 0 -2
BITMAP
0000
0000
0080
0040
FFE0
0040
0080
0040
FFE0
0040
0080
0000
ENDCHAR
STARTCHAR u21CA
ENCODING 8650
SWIDTH 1000 0
DWIDTH 12 0
BBX 12 12 0 -2
BITMAP
0000
1100
1100
1100
1100
1100
1100
1100
1100
5540
3B80
1100
ENDCHAR
STARTCHAR u21CB
ENCODING 8651
SWIDTH 1000 0
DWIDTH 12 0
BBX 12 12 0 -2
BITMAP
0000
0000
2000
4000
FFE0
0000
0000
FFE0
0040
0080
0000
0000
ENDCHAR
STARTCHAR u21CC
ENCODING 8652
SWIDTH 1000 0
DWIDTH 12 0
BBX 12 12 0 -2
BITMAP
0000
0000
0080
0040
FFE0
0000
0000
FFE0
4000
2000
0000
0000
ENDCHAR
STARTCHAR u21CD
ENCODING 8653
SWIDTH 1000 0
DWIDTH 12 0
BBX 12 12 0 -2
BITMAP
0000
0000
0000
1080
2080
7FE0
8100
7FE0
2200
1200
0000
0000
ENDCHAR
STARTCHAR u21CE
ENCODING 8654
SWIDTH 1000 0
DWIDTH 12 0
BBX 12 12 0 -2
BITMAP
0000
0000
0000
1100
2280
7FC0
8420
7FC0
2880
1100
0000
0000
ENDCHAR
STARTCHAR u21CF
ENCODING 8655
SWIDTH 1000 0
DWIDTH 12 0
BBX 12 12 0 -2
BITMAP
0000
0000
0000
0900
0880
FFC0
1020
FFC0
2080
2100
0000
0000
ENDCHAR
STARTCHAR u21D0
ENCODING 8656
SWIDTH 1000 0
DWIDTH 12 0
BBX 12 12 0 -2
BITMAP
0000
0000
0000
1000
2000
7FE0
8000
7FE0
2000
1000
0000
0000
ENDCHAR
STARTCHAR u21D1
ENCODING 8657
SWIDTH 1000 0
DWIDTH 12 0
BBX 12 12 0 -2
BITMAP
0000
0400
0A00
1B00
2A80
0A00
0A00
0A00
0A00
0A00
0A00
0A00
ENDCHAR
STARTCHAR u21D2
ENCODING 8658
SWIDTH 1000 0
DWIDTH 12 0
BBX 12 12 0 -2
BITMAP
0000
0000
0000
0100
0080
FFC0
0020
FFC0
0080
0100
0000
0000
ENDCHAR
STARTCHAR u21D3
ENCODING 8659
SWIDTH 1000 0
DWIDTH 12 0
BBX 12 12 0 -2
BITMAP
0000
0A00
0A00
0A00
0A00
0A00
0A00
0A00
2A80
1B00
0A00
0400
ENDCHAR
STARTCHAR u21D4
ENCODING 8660
SWIDTH 1000 0
DWIDTH 12 0
BBX 12 12 0 -2
BITMAP
0000
0000
0000
1100
2080
7FC0
8020
7FC0
2080
1100
0000
0000
ENDCHAR
STARTCHAR u21D5
ENCODING 8661
SWIDTH 1000 0
DWIDTH 12 0
BBX 12 12 0 -2
BITMAP
0000
0400
0A00
1B00
2A80
0A00
0A00
0A00
2A80
1B00
0A00
0400
ENDCHAR
STARTCHAR u21D6
ENCODING 8662
SWIDTH 1000 0
DWIDTH 12 0
BBX 12 12 0 -2
BITMAP
0000
0000
7C00
5000
6800
5400
4A00
0500
0280
0140
0080
0000
ENDCHAR
STARTCHAR u21D7
ENCODING 8663
SWIDTH 1000 0
DWIDTH 12 0
BBX 12 12 0 -2
BITMAP
0000
0000
07C0
0140
02C0
0540
0A40
1400
2800
5000
2000
0000
ENDCHAR
STARTCHAR u21D8
ENCODING 8664
SWIDTH 1000 0
DWIDTH 12 0
BBX 12 12 0 -2
BITMAP
0000
0000
2000
5000
2800
1400
0A40
0540
02C0
0140
07C0
0000
ENDCHAR
STARTCHAR u21D9
ENCODING 8665
SWIDTH 1000 0
DWIDTH 12 0
BBX 12 12 0 -2
BITMAP
0000
0000
0080
0140
0280
0500
4A00
5400
6800
5000
7C00
0000
ENDCHAR
STARTCHAR u21DA
ENCODING 8666
SWIDTH 1000 0
DWIDTH 12 0
BBX 12 12 0 -2
BITMAP
0000
0000
0800
1000
3FE0
4000
FFE0
4000
3FE0
1000
0800
0000
ENDCHAR
STARTCHAR u21DB
ENCODING 8667
SWIDTH 1000 0
DWIDTH 12 0
BBX 12 12 0 -2
BITMAP
0000
0000
0200
0100
FF80
0040
FFE0
0040
FF80
0100
0200
0000
ENDCHAR
STARTCHAR u21DC
ENCODING 8668
SWIDTH 1000 0
DWIDTH 12 0
BBX 12 12 0 -2
BITMAP
0000
0000
0000
0000
2000
4200
F560
4880
2000
0000
0000
0000
ENDCHAR
STARTCHAR u21DD
ENCODING 8669
SWIDTH 1000 0
DWIDTH 12 0
BBX 12 12 0 -2
BITMAP
0000
0000
0000
0000
0080
0840
D5E0
2240
0080
0000
0000
0000
ENDCHAR
STARTCHAR u21DE
ENCODING 8670
SWIDTH 1000 0
DWIDTH 12 0
BBX 12 12 0 -2
BITMAP
0000
0400
0E00
1500
0400
0400
1F00
0400
1F00
0400
0400
0400
ENDCHAR
STARTCHAR u21DF
ENCODING 8671
SWIDTH 1000 0
DWIDTH 12 0
BBX 12 12 0 -2
BITMAP
0000
0400
0400
0400
1F00
0400
1F00
0400
0400
1500
0E00
0400
ENDCHAR
STARTCHAR u21E0
ENCODING 8672
SWIDTH 1000 0
DWIDTH 12 0
BBX 12 12 0 -2
BITMAP
0000
0000
0000
0000
2000
4000
F760
4000
2000
0000
0000
0000
ENDCHAR
STARTCHAR u21E1
ENCODING 8673
SWIDTH 1000 0
DWIDTH 12 0
BBX 12 12 0 -2
BITMAP
0000
0400
0E00
1500
0400
0000
0400
0400
0400
0000
0400
0400
ENDCHAR
STARTCHAR u21E2
ENCODING 8674
SWIDTH 1000 0
DWIDTH 12 0
BBX 12 12 0 -2
BITMAP
0000
0000
0000
0000
0080
0040
DDE0
0040
0080
0000
0000
0000
ENDCHAR
STARTCHAR u21E3
ENCODING 8675
SWIDTH 1000 0
DWIDTH 12 0
BBX 12 12 0 -2
BITMAP
0000
0400
0400
0000
0400
0400
0400
0000
0400
1500
0E00
0400
ENDCHAR
STARTCHAR u21E4
ENCODING 8676
SWIDTH 1000 0
DWIDTH 12 0
BBX 12 12 0 -2
BITMAP
0000
0000
0000
0000
8800
9000
BFE0
9000
8800
0000
0000
0000
ENDCHAR
STARTCHAR u21E5
ENCODING 8677
SWIDTH 1000 0
DWIDTH 12 0
BBX 12 12 0 -2
BITMAP
0000
0000
0000
0000
0220
0120
FFA0
0120
0220
0000
0000
0000
ENDCHAR
STARTCHAR u21E6
ENCODING 8678
SWIDTH 1000 0
DWIDTH 12 0
BBX 12 12 0 -2
BITMAP
0000
0000
0800
1800
2FE0
4020
8020
4020
2FE0
1800
0800
0000
ENDCHAR
STARTCHAR u21E7
ENCODING 8679
SWIDTH 1000 0
DWIDTH 12 0
BBX 12 12 0 -2
BITMAP
0000
0400
0A00
1100
2080
71C0
1100
1100
1100
1100
1100
1F00
ENDCHAR
STARTCHAR u21E8
ENCODING 8680
SWIDTH 1000 0
DWIDTH 12 0
BBX 12 12 0 -2
BITMAP
0000
0000
0200
0300
FE80
8040
8020
8040
FE80
0300
0200
0000
ENDCHAR
STARTCHAR u21E9
ENCODING 8681
SWIDTH 1000 0
DWIDTH 12 0
BBX 12 12 0 -2
BITMAP
0000
1F00
1100
1100
1100
1100
1100
71C0
2080
1100
0A00
0400
ENDCHAR
STARTCHAR u21EA
ENCODING 8682
SWIDTH 1000 0
DWIDTH 12 0
BBX 12 12 0 -2
BITMAP
0000
0400
0A00
1100
2080
71C0
1100
1F00
0000
1F00
1100
1F00
ENDCHAR
STARTCHAR u21EB
ENCODING 8683
SWIDTH 1000 0
DWIDTH 12 0
BBX 12 12 0 -2
BITMAP
0000
0400
0A00
1100
2080
71C0
1100
1100
1100
71C0
4040
7FC0
ENDCHAR
STARTCHAR u21EC
ENCODING 8684
SWIDTH 1000 0
DWIDTH 12 0
BBX 12 12 0 -2
BITMAP
0000
0400
0A00
1F00
2080
71C0
1100
1100
1100
71C0
4040
7FC0
ENDCHAR
STARTCHAR u21ED
ENCODING 8685
SWIDTH 1000 0
DWIDTH 12 0
BBX 12 12 0 -2
BITMAP
0000
0400
0E00
1500
2480
75C0
1500
1500
1500
75C0
4440
7FC0
ENDCHAR
STARTCHAR u21EE
ENCODING 8686
SWIDTH 1000 0
DWIDTH 12 0
BBX 12 12 0 -2
BITMAP
0000
0400
0A00
1500
2A80
5140
2080
71C0
1100
1100
1100
1F00
ENDCHAR
STARTCHAR u21EF
ENCODING 8687
SWIDTH 1000 0
DWIDTH 12 0
BBX 12 12 0 -2
BITMAP
0000
0400
0A00
1500
2A80
5140
2080
71C0
1100
71C0
4040
7FC0
ENDCHAR
STARTCHAR u21F0
ENCODING 8688
SWIDTH 1000 0
DWIDTH 12 0
BBX 12 12 0 -2
BITMAP
0000
0000
E200
A300
BE80
8040
8020
8040
BE80
A300
E200
0000
ENDCHAR
STARTCHAR u21F1
ENCODING 8689
SWIDTH 1000 0
DWIDTH 12 0
BBX 12 12 0 -2
BITMAP
0000
FFE0
8000
BE00
B000
A800
A400
A200
8100
8080
8040
8020
ENDCHAR
STARTCHAR u21F2
ENCODING 8690
SWIDTH 1000 0
DWIDTH 12 0
BBX 12 12 0 -2
BITMAP
0000
8020
4020
2020
1020
08A0
04A0
02A0
01A0
0FA0
0020
FFE0
ENDCHAR
STARTCHAR u21F3
ENCODING 8691
SWIDTH 1000 0
DWIDTH 12 0
BBX 12 12 0 -2
BITMAP
0000
0400
0A00
1100
3B80
0A00
0A00
0A00
3B80
1100
0A00
0400
ENDCHAR
STARTCHAR u21F4
ENCODING 8692
SWIDTH 1000 0
DWIDTH 12 0
BBX 12 12 0 -2
BITMAP
0000
0000
0000
0000
1880
2440
FFE0
2440
1880
0000
0000
0000
ENDCHAR
STARTCHAR u21F5
ENCODING 8693
SWIDTH 1000 0
DWIDTH 12 0
BBX 12 12 0 -2
BITMAP
0000
1100
1380
1540
1100
1100
1100
1100
1100
5500
3900
1100
ENDCHAR
STARTCHAR u21F6
ENCODING 8694
SWIDTH 1000 0
DWIDTH 12 0
BBX 12 12 0 -2
BITMAP
0000
0080
FFE0
0040
0080
0040
FFE0
0040
0080
0040
FFE0
0080
ENDCHAR
STARTCHAR u21F7
ENCODING 8695
SWIDTH 1000 0
DWIDTH 12 0
BBX 12 12 0 -2
BITMAP
0000
0000
0000
0000
2200
4200
FFE0
4200
2200
0000
0000
0000
ENDCHAR
STARTCHAR u21F8
ENCODING 8696
SWIDTH 1000 0
DWIDTH 12 0
BBX 12 12 0 -2
BITMAP
0000
0000
0000
0000
0880
0840
FFE0
0840
0880
0000
0000
0000
ENDCHAR
STARTCHAR u21F9
ENCODING 8697
SWIDTH 1000 0
DWIDTH 12 0
BBX 12 12 0 -2
BITMAP
0000
0000
0000
0000
2480
4440
FFE0
4440
2480
0000
0000
0000
ENDCHAR
STARTCHAR u21FA
ENCODING 8698
SWIDTH 1000 0
DWIDTH 12 0
BBX 12 12 0 -2
BITMAP
0000
0000
0000
0000
2500
4500
FFE0
4500
2500
0000
0000
0000
ENDCHAR
STARTCHAR u21FB
ENCODING 8699
SWIDTH 1000 0
DWIDTH 12 0
BBX 12 12 0 -2
BITMAP
0000
0000
0000
0000
1480
1440
FFE0
1440
1480
0000
0000
0000
ENDCHAR
STARTCHAR u21FC
ENCODING 8700
SWIDTH 1000 0
DWIDTH 12 0
BBX 12 12 0 -2
BITMAP
0000
0000
0000
0000
2A80
4A40
FFE0
4A40
2A80
0000
0000
0000
ENDCHAR
STARTCHAR u21FD
ENCODING 8701
SWIDTH 1000 0
DWIDTH 12 0
BBX 12 12 0 -2
BITMAP
0000
0000
0000
0000
2000
6000
BFE0
6000
2000
0000
0000
0000
ENDCHAR
STARTCHAR u21FE
ENCODING 8702
SWIDTH 1000 0
DWIDTH 12 0
BBX 12 12 0 -2
BITMAP
0000
0000
0000
0000
0080
00C0
FFA0
00C0
0080
0000
0000
0000
ENDCHAR
STARTCHAR u21FF
ENCODING 8703
SWIDTH 1000 0
DWIDTH 12 0
BBX 12 12 0 -2
BITMAP
0000
0000
0000
0000
2080
60C0
BFA0
60C0
2080
0000
0000
0000
ENDCHAR
STARTCHAR u230C
ENCODING 8972
SWIDTH 1000 0
DWIDTH 12 0
BBX 12 12 0 -2
BITMAP
0000
0000
0000
0000
0000
0000
01E0
0000
0400
0400
0400
0400
ENDCHAR
STARTCHAR u230D
ENCODING 8973
SWIDTH 1000 0
DWIDTH 12 0
BBX 12 12 0 -2
BITMAP
0000
0000
0000
0000
0000
0000
F000
0000
0400
0400
0400
0400
ENDCHAR
STARTCHAR u230E
ENCODING 8974
SWIDTH 1000 0
DWIDTH 12 0
BBX 12 12 0 -2
BITMAP
0000
0400
0400
0400
0400
0000
01E0
0000
0000
0000
0000
0000
ENDCHAR
STARTCHAR u230F
ENCODING 8975
SWIDTH 1000 0
DWIDTH 12 0
BBX 12 12 0 -2
BITMAP
0000
0400
0400
0400
0400
0000
F000
0000
0000
0000
0000
0000
ENDCHAR
STARTCHAR u2310
ENCODING 8976
SWIDTH 1000 0
DWIDTH 12 0
BBX 12 12 0 -2
BITMAP
0000
0000
0000
0000
0000
3F80
2000
2000
0000
0000
0000
0000
ENDCHAR
STARTCHAR u2311
ENCODING 8977
SWIDTH 1000 0
DWIDTH 12 0
BBX 12 12 0 -2
BITMAP
0000
0000
71C0
4E40
4040
2080
2080
2080
4040
4E40
71C0
0000
ENDCHAR
STARTCHAR u2312
ENCODING 8978
SWIDTH 1000 0
DWIDTH 12 0
BBX 12 12 0 -2
BITMAP
0000
0000
0000
0E00
3180
4040
4040
8020
8020
0000
0000
0000
ENDCHAR
STARTCHAR u2313
ENCODING 8979
SWIDTH 1000 0
DWIDTH 12 0
BBX 12 12 0 -2
BITMAP
0000
0000
0000
0E00
3180
4040
4040
8020
FFE0
0000
0000
0000
ENDCHAR
STARTCHAR u2314
ENCODING 8980
SWIDTH 1000 0
DWIDTH 12 0
BBX 12 12 0 -2
BITMAP
0000
0E00
3180
4040
4040
2080
2080
1100
1100
0A00
0A00
0400
ENDCHAR
STARTCHAR u2315
ENCODING 8981
SWIDTH 1000 0
DWIDTH 12 0
BBX 12 12 0 -2
BITMAP
0000
0000
0700
0880
1040
1040
1040
0880
1700
2000
4000
0000
ENDCHAR
STARTCHAR u2316
ENCODING 8982
SWIDTH 1000 0
DWIDTH 12 0
BBX 12 12 0 -2
BITMAP
0000
0400
0400
0E00
1500
2480
FFE0
2480
1500
0E00
0400
0400
ENDCHAR
STARTCHAR u2317
ENCODING 8983
SWIDTH 1000 0
DWIDTH 12 0
BBX 12 12 0 -2
BITMAP
0000
1100
1100
1100
FFE0
1100
1100
1100
FFE0
1100
1100
1100
ENDCHAR
STARTCHAR u2318
ENCODING 8984
SWIDTH 1000 0
DWIDTH 12 0
BBX 12 12 0 -2
BITMAP
0000
60C0
9120
9120
7FC0
1100
1100
1100
7FC0
9120
9120
60C0
ENDCHAR
STARTCHAR u2319
ENCODING 8985
SWIDTH 1000 0
DWIDTH 12 0
BBX 12 12 0 -2
BITMAP
0000
0000
0000
0000
0000
2000
2000
3F80
0000
0000
0000
0000
ENDCHAR
STARTCHAR u231A
ENCODING 8986
SWIDTH 1000 0
DWIDTH 12 0
BBX 12 12 0 -2
BITMAP
0000
0E00
0E00
1F00
2480
2480
2780
2080
2080
1F00
0E00
0E00
ENDCHAR
STARTCHAR u231B
ENCODING 8987
SWIDTH 1000 0
DWIDTH 12 0
BBX 12 12 0 -2
BITMAP
0000
7FC0
2080
2080
2080
1100
0A00
1F00
3F80
3F80
3F80
7FC0
ENDCHAR
STARTCHAR u231C
ENCODING 8988
SWIDTH 1000 0
DWIDTH 12 0
BBX 12 12 0 -2
BITMAP
0000
FC00
8000
8000
8000
8000
8000
0000
0000
0000
0000
0000
ENDCHAR
STARTCHAR u231D
ENCODING 8989
SWIDTH 1000 0
DWIDTH 12 0
BBX 12 12 0 -2
BITMAP
0000
07E0
0020
0020
0020
0020
0020
0000
0000
0000
0000
0000
ENDCHAR
STARTCHAR u231E
ENCODING 8990
SWIDTH 1000 0
DWIDTH 12 0
BBX 12 12 0 -2
BITMAP
0000
0000
0000
0000
0000
0000
8000
8000
8000
8000
8000
FC00
ENDCHAR
STARTCHAR u231F
ENCODING 8991
SWIDTH 1000 0
DWIDTH 12 0
BBX 12 12 0 -2
BITMAP
0000
0000
0000
0000
0000
0000
0020
0020
0020
0020
0020
07E0
ENDCHAR
STARTCHAR u23CE
ENCODING 9166
SWIDTH 1000 0
DWIDTH 12 0
BBX 12 12 0 -2
BITMAP
0000
00E0
00A0
00A0
00A0
18A0
28A0
4FA0
8020
4FC0
2800
1800
ENDCHAR
STARTCHAR u23CF
ENCODING 9167
SWIDTH 1000 0
DWIDTH 12 0
BBX 12 12 0 -2
BITMAP
0000
0000
0400
0E00
1F00
3F80
7FC0
0000
7FC0
7FC0
0000
0000
ENDCHAR
STARTCHAR u23E8
ENCODING 9192
SWIDTH 1000 0
DWIDTH 12 0
BBX 12 12 0 -2
BITMAP
0000
0000
0000
0000
0000
0000
1300
3480
1580
1680
1480
3B00
ENDCHAR
STARTCHAR u23E9
ENCODING 9193
SWIDTH 1000 0
DWIDTH 12 0
BBX 12 12 0 -2
BITMAP
0000
0000
0000
4200
6300
7380
7BC0
7380
6300
4200
0000
0000
ENDCHAR
STARTCHAR u23EA
ENCODING 9194
SWIDTH 1000 0
DWIDTH 12 0
BBX 12 12 0 -2
BITMAP
0000
0000
0000
0840
18C0
39C0
7BC0
39C0
18C0
0840
0000
0000
ENDCHAR
STARTCHAR u23EB
ENCODING 9195
SWIDTH 1000 0
DWIDTH 12 0
BBX 12 12 0 -2
BITMAP
0000
0000
0400
0E00
1F00
3F80
0000
0400
0E00
1F00
3F80
0000
ENDCHAR
STARTCHAR u23EC
ENCODING 9196
SWIDTH 1000 0
DWIDTH 12 0
BBX 12 12 0 -2
BITMAP
0000
0000
3F80
1F00
0E00
0400
0000
3F80
1F00
0E00
0400
0000
ENDCHAR
STARTCHAR u23ED
ENCODING 9197
SWIDTH 1000 0
DWIDTH 12 0
BBX 12 12 0 -2
BITMAP
0000
0000
0000
4440
6640
7740
7FC0
7740
6640
4440
0000
0000
ENDCHAR
STARTCHAR u23EE
ENCODING 9198
SWIDTH 1000 0
DWIDTH 12 0
BBX 12 12 0 -2
BITMAP
0000
0000
0000
4440
4CC0
5DC0
7FC0
5DC0
4CC0
4440
0000
0000
ENDCHAR
STARTCHAR u23EF
ENCODING 9199
SWIDTH 1000 0
DWIDTH 12 0
BBX 12 12 0 -2
BITMAP
0000
0000
0000
2140
3140
3940
3D40
3940
3140
2140
0000
0000
ENDCHAR
STARTCHAR u23F0
ENCODING 9200
SWIDTH 1000 0
DWIDTH 12 0
BBX 12 12 0 -2
BITMAP
0000
64C0
DF60
A0A0
4440
4440
4440
4840
5040
2080
3F80
60C0
ENDCHAR
STARTCHAR u23F1
ENCODING 9201
SWIDTH 1000 0
DWIDTH 12 0
BBX 12 12 0 -2
BITMAP
0000
0E00
1F40
2080
4440
4440
4440
4040
4040
2080
1F00
0000
ENDCHAR
STARTCHAR u23F2
ENCODING 9202
SWIDTH 1000 0
DWIDTH 12 0
BBX 12 12 0 -2
BITMAP
0000
0000
1F00
2080
4040
4040
4740
4040
4040
2080
1F00
0000
ENDCHAR
STARTCHAR u23F3
ENCODING 9203
SWIDTH 1000 0
DWIDTH 12 0
BBX 12 12 0 -2
BITMAP
0000
7FC0
2080
2080
3F80
1F00
0E00
1500
2480
3F80
3F80
7FC0
ENDCHAR
STARTCHAR u23F4
ENCODING 9204
SWIDTH 1000 0
DWIDTH 12 0
BBX 12 12 0 -2
BITMAP
0000
0000
0000
0200
0600
0E00
1E00
0E00
0600
0200
0000
0000
ENDCHAR
STARTCHAR u23F5
ENCODING 9205
SWIDTH 1000 0
DWIDTH 12 0
BBX 12 12 0 -2
BITMAP
0000
0000
0000
0800
0C00
0E00
0F00
0E00
0C00
0800
0000
0000
ENDCHAR
STARTCHAR u23F6
ENCODING 9206
SWIDTH 1000 0
DWIDTH 12 0
BBX 12 12 0 -2
BITMAP
0000
0000
0000
0000
0400
0E00
1F00
3F80
0000
0000
0000
0000
ENDCHAR
STARTCHAR u23F7
ENCODING 9207
SWIDTH 1000 0
DWIDTH 12 0
BBX 12 12 0 -2
BITMAP
0000
0000
0000
0000
0000
3F80
1F00
0E00
0400
0000
0000
0000
ENDCHAR
STARTCHAR u23F8
ENCODING 9208
SWIDTH 1000 0
DWIDTH 12 0
BBX 12 12 0 -2
BITMAP
0000
0000
0000
0000
1B00
1B00
1B00
1B00
1B00
0000
0000
0000
ENDCHAR
STARTCHAR u23F9
ENCODING 9209
SWIDTH 1000 0
DWIDTH 12 0
BBX 12 12 0 -2
BITMAP
0000
0000
0000
0000
1F00
1F00
1F00
1F00
1F00
0000
0000
0000
ENDCHAR
STARTCHAR u23FA
ENCODING 9210
SWIDTH 1000 0
DWIDTH 12 0
BBX 12 12 0 -2
BITMAP
0000
0000
0000
0000
0E00
1F00
1F00
1F00
0E00
0000
0000
0000
ENDCHAR
STARTCHAR u23FB
ENCODING 9211
SWIDTH 1000 0
DWIDTH 12 0
BBX 12 12 0 -2
BITMAP
0000
0400
1500
2480
4440
4440
4440
4040
4040
2080
1F00
0000
ENDCHAR
STARTCHAR u23FC
ENCODING 9212
SWIDTH 1000 0
DWIDTH 12 0
BBX 12 12 0 -2
BITMAP
0000
0000
1F00
2080
4440
4440
4440
4440
4440
2080
1F00
0000
ENDCHAR
STARTCHAR u23FD
ENCODING 9213
SWIDTH 1000 0
DWIDTH 12 0
BBX 12 12 0 -2
BITMAP
0000
0000
0000
0400
0400
0400
0400
0400
0400
0400
0000
0000
ENDCHAR
STARTCHAR u23FE
ENCODING 9214
SWIDTH 1000 0
DWIDTH 12 0
BBX 12 12 0 -2
BITMAP
0000
0E00
3C00
7800
7000
F000
F000
F000
7800
7C20
3FC0
0F80
ENDCHAR
STARTCHAR u23FF
ENCODING 9215
SWIDTH 1000 0
DWIDTH 12 0
BBX 12 12 0 -2
BITMAP
0000
0000
00E0
0340
0CA0
30A0
C0A0
30A0
0CA0
0340
00E0
0000
ENDCHAR
STARTCHAR u2460
ENCODING 9312
SWIDTH 1000 0
DWIDTH 12 0
BBX 12 12 0 -2
BITMAP
0000
0E00
3180
4440
4C40
8420
8420
8420
4440
4E40
3180
0E00
ENDCHAR
STARTCHAR u2461
ENCODING 9313
SWIDTH 1000 0
DWIDTH 12 0
BBX 12 12 0 -2
BITMAP
0000
0E00
3180
4E40
5140
8120
8620
8820
5040
5F40
3180
0E00
ENDCHAR
STARTCHAR u2462
ENCODING 9314
SWIDTH 1000 0
DWIDTH 12 0
BBX 12 12 0 -2
BITMAP
0000
0E00
3180
4E40
5140
8120
8620
8120
5140
4E40
3180
0E00
ENDCHAR
STARTCHAR u2463
ENCODING 9315
SWIDTH 1000 0
DWIDTH 12 0
BBX 12 12 0 -2
BITMAP
0000
0E00
3180
4640
4A40
8A20
9220
9220
5F40
4240
3180
0E00
ENDCHAR
STARTCHAR u2464
ENCODING 9316
SWIDTH 1000 0
DWIDTH 12 0
BBX 12 12 0 -2
BITMAP
0000
0E00
3180
5F40
5040
9020
9E20
8120
4140
5E40
3180
0E00
ENDCHAR
STARTCHAR u2465
ENCODING 9317
SWIDTH 1000 0
DWIDTH 12 0
BBX 12 12 0 -2
BITMAP
0000
0E00
3180
4E40
5140
9020
9E20
9120
5140
4E40
3180
0E00
ENDCHAR
STARTCHAR u2466
ENCODING 9318
SWIDTH 1000 0
DWIDTH 12 0
BBX 12 12 0 -2
BITMAP
0000
0E00
3180
5F40
4140
8220
8220
8420
4440
4440
3180
0E00
ENDCHAR
STARTCHAR u2467
ENCODING 9319
SWIDTH 1000 0
DWIDTH 12 0
BBX 12 12 0 -2
BITMAP
0000
0E00
3180
4E40
5140
9120
8E20
9120
5140
4E40
3180
0E00
ENDCHAR
STARTCHAR u2468
ENCODING 9320
SWIDTH 1000 0
DWIDTH 12 0
BBX 12 12 0 -2
BITMAP
0000
0E00
3180
4E40
5140
9120
8F20
8120
5140
4E40
3180
0E00
ENDCHAR
STARTCHAR u2469
ENCODING 9321
SWIDTH 1000 0
DWIDTH 12 0
BBX 12 12 0 -2
BITMAP
0000
0E00
3180
5340
74C0
94A0
94A0
94A0
54C0
5340
3180
0E00
ENDCHAR
STARTCHAR u246A
ENCODING 9322
SWIDTH 1000 0
DWIDTH 12 0
BBX 12 12 0 -2
BITMAP
0000
0E00
3180
5140
7340
9120
9120
9120
5140
5140
3180
0E00
ENDCHAR
STARTCHAR u246B
ENCODING 9323
SWIDTH 1000 0
DWIDTH 12 0
BBX 12 12 0 -2
BITMAP
0000
0E00
3180
5340
74C0
90A0
9120
9220
5440
57C0
3180
0E00
ENDCHAR
STARTCHAR u246C
ENCODING 9324
SWIDTH 1000 0
DWIDTH 12 0
BBX 12 12 0 -2
BITMAP
0000
0E00
3180
5340
74C0
90A0
9120
90A0
54C0
5340
3180
0E00
ENDCHAR
STARTCHAR u246D
ENCODING 9325
SWIDTH 1000 0
DWIDTH 12 0
BBX 12 12 0 -2
BITMAP
0000
0E00
3180
5140
7340
9320
9520
9520
57C0
5140
3180
0E00
ENDCHAR
STARTCHAR u246E
ENCODING 9326
SWIDTH 1000 0
DWIDTH 12 0
BBX 12 12 0 -2
BITMAP
0000
0E00
3180
57C0
7440
9420
9720
90A0
50C0
5740
3180
0E00
ENDCHAR
STARTCHAR u246F
ENCODING 9327
SWIDTH 1000 0
DWIDTH 12 0
BBX 12 12 0 -2
BITMAP
0000
0E00
3180
5340
74C0
9420
9720
94A0
54C0
5340
3180
0E00
ENDCHAR
STARTCHAR u2470
ENCODING 9328
SWIDTH 1000 0
DWIDTH 12 0
BBX 12 12 0 -2
BITMAP
0000
0E00
3180
57C0
70C0
90A0
9120
9120
5140
5140
3180
0E00
ENDCHAR
STARTCHAR u2471
ENCODING 9329
SWIDTH 1000 0
DWIDTH 12 0
BBX 12 12 0 -2
BITMAP
0000
0E00
3180
5340
74C0
94A0
9320
94A0
54C0
5340
3180
0E00
ENDCHAR
STARTCHAR u2472
ENCODING 9330
SWIDTH 1000 0
DWIDTH 12 0
BBX 12 12 0 -2
BITMAP
0000
0E00
3180
5340
74C0
94A0
93A0
90A0
54C0
5340
3180
0E00
ENDCHAR
STARTCHAR u2473
ENCODING 9331
SWIDTH 1000 0
DWIDTH 12 0
BBX 12 12 0 -2
BITMAP
0000
0E00
3180
5140
6AC0
8AA0
8AA0
92A0
62C0
7940
3180
0E00
ENDCHAR
STARTCHAR u2474
ENCODING 9332
SWIDTH 1000 0
DWIDTH 12 0
BBX 12 12 0 -2
BITMAP
0000
2080
4040
4440
8C20
8420
8420
8420
8420
4E40
4040
2080
ENDCHAR
STARTCHAR u2475
ENCODING 9333
SWIDTH 1000 0
DWIDTH 12 0
BBX 12 12 0 -2
BITMAP
0000
2080
4040
4E40
9120
8120
8620
8820
9020
5F40
4040
2080
ENDCHAR
STARTCHAR u2476
ENCODING 9334
SWIDTH 1000 0
DWIDTH 12 0
BBX 12 12 0 -2
BITMAP
0000
2080
4040
4E40
9120
8120
8620
8120
9120
4E40
4040
2080
ENDCHAR
STARTCHAR u2477
ENCODING 9335
SWIDTH 1000 0
DWIDTH 12 0
BBX 12 12 0 -2
BITMAP
0000
2080
4040
4640
8A20
8A20
9220
9220
9F20
4240
4040
2080
ENDCHAR
STARTCHAR u2478
ENCODING 9336
SWIDTH 1000 0
DWIDTH 12 0
BBX 12 12 0 -2
BITMAP
0000
2080
4040
5F40
9020
9020
9E20
8120
8120
5E40
4040
2080
ENDCHAR
STARTCHAR u2479
ENCODING 9337
SWIDTH 1000 0
DWIDTH 12 0
BBX 12 12 0 -2
BITMAP
0000
2080
4040
4E40
9120
9020
9E20
9120
9120
4E40
4040
2080
ENDCHAR
STARTCHAR u247A
ENCODING 9338
SWIDTH 1000 0
DWIDTH 12 0
BBX 12 12 0 -2
BITMAP
0000
2080
4040
5F40
8120
8220
8220
8420
8420
4440
4040
2080
ENDCHAR
STARTCHAR u247B
ENCODING 9339
SWIDTH 1000 0
DWIDTH 12 0
BBX 12 12 0 -2
BITMAP
0000
2080
4040
4E40
9120
9120
8E20
9120
9120
4E40
4040
2080
ENDCHAR
STARTCHAR u247C
ENCODING 9340
SWIDTH 1000 0
DWIDTH 12 0
BBX 12 12 0 -2
BITMAP
0000
2080
4040
4E40
9120
9120
8F20
8120
9120
4E40
4040
2080
ENDCHAR
STARTCHAR u247D
ENCODING 9341
SWIDTH 1000 0
DWIDTH 12 0
BBX 12 12 0 -2
BITMAP
0000
2080
4040
5340
B4A0
94A0
94A0
94A0
94A0
5340
4040
2080
ENDCHAR
STARTCHAR u247E
ENCODING 9342
SWIDTH 1000 0
DWIDTH 12 0
BBX 12 12 0 -2
BITMAP
0000
2080
4040
5140
B320
9120
9120
9120
9120
5140
4040
2080
ENDCHAR
STARTCHAR u247F
ENCODING 9343
SWIDTH 1000 0
DWIDTH 12 0
BBX 12 12 0 -2
BITMAP
0000
2080
4040
5340
B4A0
90A0
9120
9220
9420
57C0
4040
2080
ENDCHAR
STARTCHAR u2480
ENCODING 9344
SWIDTH 1000 0
DWIDTH 12 0
BBX 12 12 0 -2
BITMAP
0000
2080
4040
5340
B4A0
90A0
9120
90A0
94A0
5340
4040
2080
ENDCHAR
STARTCHAR u2481
ENCODING 9345
SWIDTH 1000 0
DWIDTH 12 0
BBX 12 12 0 -2
BITMAP
0000
2080
4040
5140
B320
9320
9520
9520
97A0
5140
4040
2080
ENDCHAR
STARTCHAR u2482
ENCODING 9346
SWIDTH 1000 0
DWIDTH 12 0
BBX 12 12 0 -2
BITMAP
0000
2080
4040
57C0
B420
9420
9720
90A0
90A0
5740
4040
2080
ENDCHAR
STARTCHAR u2483
ENCODING 9347
SWIDTH 1000 0
DWIDTH 12 0
BBX 12 12 0 -2
BITMAP
0000
2080
4040
5340
B4A0
9420
9720
94A0
94A0
5340
4040
2080
ENDCHAR
STARTCHAR u2484
ENCODING 9348
SWIDTH 1000 0
DWIDTH 12 0
BBX 12 12 0 -2
BITMAP
0000
2080
4040
57C0
B0A0
90A0
9120
9120
9120
5140
4040
2080
ENDCHAR
STARTCHAR u2485
ENCODING 9349
SWIDTH 1000 0
DWIDTH 12 0
BBX 12 12 0 -2
BITMAP
0000
2080
4040
5340
B4A0
94A0
9320
94A0
94A0
5340
4040
2080
ENDCHAR
STARTCHAR u2486
ENCODING 9350
SWIDTH 1000 0
DWIDTH 12 0
BBX 12 12 0 -2
BITMAP
0000
2080
4040
5340
B4A0
94A0
93A0
90A0
94A0
5340
4040
2080
ENDCHAR
STARTCHAR u2487
ENCODING 9351
SWIDTH 1000 0
DWIDTH 12 0
BBX 12 12 0 -2
BITMAP
0000
2080
4040
5140
AAA0
8AA0
8AA0
92A0
A2A0
7940
4040
2080
ENDCHAR
STARTCHAR u2488
ENCODING 9352
SWIDTH 1000 0
DWIDTH 12 0
BBX 12 12 0 -2
BITMAP
0000
0000
0800
3800
0800
0800
0800
0800
0800
3E80
0000
0000
ENDCHAR
STARTCHAR u2489
ENCODING 9353
SWIDTH 1000 0
DWIDTH 12 0
BBX 12 12 0 -2
BITMAP
0000
0000
1C00
2200
0200
0400
0800
1000
2000
3E80
0000
0000
ENDCHAR
STARTCHAR u248A
ENCODING 9354
SWIDTH 1000 0
DWIDTH 12 0
BBX 12 12 0 -2
BITMAP
0000
0000
1C00
2200
0200
0C00
0200
0200
2200
1C80
0000
0000
ENDCHAR
STARTCHAR u248B
ENCODING 9355
SWIDTH 1000 0
DWIDTH 12 0
BBX 12 12 0 -2
BITMAP
0000
0000
0C00
1400
1400
2400
2400
3E00
0400
0480
0000
0000
ENDCHAR
STARTCHAR u248C
ENCODING 9356
SWIDTH 1000 0
DWIDTH 12 0
BBX 12 12 0 -2
BITMAP
0000
0000
3E00
2000
2000
3C00
0200
0200
2200
1C80
0000
0000
ENDCHAR
STARTCHAR u248D
ENCODING 9357
SWIDTH 1000 0
DWIDTH 12 0
BBX 12 12 0 -2
BITMAP
0000
0000
1C00
2200
2000
3C00
2200
2200
2200
1C80
0000
0000
ENDCHAR
STARTCHAR u248E
ENCODING 9358
SWIDTH 1000 0
DWIDTH 12 0
BBX 12 12 0 -2
BITMAP
0000
0000
3E00
0200
0200
0400
0400
0800
0800
0880
0000
0000
ENDCHAR
STARTCHAR u248F
ENCODING 9359
SWIDTH 1000 0
DWIDTH 12 0
BBX 12 12 0 -2
BITMAP
0000
0000
1C00
2200
2200
1C00
2200
2200
2200
1C80
0000
0000
ENDCHAR
STARTCHAR u2490
ENCODING 9360
SWIDTH 1000 0
DWIDTH 12 0
BBX 12 12 0 -2
BITMAP
0000
0000
1C00
2200
2200
2200
1E00
0200
2200
1C80
0000
0000
ENDCHAR
STARTCHAR u2491
ENCODING 9361
SWIDTH 1000 0
DWIDTH 12 0
BBX 12 12 0 -2
BITMAP
0000
0000
4700
C880
4980
4A80
4A80
4C80
4880
E720
0000
0000
ENDCHAR
STARTCHAR u2492
ENCODING 9362
SWIDTH 1000 0
DWIDTH 12 0
BBX 12 12 0 -2
BITMAP
0000
0000
4200
C600
4200
4200
4200
4200
4200
E720
0000
0000
ENDCHAR
STARTCHAR u2493
ENCODING 9363
SWIDTH 1000 0
DWIDTH 12 0
BBX 12 12 0 -2
BITMAP
0000
0000
4700
C880
4080
4080
4300
4400
4800
EFA0
0000
0000
ENDCHAR
STARTCHAR u2494
ENCODING 9364
SWIDTH 1000 0
DWIDTH 12 0
BBX 12 12 0 -2
BITMAP
0000
0000
4700
C880
4080
4300
4080
4080
4880
E720
0000
0000
ENDCHAR
STARTCHAR u2495
ENCODING 9365
SWIDTH 1000 0
DWIDTH 12 0
BBX 12 12 0 -2
BITMAP
0000
0000
4300
C500
4500
4900
4900
4F80
4100
E120
0000
0000
ENDCHAR
STARTCHAR u2496
ENCODING 9366
SWIDTH 1000 0
DWIDTH 12 0
BBX 12 12 0 -2
BITMAP
0000
0000
4F80
C800
4800
4F00
4080
4080
4880
E720
0000
0000
ENDCHAR
STARTCHAR u2497
ENCODING 9367
SWIDTH 1000 0
DWIDTH 12 0
BBX 12 12 0 -2
BITMAP
0000
0000
4700
C880
4800
4F00
4880
4880
4880
E720
0000
0000
ENDCHAR
STARTCHAR u2498
ENCODING 9368
SWIDTH 1000 0
DWIDTH 12 0
BBX 12 12 0 -2
BITMAP
0000
0000
4F80
C080
4100
4100
4200
4200
4200
E220
0000
0000
ENDCHAR
STARTCHAR u2499
ENCODING 9369
SWIDTH 1000 0
DWIDTH 12 0
BBX 12 12 0 -2
BITMAP
0000
0000
4700
C880
4880
4700
4880
4880
4880
E720
0000
0000
ENDCHAR
STARTCHAR u249A
ENCODING 9370
SWIDTH 1000 0
DWIDTH 12 0
BBX 12 12 0 -2
BITMAP
0000
0000
4700
C880
4880
4880
4780
4080
4880
E720
0000
0000
ENDCHAR
STARTCHAR u249B
ENCODING 9371
SWIDTH 1000 0
DWIDTH 12 0
BBX 12 12 0 -2
BITMAP
0000
0000
6300
9480
1480
1580
2680
4480
8480
F320
0000
0000
ENDCHAR
STARTCHAR u249C
ENCODING 9372
SWIDTH 1000 0
DWIDTH 12 0
BBX 12 12 0 -2
BITMAP
0000
2080
4040
4040
8E20
8120
8F20
9120
8F20
4040
4040
2080
ENDCHAR
STARTCHAR u249D
ENCODING 9373
SWIDTH 1000 0
DWIDTH 12 0
BBX 12 12 0 -2
BITMAP
0000
2080
4040
5040
9020
9E20
9120
9120
9120
5E40
4040
2080
ENDCHAR
STARTCHAR u249E
ENCODING 9374
SWIDTH 1000 0
DWIDTH 12 0
BBX 12 12 0 -2
BITMAP
0000
2080
4040
4040
8E20
9120
9020
9120
8E20
4040
4040
2080
ENDCHAR
STARTCHAR u249F
ENCODING 9375
SWIDTH 1000 0
DWIDTH 12 0
BBX 12 12 0 -2
BITMAP
0000
2080
4040
4140
8120
8F20
9120
9120
9120
4F40
4040
2080
ENDCHAR
STARTCHAR u24A0
ENCODING 9376
SWIDTH 1000 0
DWIDTH 12 0
BBX 12 12 0 -2
BITMAP
0000
2080
4040
4040
8E20
9120
9F20
9020
8E20
4040
4040
2080
ENDCHAR
STARTCHAR u24A1
ENCODING 9377
SWIDTH 1000 0
DWIDTH 12 0
BBX 12 12 0 -2
BITMAP
0000
2080
4040
4340
8420
9F20
8420
8420
8420
4440
4040
2080
ENDCHAR
STARTCHAR u24A2
ENCODING 9378
SWIDTH 1000 0
DWIDTH 12 0
BBX 12 12 0 -2
BITMAP
0000
2080
4040
4F40
9120
9120
9120
8F20
8120
4E40
4040
2080
ENDCHAR
STARTCHAR u24A3
ENCODING 9379
SWIDTH 1000 0
DWIDTH 12 0
BBX 12 12 0 -2
BITMAP
0000
2080
4040
5040
9020
9620
9920
9120
9120
5140
4040
2080
ENDCHAR
STARTCHAR u24A4
ENCODING 9380
SWIDTH 1000 0
DWIDTH 12 0
BBX 12 12 0 -2
BITMAP
0000
2080
4040
4440
8020
8C20
8420
8420
8420
4E40
4040
2080
ENDCHAR
STARTCHAR u24A5
ENCODING 9381
SWIDTH 1000 0
DWIDTH 12 0
BBX 12 12 0 -2
BITMAP
0000
2080
4240
4040
8E20
8220
8220
8220
8220
4240
4C40
2080
ENDCHAR
STARTCHAR u24A6
ENCODING 9382
SWIDTH 1000 0
DWIDTH 12 0
BBX 12 12 0 -2
BITMAP
0000
2080
4040
5040
9020
9120
9620
9820
9620
5140
4040
2080
ENDCHAR
STARTCHAR u24A7
ENCODING 9383
SWIDTH 1000 0
DWIDTH 12 0
BBX 12 12 0 -2
BITMAP
0000
2080
4040
4C40
8420
8420
8420
8420
8420
4640
4040
2080
ENDCHAR
STARTCHAR u24A8
ENCODING 9384
SWIDTH 1000 0
DWIDTH 12 0
BBX 12 12 0 -2
BITMAP
0000
2080
4040
4040
9A20
9520
9520
9520
9520
4040
4040
2080
ENDCHAR
STARTCHAR u24A9
ENCODING 9385
SWIDTH 1000 0
DWIDTH 12 0
BBX 12 12 0 -2
BITMAP
0000
2080
4040
4040
9620
9920
9120
9120
9120
4040
4040
2080
ENDCHAR
STARTCHAR u24AA
ENCODING 9386
SWIDTH 1000 0
DWIDTH 12 0
BBX 12 12 0 -2
BITMAP
0000
2080
4040
4040
8E20
9120
9120
9120
8E20
4040
4040
2080
ENDCHAR
STARTCHAR u24AB
ENCODING 9387
SWIDTH 1000 0
DWIDTH 12 0
BBX 12 12 0 -2
BITMAP
0000
2080
4040
5E40
9120
9120
9120
9E20
9020
5040
4040
2080
ENDCHAR
STARTCHAR u24AC
ENCODING 9388
SWIDTH 1000 0
DWIDTH 12 0
BBX 12 12 0 -2
BITMAP
0000
2080
4040
4F40
9120
9120
9120
8F20
8120
4140
4040
2080
ENDCHAR
STARTCHAR u24AD
ENCODING 9389
SWIDTH 1000 0
DWIDTH 12 0
BBX 12 12 0 -2
BITMAP
0000
2080
4040
4040
8B20
8C20
8820
8820
8820
4040
4040
2080
ENDCHAR
STARTCHAR u24AE
ENCODING 9390
SWIDTH 1000 0
DWIDTH 12 0
BBX 12 12 0 -2
BITMAP
0000
2080
4040
4040
8F20
9020
8E20
8120
9E20
4040
4040
2080
ENDCHAR
STARTCHAR u24AF
ENCODING 9391
SWIDTH 1000 0
DWIDTH 12 0
BBX 12 12 0 -2
BITMAP
0000
2080
4040
4440
8420
9F20
8420
8420
8420
4340
4040
2080
ENDCHAR
STARTCHAR u24B0
ENCODING 9392
SWIDTH 1000 0
DWIDTH 12 0
BBX 12 12 0 -2
BITMAP
0000
2080
4040
4040
9120
9120
9120
9320
8D20
4040
4040
2080
ENDCHAR
STARTCHAR u24B1
ENCODING 9393
SWIDTH 1000 0
DWIDTH 12 0
BBX 12 12 0 -2
BITMAP
0000
2080
4040
4040
9120
9120
8A20
8A20
8420
4040
4040
2080
ENDCHAR
STARTCHAR u24B2
ENCODING 9394
SWIDTH 1000 0
DWIDTH 12 0
BBX 12 12 0 -2
BITMAP
0000
2080
4040
4040
9520
9520
9520
8A20
8A20
4040
4040
2080
ENDCHAR
STARTCHAR u24B3
ENCODING 9395
SWIDTH 1000 0
DWIDTH 12 0
BBX 12 12 0 -2
BITMAP
0000
2080
4040
4040
9120
8A20
8420
8A20
9120
4040
4040
2080
ENDCHAR
STARTCHAR u24B4
ENCODING 9396
SWIDTH 1000 0
DWIDTH 12 0
BBX 12 12 0 -2
BITMAP
0000
2080
4040
4040
9120
9120
8A20
8A20
8420
4440
5840
2080
ENDCHAR
STARTCHAR u24B5
ENCODING 9397
SWIDTH 1000 0
DWIDTH 12 0
BBX 12 12 0 -2
BITMAP
0000
2080
4040
4040
9F20
8220
8420
8820
9F20
4040
4040
2080
ENDCHAR
STARTCHAR u24B6
ENCODING 9398
SWIDTH 1000 0
DWIDTH 12 0
BBX 12 12 0 -2
BITMAP
0000
0E00
3180
4440
4440
8A20
8A20
8E20
5140
5140
3180
0E00
ENDCHAR
STARTCHAR u24B7
ENCODING 9399
SWIDTH 1000 0
DWIDTH 12 0
BBX 12 12 0 -2
BITMAP
0000
0E00
3180
5E40
5140
9120
9E20
9120
5140
5E40
3180
0E00
ENDCHAR
STARTCHAR u24B8
ENCODING 9400
SWIDTH 1000 0
DWIDTH 12 0
BBX 12 12 0 -2
BITMAP
0000
0E00
3180
4E40
5140
9020
9020
9020
5140
4E40
3180
0E00
ENDCHAR
STARTCHAR u24B9
ENCODING 9401
SWIDTH 1000 0
DWIDTH 12 0
BBX 12 12 0 -2
BITMAP
0000
0E00
3180
5E40
5140
9120
9120
9120
5140
5E40
3180
0E00
ENDCHAR
STARTCHAR u24BA
ENCODING 9402
SWIDTH 1000 0
DWIDTH 12 0
BBX 12 12 0 -2
BITMAP
0000
0E00
3180
5F40
5040
9020
9E20
9020
5040
5F40
3180
0E00
ENDCHAR
STARTCHAR u24BB
ENCODING 9403
SWIDTH 1000 0
DWIDTH 12 0
BBX 12 12 0 -2
BITMAP
0000
0E00
3180
5F40
5040
9020
9E20
9020
5040
5040
3180
0E00
ENDCHAR
STARTCHAR u24BC
ENCODING 9404
SWIDTH 1000 0
DWIDTH 12 0
BBX 12 12 0 -2
BITMAP
0000
0E00
3180
4E40
5140
9020
9020
9320
5140
4F40
3180
0E00
ENDCHAR
STARTCHAR u24BD
ENCODING 9405
SWIDTH 1000 0
DWIDTH 12 0
BBX 12 12 0 -2
BITMAP
0000
0E00
3180
5140
5140
9120
9F20
9120
5140
5140
3180
0E00
ENDCHAR
STARTCHAR u24BE
ENCODING 9406
SWIDTH 1000 0
DWIDTH 12 0
BBX 12 12 0 -2
BITMAP
0000
0E00
3180
4E40
4440
8420
8420
8420
4440
4E40
3180
0E00
ENDCHAR
STARTCHAR u24BF
ENCODING 9407
SWIDTH 1000 0
DWIDTH 12 0
BBX 12 12 0 -2
BITMAP
0000
0E00
3180
4140
4140
8120
8120
9120
5140
4E40
3180
0E00
ENDCHAR
STARTCHAR u24C0
ENCODING 9408
SWIDTH 1000 0
DWIDTH 12 0
BBX 12 12 0 -2
BITMAP
0000
0E00
3180
5140
5240
9420
9820
9420
5240
5140
3180
0E00
ENDCHAR
STARTCHAR u24C1
ENCODING 9409
SWIDTH 1000 0
DWIDTH 12 0
BBX 12 12 0 -2
BITMAP
0000
0E00
3180
5040
5040
9020
9020
9020
5040
5F40
3180
0E00
ENDCHAR
STARTCHAR u24C2
ENCODING 9410
SWIDTH 1000 0
DWIDTH 12 0
BBX 12 12 0 -2
BITMAP
0000
0E00
3180
5140
5B40
9B20
9520
9520
5140
5140
3180
0E00
ENDCHAR
STARTCHAR u24C3
ENCODING 9411
SWIDTH 1000 0
DWIDTH 12 0
BBX 12 12 0 -2
BITMAP
0000
0E00
3180
5140
5940
9520
9520
9320
5140
5140
3180
0E00
ENDCHAR
STARTCHAR u24C4
ENCODING 9412
SWIDTH 1000 0
DWIDTH 12 0
BBX 12 12 0 -2
BITMAP
0000
0E00
3180
4E40
5140
9120
9120
9120
5140
4E40
3180
0E00
ENDCHAR
STARTCHAR u24C5
ENCODING 9413
SWIDTH 1000 0
DWIDTH 12 0
BBX 12 12 0 -2
BITMAP
0000
0E00
3180
5E40
5140
9120
9E20
9020
5040
5040
3180
0E00
ENDCHAR
STARTCHAR u24C6
ENCODING 9414
SWIDTH 1000 0
DWIDTH 12 0
BBX 12 12 0 -2
BITMAP
0000
0E00
3180
4E40
5140
9120
9120
9520
5240
4D40
3380
0E00
ENDCHAR
STARTCHAR u24C7
ENCODING 9415
SWIDTH 1000 0
DWIDTH 12 0
BBX 12 12 0 -2
BITMAP
0000
0E00
3180
5E40
5140
9120
9E20
9420
5240
5140
3180
0E00
ENDCHAR
STARTCHAR u24C8
ENCODING 9416
SWIDTH 1000 0
DWIDTH 12 0
BBX 12 12 0 -2
BITMAP
0000
0E00
3180
4E40
5140
9020
8E20
8120
5140
4E40
3180
0E00
ENDCHAR
STARTCHAR u24C9
ENCODING 9417
SWIDTH 1000 0
DWIDTH 12 0
BBX 12 12 0 -2
BITMAP
0000
0E00
3180
5F40
4440
8420
8420
8420
4440
4440
3180
0E00
ENDCHAR
STARTCHAR u24CA
ENCODING 9418
SWIDTH 1000 0
DWIDTH 12 0
BBX 12 12 0 -2
BITMAP
0000
0E00
3180
5140
5140
9120
9120
9120
5140
4E40
3180
0E00
ENDCHAR
STARTCHAR u24CB
ENCODING 9419
SWIDTH 1000 0
DWIDTH 12 0
BBX 12 12 0 -2
BITMAP
0000
0E00
3180
5140
5140
9120
8A20
8A20
4440
4440
3180
0E00
ENDCHAR
STARTCHAR u24CC
ENCODING 9420
SWIDTH 1000 0
DWIDTH 12 0
BBX 12 12 0 -2
BITMAP
0000
0E00
3180
5540
5540
9520
9520
8A20
4A40
4A40
3180
0E00
ENDCHAR
STARTCHAR u24CD
ENCODING 9421
SWIDTH 1000 0
DWIDTH 12 0
BBX 12 12 0 -2
BITMAP
0000
0E00
3180
5140
5140
8A20
8420
8A20
5140
5140
3180
0E00
ENDCHAR
STARTCHAR u24CE
ENCODING 9422
SWIDTH 1000 0
DWIDTH 12 0
BBX 12 12 0 -2
BITMAP
0000
0E00
3180
5140
5140
8A20
8A20
8420
4440
4440
3180
0E00
ENDCHAR
STARTCHAR u24CF
ENCODING 9423
SWIDTH 1000 0
DWIDTH 12 0
BBX 12 12 0 -2
BITMAP
0000
0E00
3180
5F40
4140
8220
8420
8820
5040
5F40
3180
0E00
ENDCHAR
STARTCHAR u24D0
ENCODING 9424
SWIDTH 1000 0
DWIDTH 12 0
BBX 12 12 0 -2
BITMAP
0000
0E00
3180
4040
4E40
8120
8F20
9120
4F40
4040
3180
0E00
ENDCHAR
STARTCHAR u24D1
ENCODING 9425
SWIDTH 1000 0
DWIDTH 12 0
BBX 12 12 0 -2
BITMAP
0000
0E00
3180
5040
5040
9E20
9120
9120
5140
5E40
3180
0E00
ENDCHAR
STARTCHAR u24D2
ENCODING 9426
SWIDTH 1000 0
DWIDTH 12 0
BBX 12 12 0 -2
BITMAP
0000
0E00
3180
4040
4E40
9120
9020
9120
4E40
4040
3180
0E00
ENDCHAR
STARTCHAR u24D3
ENCODING 9427
SWIDTH 1000 0
DWIDTH 12 0
BBX 12 12 0 -2
BITMAP
0000
0E00
3180
4140
4140
8F20
9120
9120
5140
4F40
3180
0E00
ENDCHAR
STARTCHAR u24D4
ENCODING 9428
SWIDTH 1000 0
DWIDTH 12 0
BBX 12 12 0 -2
BITMAP
0000
0E00
3180
4040
4E40
9120
9F20
9020
4E40
4040
3180
0E00
ENDCHAR
STARTCHAR u24D5
ENCODING 9429
SWIDTH 1000 0
DWIDTH 12 0
BBX 12 12 0 -2
BITMAP
0000
0E00
3380
4340
4440
9F20
8420
8420
4440
4440
3180
0E00
ENDCHAR
STARTCHAR u24D6
ENCODING 9430
SWIDTH 1000 0
DWIDTH 12 0
BBX 12 12 0 -2
BITMAP
0000
0E00
3180
4F40
5140
9120
9120
8F20
4140
4E40
3180
0E00
ENDCHAR
STARTCHAR u24D7
ENCODING 9431
SWIDTH 1000 0
DWIDTH 12 0
BBX 12 12 0 -2
BITMAP
0000
0E00
3180
5040
5040
9620
9920
9120
5140
5140
3180
0E00
ENDCHAR
STARTCHAR u24D8
ENCODING 9432
SWIDTH 1000 0
DWIDTH 12 0
BBX 12 12 0 -2
BITMAP
0000
0E00
3180
4440
4040
8C20
8420
8420
4440
4E40
3180
0E00
ENDCHAR
STARTCHAR u24D9
ENCODING 9433
SWIDTH 1000 0
DWIDTH 12 0
BBX 12 12 0 -2
BITMAP
0000
0E00
3180
4240
4040
8E20
8220
8220
4240
4C40
3180
0E00
ENDCHAR
STARTCHAR u24DA
ENCODING 9434
SWIDTH 1000 0
DWIDTH 12 0
BBX 12 12 0 -2
BITMAP
0000
0E00
3180
5040
5040
9120
9620
9820
5640
5140
3180
0E00
ENDCHAR
STARTCHAR u24DB
ENCODING 9435
SWIDTH 1000 0
DWIDTH 12 0
BBX 12 12 0 -2
BITMAP
0000
0E00
3180
4C40
4440
8420
8420
8420
4440
4640
3180
0E00
ENDCHAR
STARTCHAR u24DC
ENCODING 9436
SWIDTH 1000 0
DWIDTH 12 0
BBX 12 12 0 -2
BITMAP
0000
0E00
3180
4040
5A40
9520
9520
9520
5540
4040
3180
0E00
ENDCHAR
STARTCHAR u24DD
ENCODING 9437
SWIDTH 1000 0
DWIDTH 12 0
BBX 12 12 0 -2
BITMAP
0000
0E00
3180
4040
5640
9920
9120
9120
5140
4040
3180
0E00
ENDCHAR
STARTCHAR u24DE
ENCODING 9438
SWIDTH 1000 0
DWIDTH 12 0
BBX 12 12 0 -2
BITMAP
0000
0E00
3180
4040
4E40
9120
9120
9120
4E40
4040
3180
0E00
ENDCHAR
STARTCHAR u24DF
ENCODING 9439
SWIDTH 1000 0
DWIDTH 12 0
BBX 12 12 0 -2
BITMAP
0000
0E00
3180
5E40
5140
9120
9120
9E20
5040
5040
3180
0E00
ENDCHAR
STARTCHAR u24E0
ENCODING 9440
SWIDTH 1000 0
DWIDTH 12 0
BBX 12 12 0 -2
BITMAP
0000
0E00
3180
4F40
5140
9120
9120
8F20
4140
4140
3180
0E00
ENDCHAR
STARTCHAR u24E1
ENCODING 9441
SWIDTH 1000 0
DWIDTH 12 0
BBX 12 12 0 -2
BITMAP
0000
0E00
3180
4040
4B40
8C20
8820
8820
4840
4040
3180
0E00
ENDCHAR
STARTCHAR u24E2
ENCODING 9442
SWIDTH 1000 0
DWIDTH 12 0
BBX 12 12 0 -2
BITMAP
0000
0E00
3180
4040
4F40
9020
8E20
8120
5E40
4040
3180
0E00
ENDCHAR
STARTCHAR u24E3
ENCODING 9443
SWIDTH 1000 0
DWIDTH 12 0
BBX 12 12 0 -2
BITMAP
0000
0E00
3180
4440
4440
9F20
8420
8420
4440
4340
3180
0E00
ENDCHAR
STARTCHAR u24E4
ENCODING 9444
SWIDTH 1000 0
DWIDTH 12 0
BBX 12 12 0 -2
BITMAP
0000
0E00
3180
4040
5140
9120
9120
9320
4D40
4040
3180
0E00
ENDCHAR
STARTCHAR u24E5
ENCODING 9445
SWIDTH 1000 0
DWIDTH 12 0
BBX 12 12 0 -2
BITMAP
0000
0E00
3180
4040
5140
9120
8A20
8A20
4440
4040
3180
0E00
ENDCHAR
STARTCHAR u24E6
ENCODING 9446
SWIDTH 1000 0
DWIDTH 12 0
BBX 12 12 0 -2
BITMAP
0000
0E00
3180
4040
5540
9520
9520
8A20
4A40
4040
3180
0E00
ENDCHAR
STARTCHAR u24E7
ENCODING 9447
SWIDTH 1000 0
DWIDTH 12 0
BBX 12 12 0 -2
BITMAP
0000
0E00
3180
4040
5140
8A20
8420
8A20
5140
4040
3180
0E00
ENDCHAR
STARTCHAR u24E8
ENCODING 9448
SWIDTH 1000 0
DWIDTH 12 0
BBX 12 12 0 -2
BITMAP
0000
0E00
3180
4040
5140
9120
8A20
8A20
4440
4440
3980
0E00
ENDCHAR
STARTCHAR u24E9
ENCODING 9449
SWIDTH 1000 0
DWIDTH 12 0
BBX 12 12 0 -2
BITMAP
0000
0E00
3180
4040
5F40
8220
8420
8820
5F40
4040
3180
0E00
ENDCHAR
STARTCHAR u24EA
ENCODING 9450
SWIDTH 1000 0
DWIDTH 12 0
BBX 12 12 0 -2
BITMAP
0000
0E00
3180
4E40
5140
9320
9520
9920
5140
4E40
3180
0E00
ENDCHAR
STARTCHAR u24EB
ENCODING 9451
SWIDTH 1000 0
DWIDTH 12 0
BBX 12 12 0 -2
BITMAP
0000
0E00
3F80
6EC0
4CC0
EEE0
EEE0
EEE0
6EC0
6EC0
3F80
0E00
ENDCHAR
STARTCHAR u24EC
ENCODING 9452
SWIDTH 1000 0
DWIDTH 12 0
BBX 12 12 0 -2
BITMAP
0000
0E00
3F80
6CC0
4B40
EF60
EEE0
EDE0
6BC0
6840
3F80
0E00
ENDCHAR
STARTCHAR u24ED
ENCODING 9453
SWIDTH 1000 0
DWIDTH 12 0
BBX 12 12 0 -2
BITMAP
0000
0E00
3F80
6CC0
4B40
EF60
EEE0
EF60
6B40
6CC0
3F80
0E00
ENDCHAR
STARTCHAR u24EE
ENCODING 9454
SWIDTH 1000 0
DWIDTH 12 0
BBX 12 12 0 -2
BITMAP
0000
0E00
3F80
6EC0
4CC0
ECE0
EAE0
EAE0
6840
6EC0
3F80
0E00
ENDCHAR
STARTCHAR u24EF
ENCODING 9455
SWIDTH 1000 0
DWIDTH 12 0
BBX 12 12 0 -2
BITMAP
0000
0E00
3F80
6840
4BC0
EBE0
E8E0
EF60
6F40
68C0
3F80
0E00
ENDCHAR
STARTCHAR u24F0
ENCODING 9456
SWIDTH 1000 0
DWIDTH 12 0
BBX 12 12 0 -2
BITMAP
0000
0E00
3F80
6CC0
4B40
EBE0
E8E0
EB60
6B40
6CC0
3F80
0E00
ENDCHAR
STARTCHAR u24F1
ENCODING 9457
SWIDTH 1000 0
DWIDTH 12 0
BBX 12 12 0 -2
BITMAP
0000
0E00
3F80
6840
4F40
EF60
EEE0
EEE0
6EC0
6EC0
3F80
0E00
ENDCHAR
STARTCHAR u24F2
ENCODING 9458
SWIDTH 1000 0
DWIDTH 12 0
BBX 12 12 0 -2
BITMAP
0000
0E00
3F80
6CC0
4B40
EB60
ECE0
EB60
6B40
6CC0
3F80
0E00
ENDCHAR
STARTCHAR u24F3
ENCODING 9459
SWIDTH 1000 0
DWIDTH 12 0
BBX 12 12 0 -2
BITMAP
0000
0E00
3F80
6CC0
4B40
EB60
EC60
EF60
6B40
6CC0
3F80
0E00
ENDCHAR
STARTCHAR u24F4
ENCODING 9460
SWIDTH 1000 0
DWIDTH 12 0
BBX 12 12 0 -2
BITMAP
0000
0E00
3F80
6EC0
5540
F560
F560
ED60
5D40
46C0
3F80
0E00
ENDCHAR
STARTCHAR u24F5
ENCODING 9461
SWIDTH 1000 0
DWIDTH 12 0
BBX 12 12 0 -2
BITMAP
0000
4E40
B1A0
4440
4C40
8420
8420
8420
4440
4E40
B1A0
4E40
ENDCHAR
STARTCHAR u24F6
ENCODING 9462
SWIDTH 1000 0
DWIDTH 12 0
BBX 12 12 0 -2
BITMAP
0000
4E40
B1A0
4E40
5140
8120
8620
8820
5040
5F40
B1A0
4E40
ENDCHAR
STARTCHAR u24F7
ENCODING 9463
SWIDTH 1000 0
DWIDTH 12 0
BBX 12 12 0 -2
BITMAP
0000
4E40
B1A0
4E40
5140
8120
8620
8120
5140
4E40
B1A0
4E40
ENDCHAR
STARTCHAR u24F8
ENCODING 9464
SWIDTH 1000 0
DWIDTH 12 0
BBX 12 12 0 -2
BITMAP
0000
4E40
B1A0
4640
4A40
8A20
9220
9220
5F40
4240
B1A0
4E40
ENDCHAR
STARTCHAR u24F9
ENCODING 9465
SWIDTH 1000 0
DWIDTH 12 0
BBX 12 12 0 -2
BITMAP
0000
4E40
B1A0
5F40
5040
9020
9E20
8120
4140
5E40
B1A0
4E40
ENDCHAR
STARTCHAR u24FA
ENCODING 9466
SWIDTH 1000 0
DWIDTH 12 0
BBX 12 12 0 -2
BITMAP
0000
4E40
B1A0
4E40
5140
9020
9E20
9120
5140
4E40
B1A0
4E40
ENDCHAR
STARTCHAR u24FB
ENCODING 9467
SWIDTH 1000 0
DWIDTH 12 0
BBX 12 12 0 -2
BITMAP
0000
4E40
B1A0
5F40
4140
8220
8220
8420
4440
4440
B1A0
4E40
ENDCHAR
STARTCHAR u24FC
ENCODING 9468
SWIDTH 1000 0
DWIDTH 12 0
BBX 12 12 0 -2
BITMAP
0000
4E40
B1A0
4E40
5140
9120
8E20
9120
5140
4E40
B1A0
4E40
ENDCHAR
STARTCHAR u24FD
ENCODING 9469
SWIDTH 1000 0
DWIDTH 12 0
BBX 12 12 0 -2
BITMAP
0000
4E40
B1A0
4E40
5140
9120
8F20
8120
5140
4E40
B1A0
4E40
ENDCHAR
STARTCHAR u24FE
ENCODING 9470
SWIDTH 1000 0
DWIDTH 12 0
BBX 12 12 0 -2
BITMAP
0000
4E40
B1A0
5340
74C0
94A0
94A0
94A0
54C0
5340
B1A0
4E40
ENDCHAR
STARTCHAR u24FF
ENCODING 9471
SWIDTH 1000 0
DWIDTH 12 0
BBX 12 12 0 -2
BITMAP
0000
0E00
3F80
71C0
6EC0
ECE0
EAE0
E6E0
6EC0
71C0
3F80
0E00
ENDCHAR
STARTCHAR u2500
ENCODING 9472
SWIDTH 1000 0
DWIDTH 12 0
BBX 12 12 0 -2
BITMAP
0000
0000
0000
0000
0000
0000
FFF0
0000
0000
0000
0000
0000
ENDCHAR
STARTCHAR u2501
ENCODING 9473
SWIDTH 1000 0
DWIDTH 12 0
BBX 12 12 0 -2
BITMAP
0000
0000
0000
0000
0000
FFF0
FFF0
FFF0
0000
0000
0000
0000
ENDCHAR
STARTCHAR u2502
ENCODING 9474
SWIDTH 1000 0
DWIDTH 12 0
BBX 12 12 0 -2
BITMAP
0400
0400
0400
0400
0400
0400
0400
0400
0400
0400
0400
0400
ENDCHAR
STARTCHAR u2503
ENCODING 9475
SWIDTH 1000 0
DWIDTH 12 0
BBX 12 12 0 -2
BITMAP
0E00
0E00
0E00
0E00
0E00
0E00
0E00
0E00
0E00
0E00
0E00
0E00
ENDCHAR
STARTCHAR u2504
ENCODING 9476
SWIDTH 1000 0
DWIDTH 12 0
BBX 12 12 0 -2
BITMAP
0000
0000
0000
0000
0000
0000
EEE0
0000
0000
0000
0000
0000
ENDCHAR
STARTCHAR u2505
ENCODING 9477
SWIDTH 1000 0
DWIDTH 12 0
BBX 12 12 0 -2
BITMAP
0000
0000
0000
0000
0000
EEE0
EEE0
EEE0
0000
0000
0000
0000
ENDCHAR
STARTCHAR u2506
ENCODING 9478
SWIDTH 1000 0
DWIDTH 12 0
BBX 12 12 0 -2
BITMAP
0000
0400
0400
0400
0000
0400
0400
0400
0000
0400
0400
0400
ENDCHAR
STARTCHAR u2507
ENCODING 9479
SWIDTH 1000 0
DWIDTH 12 0
BBX 12 12 0 -2
BITMAP
0000
0E00
0E00
0E00
0000
0E00
0E00
0E00
0000
0E00
0E00
0E00
ENDCHAR
STARTCHAR u2508
ENCODING 9480
SWIDTH 1000 0
DWIDTH 12 0
BBX 12 12 0 -2
BITMAP
0000
0000
0000
0000
0000
0000
DB60
0000
0000
0000
0000
0000
ENDCHAR
STARTCHAR u2509
ENCODING 9481
SWIDTH 1000 0
DWIDTH 12 0
BBX 12 12 0 -2
BITMAP
0000
0000
0000
0000
0000
DB60
DB60
DB60
0000
0000
0000
0000
ENDCHAR
STARTCHAR u250A
ENCODING 9482
SWIDTH 1000 0
DWIDTH 12 0
BBX 12 12 0 -2
BITMAP
0000
0400
0400
0000
0400
0400
0000
0400
0400
0000
0400
0400
ENDCHAR
STARTCHAR u250B
ENCODING 9483
SWIDTH 1000 0
DWIDTH 12 0
BBX 12 12 0 -2
BITMAP
0000
0E00
0E00
0000
0E00
0E00
0000
0E00
0E00
0000
0E00
0E00
ENDCHAR
STARTCHAR u250C
ENCODING 9484
SWIDTH 1000 0
DWIDTH 12 0
BBX 12 12 0 -2
BITMAP
0000
0000
0000
0000
0000
0000
07F0
0400
0400
0400
0400
0400
ENDCHAR
STARTCHAR u250D
ENCODING 9485
SWIDTH 1000 0
DWIDTH 12 0
BBX 12 12 0 -2
BITMAP
0000
0000
0000
0000
0000
07F0
07F0
07F0
0400
0400
0400
0400
ENDCHAR
STARTCHAR u250E
ENCODING 9486
SWIDTH 1000 0
DWIDTH 12 0
BBX 12 12 0 -2
BITMAP
0000
0000
0000
0000
0000
0000
0FF0
0E00
0E00
0E00
0E00
0E00
ENDCHAR
STARTCHAR u250F
ENCODING 9487
SWIDTH 1000 0
DWIDTH 12 0
BBX 12 12 0 -2
BITMAP
0000
0000
0000
0000
0000
0FF0
0FF0
0FF0
0E00
0E00
0E00
0E00
ENDCHAR
STARTCHAR u2510
ENCODING 9488
SWIDTH 1000 0
DWIDTH 12 0
BBX 12 12 0 -2
BITMAP
0000
0000
0000
0000
0000
0000
FC00
0400
0400
0400
0400
0400
ENDCHAR
STARTCHAR u2511
ENCODING 9489
SWIDTH 1000 0
DWIDTH 12 0
BBX 12 12 0 -2
BITMAP
0000
0000
0000
0000
0000
FC00
FC00
FC00
0400
0400
0400
0400
ENDCHAR
STARTCHAR u2512
ENCODING 9490
SWIDTH 1000 0
DWIDTH 12 0
BBX 12 12 0 -2
BITMAP
0000
0000
0000
0000
0000
0000
FE00
0E00
0E00
0E00
0E00
0E00
ENDCHAR
STARTCHAR u2513
ENCODING 9491
SWIDTH 1000 0
DWIDTH 12 0
BBX 12 12 0 -2
BITMAP
0000
0000
0000
0000
0000
FE00
FE00
FE00
0E00
0E00
0E00
0E00
ENDCHAR
STARTCHAR u2514
ENCODING 9492
SWIDTH 1000 0
DWIDTH 12 0
BBX 12 12 0 -2
BITMAP
0400
0400
0400
0400
0400
0400
07F0
0000
0000
0000
0000
0000
ENDCHAR
STARTCHAR u2515
ENCODING 9493
SWIDTH 1000 0
DWIDTH 12 0
BBX 12 12 0 -2
BITMAP
0400
0400
0400
0400
0400
07F0
07F0
07F0
0000
0000
0000
0000
ENDCHAR
STARTCHAR u2516
ENCODING 9494
SWIDTH 1000 0
DWIDTH 12 0
BBX 12 12 0 -2
BITMAP
0E00
0E00
0E00
0E00
0E00
0E00
0FF0
0000
0000
0000
0000
0000
ENDCHAR
STARTCHAR u2517
ENCODING 9495
SWIDTH 1000 0
DWIDTH 12 0
BBX 12 12 0 -2
BITMAP
0E00
0E00
0E00
0E00
0E00
0FF0
0FF0
0FF0
0000
0000
0000
0000
ENDCHAR
STARTCHAR u2518
ENCODING 9496
SWIDTH 1000 0
DWIDTH 12 0
BBX 12 12 0 -2
BITMAP
0400
0400
0400
0400
0400
0400
FC00
0000
0000
0000
0000
0000
ENDCHAR
STARTCHAR u2519
ENCODING 9497
SWIDTH 1000 0
DWIDTH 12 0
BBX 12 12 0 -2
BITMAP
0400
0400
0400
0400
0400
FC00
FC00
FC00
0000
0000
0000
0000
ENDCHAR
STARTCHAR u251A
ENCODING 9498
SWIDTH 1000 0
DWIDTH 12 0
BBX 12 12 0 -2
BITMAP
0E00
0E00
0E00
0E00
0E00
0E00
FE00
0000
0000
0000
0000
0000
ENDCHAR
STARTCHAR u251B
ENCODING 9499
SWIDTH 1000 0
DWIDTH 12 0
BBX 12 12 0 -2
BITMAP
0E00
0E00
0E00
0E00
0E00
FE00
FE00
FE00
0000
0000
0000
0000
ENDCHAR
STARTCHAR u251C
ENCODING 9500
SWIDTH 1000 0
DWIDTH 12 0
BBX 12 12 0 -2
BITMAP
0400
0400
0400
0400
0400
0400
07F0
0400
0400
0400
0400
0400
ENDCHAR
STARTCHAR u251D
ENCODING 9501
SWIDTH 1000 0
DWIDTH 12 0
BBX 12 12 0 -2
BITMAP
0400
0400
0400
0400
0400
07F0
07F0
07F0
0400
0400
0400
0400
ENDCHAR
STARTCHAR u251E
ENCODING 9502
SWIDTH 1000 0
DWIDTH 12 0
BBX 12 12 0 -2
BITMAP
0E00
0E00
0E00
0E00
0E00
0E00
0FF0
0400
0400
0400
0400
0400
ENDCHAR
STARTCHAR u251F
ENCODING 9503
SWIDTH 1000 0
DWIDTH 12 0
BBX 12 12 0 -2
BITMAP
0400
0400
0400
0400
0400
0400
0FF0
0E00
0E00
0E00
0E00
0E00
ENDCHAR
STARTCHAR u2520
ENCODING 9504
SWIDTH 1000 0
DWIDTH 12 0
BBX 12 12 0 -2
BITMAP
0E00
0E00
0E00
0E00
0E00
0E00
0FF0
0E00
0E00
0E00
0E00
0E00
ENDCHAR
STARTCHAR u2521
ENCODING 9505
SWIDTH 1000 0
DWIDTH 12 0
BBX 12 12 0 -2
BITMAP
0E00
0E00
0E00
0E00
0E00
0FF0
0FF0
0FF0
0400
0400
0400
0400
ENDCHAR
STARTCHAR u2522
ENCODING 9506
SWIDTH 1000 0
DWIDTH 12 0
BBX 12 12 0 -2
BITMAP
0400
0400
0400
0400
0400
0FF0
0FF0
0FF0
0E00
0E00
0E00
0E00
ENDCHAR
STARTCHAR u2523
ENCODING 9507
SWIDTH 1000 0
DWIDTH 12 0
BBX 12 12 0 -2
BITMAP
0E00
0E00
0E00
0E00
0E00
0FF0
0FF0
0FF0
0E00
0E00
0E00
0E00
ENDCHAR
STARTCHAR u2524
ENCODING 9508
SWIDTH 1000 0
DWIDTH 12 0
BBX 12 12 0 -2
BITMAP
0400
0400
0400
0400
0400
0400
FC00
0400
0400
0400
0400
0400
ENDCHAR
STARTCHAR u2525
ENCODING 9509
SWIDTH 1000 0
DWIDTH 12 0
BBX 12 12 0 -2
BITMAP
0400
0400
0400
0400
0400
FC00
FC00
FC00
0400
0400
0400
0400
ENDCHAR
STARTCHAR u2526
ENCODING 9510
SWIDTH 1000 0
DWIDTH 12 0
BBX 12 12 0 -2
BITMAP
0E00
0E00
0E00
0E00
0E00
0E00
FE00
0400
0400
0400
0400
0400
ENDCHAR
STARTCHAR u2527
ENCODING 9511
SWIDTH 1000 0
DWIDTH 12 0
BBX 12 12 0 -2
BITMAP
0400
0400
0400
0400
0400
0400
FE00
0E00
0E00
0E00
0E00
0E00
ENDCHAR
STARTCHAR u2528
ENCODING 9512
SWIDTH 1000 0
DWIDTH 12 0
BBX 12 12 0 -2
BITMAP
0E00
0E00
0E00
0E00
0E00
0E00
FE00
0E00
0E00
0E00
0E00
0E00
ENDCHAR
STARTCHAR u2529
ENCODING 9513
SWIDTH 1000 0
DWIDTH 12 0
BBX 12 12 0 -2
BITMAP
0E00
0E00
0E00
0E00
0E00
FE00
FE00
FE00
0400
0400
0400
0400
ENDCHAR
STARTCHAR u252A
ENCODING 9514
SWIDTH 1000 0
DWIDTH 12 0
BBX 12 12 0 -2
BITMAP
0400
0400
0400
0400
0400
FE00
FE00
FE00
0E00
0E00
0E00
0E00
ENDCHAR
STARTCHAR u252B
ENCODING 9515
SWIDTH 1000 0
DWIDTH 12 0
BBX 12 12 0 -2
BITMAP
0E00
0E00
0E00
0E00
0E00
FE00
FE00
FE00
0E00
0E00
0E00
0E00
ENDCHAR
STARTCHAR u252C
ENCODING 9516
SWIDTH 1000 0
DWIDTH 12 0
BBX 12 12 0 -2
BITMAP
0000
0000
0000
0000
0000
0000
FFF0
0400
0400
0400
0400
0400
ENDCHAR
STARTCHAR u252D
ENCODING 9517
SWIDTH 1000 0
DWIDTH 12 0
BBX 12 12 0 -2
BITMAP
0000
0000
0000
0000
0000
FC00
FFF0
FC00
0400
0400
0400
0400
ENDCHAR
STARTCHAR u252E
ENCODING 9518
SWIDTH 1000 0
DWIDTH 12 0
BBX 12 12 0 -2
BITMAP
0000
0000
0000
0000
0000
07F0
FFF0
07F0
0400
0400
0400
0400
ENDCHAR
STARTCHAR u252F
ENCODING 9519
SWIDTH 1000 0
DWIDTH 12 0
BBX 12 12 0 -2
BITMAP
0000
0000
0000
0000
0000
FFF0
FFF0
FFF0
0400
0400
0400
0400
ENDCHAR
STARTCHAR u2530
ENCODING 9520
SWIDTH 1000 0
DWIDTH 12 0
BBX 12 12 0 -2
BITMAP
0000
0000
0000
0000
0000
0000
FFF0
0E00
0E00
0E00
0E00
0E00
ENDCHAR
STARTCHAR u2531
ENCODING 9521
SWIDTH 1000 0
DWIDTH 12 0
BBX 12 12 0 -2
BITMAP
0000
0000
0000
0000
0000
FE00
FFF0
FE00
0E00
0E00
0E00
0E00
ENDCHAR
STARTCHAR u2532
ENCODING 9522
SWIDTH 1000 0
DWIDTH 12 0
BBX 12 12 0 -2
BITMAP
0000
0000
0000
0000
0000
0FF0
FFF0
0E00
0E00
0E00
0E00
0E00
ENDCHAR
STARTCHAR u2533
ENCODING 9523
SWIDTH 1000 0
DWIDTH 12 0
BBX 12 12 0 -2
BITMAP
0000
0000
0000
0000
0000
FFF0
FFF0
FFF0
0E00
0E00
0E00
0E00
ENDCHAR
STARTCHAR u2534
ENCODING 9524
SWIDTH 1000 0
DWIDTH 12 0
BBX 12 12 0 -2
BITMAP
0400
0400
0400
0400
0400
0400
FFF0
0000
0000
0000
0000
0000
ENDCHAR
STARTCHAR u2535
ENCODING 9525
SWIDTH 1000 0
DWIDTH 12 0
BBX 12 12 0 -2
BITMAP
0400
0400
0400
0400
0400
FC00
FFF0
FC00
0000
0000
0000
0000
ENDCHAR
STARTCHAR u2536
ENCODING 9526
SWIDTH 1000 0
DWIDTH 12 0
BBX 12 12 0 -2
BITMAP
0400
0400
0400
0400
0400
07F0
FFF0
07F0
0000
0000
0000
0000
ENDCHAR
STARTCHAR u2537
ENCODING 9527
SWIDTH 1000 0
DWIDTH 12 0
BBX 12 12 0 -2
BITMAP
0400
0400
0400
0400
0400
FFF0
FFF0
FFF0
0000
0000
0000
0000
ENDCHAR
STARTCHAR u2538
ENCODING 9528
SWIDTH 1000 0
DWIDTH 12 0
BBX 12 12 0 -2
BITMAP
0E00
0E00
0E00
0E00
0E00
0E00
FFF0
0000
0000
0000
0000
0000
ENDCHAR
STARTCHAR u2539
ENCODING 9529
SWIDTH 1000 0
DWIDTH 12 0
BBX 12 12 0 -2
BITMAP
0E00
0E00
0E00
0E00
0E00
FE00
FFF0
FE00
0000
0000
0000
0000
ENDCHAR
STARTCHAR u253A
ENCODING 9530
SWIDTH 1000 0
DWIDTH 12 0
BBX 12 12 0 -2
BITMAP
0E00
0E00
0E00
0E00
0E00
0FF0
FFF0
0FF0
0000
0000
0000
0000
ENDCHAR
STARTCHAR u253B
ENCODING 9531
SWIDTH 1000 0
DWIDTH 12 0
BBX 12 12 0 -2
BITMAP
0E00
0E00
0E00
0E00
0E00
FFF0
FFF0
FFF0
0000
0000
0000
0000
ENDCHAR
STARTCHAR u253C
ENCODING 9532
SWIDTH 1000 0
DWIDTH 12 0
BBX 12 12 0 -2
BITMAP
0400
0400
0400
0400
0400
0400
FFF0
0400
0400
0400
0400
0400
ENDCHAR
STARTCHAR u253D
ENCODING 9533
SWIDTH 1000 0
DWIDTH 12 0
BBX 12 12 0 -2
BITMAP
0400
0400
0400
0400
0400
FC00
FFF0
FC00
0400
0400
0400
0400
ENDCHAR
STARTCHAR u253E
ENCODING 9534
SWIDTH 1000 0
DWIDTH 12 0
BBX 12 12 0 -2
BITMAP
0400
0400
0400
0400
0400
07F0
FFF0
07F0
0400
0400
0400
0400
ENDCHAR
STARTCHAR u253F
ENCODING 9535
SWIDTH 1000 0
DWIDTH 12 0
BBX 12 12 0 -2
BITMAP
0400
0400
0400
0400
0400
FFF0
FFF0
FFF0
0400
0400
0400
0400
ENDCHAR
STARTCHAR u2540
ENCODING 9536
SWIDTH 1000 0
DWIDTH 12 0
BBX 12 12 0 -2
BITMAP
0E00
0E00
0E00
0E00
0E00
0E00
FFF0
0400
0400
0400
0400
0400
ENDCHAR
STARTCHAR u2541
ENCODING 9537
SWIDTH 1000 0
DWIDTH 12 0
BBX 12 12 0 -2
BITMAP
0400
0400
0400
0400
0400
0400
FFF0
0E00
0E00
0E00
0E00
0E00
ENDCHAR
STARTCHAR u2542
ENCODING 9538
SWIDTH 1000 0
DWIDTH 12 0
BBX 12 12 0 -2
BITMAP
0E00
0E00
0E00
0E00
0E00
0E00
FFF0
0E00
0E00
0E00
0E00
0E00
ENDCHAR
STARTCHAR u2543
ENCODING 9539
SWIDTH 1000 0
DWIDTH 12 0
BBX 12 12 0 -2
BITMAP
0E00
0E00
0E00
0E00
0E00
FE00
FFF0
FE00
0400
0400
0400
0400
ENDCHAR
STARTCHAR u2544
ENCODING 9540
SWIDTH 1000 0
DWIDTH 12 0
BBX 12 12 0 -2
BITMAP
0E00
0E00
0E00
0E00
0E00
0FF0
FFF0
0FF0
0400
0400
0400
0400
ENDCHAR
STARTCHAR u2545
ENCODING 9541
SWIDTH 1000 0
DWIDTH 12 0
BBX 12 12 0 -2
BITMAP
0400
0400
0400
0400
0400
FE00
FFF0
FE00
0E00
0E00
0E00
0E00
ENDCHAR
STARTCHAR u2546
ENCODING 9542
SWIDTH 1000 0
DWIDTH 12 0
BBX 12 12 0 -2
BITMAP
0400
0400
0400
0400
0400
0FF0
FFF0
0FF0
0E00
0E00
0E00
0E00
ENDCHAR
STARTCHAR u2547
ENCODING 9543
SWIDTH 1000 0
DWIDTH 12 0
BBX 12 12 0 -2
BITMAP
0E00
0E00
0E00
0E00
0E00
FFF0
FFF0
FFF0
0400
0400
0400
0400
ENDCHAR
STARTCHAR u2548
ENCODING 9544
SWIDTH 1000 0
DWIDTH 12 0
BBX 12 12 0 -2
BITMAP
0400
0400
0400
0400
0400
FFF0
FFF0
FFF0
0E00
0E00
0E00
0E00
ENDCHAR
STARTCHAR u2549
ENCODING 9545
SWIDTH 1000 0
DWIDTH 12 0
BBX 12 12 0 -2
BITMAP
0E00
0E00
0E00
0E00
0E00
FE00
FFF0
FE00
0E00
0E00
0E00
0E00
ENDCHAR
STARTCHAR u254A
ENCODING 9546
SWIDTH 1000 0
DWIDTH 12 0
BBX 12 12 0 -2
BITMAP
0E00
0E00
0E00
0E00
0E00
0FF0
FFF0
0FF0
0E00
0E00
0E00
0E00
ENDCHAR
STARTCHAR u254B
ENCODING 9547
SWIDTH 1000 0
DWIDTH 12 0
BBX 12 12 0 -2
BITMAP
0E00
0E00
0E00
0E00
0E00
FFF0
FFF0
FFF0
0E00
0E00
0E00
0E00
ENDCHAR
STARTCHAR u254C
ENCODING 9548
SWIDTH 1000 0
DWIDTH 12 0
BBX 12 12 0 -2
BITMAP
0000
0000
0000
0000
0000
0000
79E0
0000
0000
0000
0000
0000
ENDCHAR
STARTCHAR u254D
ENCODING 9549
SWIDTH 1000 0
DWIDTH 12 0
BBX 12 12 0 -2
BITMAP
0000
0000
0000
0000
0000
79E0
79E0
79E0
0000
0000
0000
0000
ENDCHAR
STARTCHAR u254E
ENCODING 9550
SWIDTH 1000 0
DWIDTH 12 0
BBX 12 12 0 -2
BITMAP
0000
0400
0400
0400
0400
0000
0000
0400
0400
0400
0400
0000
ENDCHAR
STARTCHAR u254F
ENCODING 9551
SWIDTH 1000 0
DWIDTH 12 0
BBX 12 12 0 -2
BITMAP
0000
0E00
0E00
0E00
0E00
0000
0000
0E00
0E00
0E00
0E00
0000
ENDCHAR
STARTCHAR u2550
ENCODING 9552
SWIDTH 1000 0
DWIDTH 12 0
BBX 12 12 0 -2
BITMAP
0000
0000
0000
0000
0000
FFF0
0000
FFF0
0000
0000
0000
0000
ENDCHAR
STARTCHAR u2551
ENCODING 9553
SWIDTH 1000 0
DWIDTH 12 0
BBX 12 12 0 -2
BITMAP
0A00
0A00
0A00
0A00
0A00
0A00
0A00
0A00
0A00
0A00
0A00
0A00
ENDCHAR
STARTCHAR u2552
ENCODING 9554
SWIDTH 1000 0
DWIDTH 12 0
BBX 12 12 0 -2
BITMAP
0000
0000
0000
0000
0000
07F0
0400
07F0
0400
0400
0400
0400
ENDCHAR
STARTCHAR u2553
ENCODING 9555
SWIDTH 1000 0
DWIDTH 12 0
BBX 12 12 0 -2
BITMAP
0000
0000
0000
0000
0000
0000
0FF0
0A00
0A00
0A00
0A00
0A00
ENDCHAR
STARTCHAR u2554
ENCODING 9556
SWIDTH 1000 0
DWIDTH 12 0
BBX 12 12 0 -2
BITMAP
0000
0000
0000
0000
0000
0FF0
0800
0BF0
0A00
0A00
0A00
0A00
ENDCHAR
STARTCHAR u2555
ENCODING 9557
SWIDTH 1000 0
DWIDTH 12 0
BBX 12 12 0 -2
BITMAP
0000
0000
0000
0000
0000
FC00
0400
FC00
0400
0400
0400
0400
ENDCHAR
STARTCHAR u2556
ENCODING 9558
SWIDTH 1000 0
DWIDTH 12 0
BBX 12 12 0 -2
BITMAP
0000
0000
0000
0000
0000
0000
FE00
0A00
0A00
0A00
0A00
0A00
ENDCHAR
STARTCHAR u2557
ENCODING 9559
SWIDTH 1000 0
DWIDTH 12 0
BBX 12 12 0 -2
BITMAP
0000
0000
0000
0000
0000
FE00
0200
FA00
0A00
0A00
0A00
0A00
ENDCHAR
STARTCHAR u2558
ENCODING 9560
SWIDTH 1000 0
DWIDTH 12 0
BBX 12 12 0 -2
BITMAP
0400
0400
0400
0400
0400
07F0
0400
07F0
0000
0000
0000
0000
ENDCHAR
STARTCHAR u2559
ENCODING 9561
SWIDTH 1000 0
DWIDTH 12 0
BBX 12 12 0 -2
BITMAP
0A00
0A00
0A00
0A00
0A00
0A00
0FF0
0000
0000
0000
0000
0000
ENDCHAR
STARTCHAR u255A
ENCODING 9562
SWIDTH 1000 0
DWIDTH 12 0
BBX 12 12 0 -2
BITMAP
0A00
0A00
0A00
0A00
0A00
0BF0
0800
0FF0
0000
0000
0000
0000
ENDCHAR
STARTCHAR u255B
ENCODING 9563
SWIDTH 1000 0
DWIDTH 12 0
BBX 12 12 0 -2
BITMAP
0400
0400
0400
0400
0400
FC00
0400
FC00
0000
0000
0000
0000
ENDCHAR
STARTCHAR u255C
ENCODING 9564
SWIDTH 1000 0
DWIDTH 12 0
BBX 12 12 0 -2
BITMAP
0A00
0A00
0A00
0A00
0A00
0A00
FE00
0000
0000
0000
0000
0000
ENDCHAR
STARTCHAR u255D
ENCODING 9565
SWIDTH 1000 0
DWIDTH 12 0
BBX 12 12 0 -2
BITMAP
0A00
0A00
0A00
0A00
0A00
FA00
0200
FE00
0000
0000
0000
0000
ENDCHAR
STARTCHAR u255E
ENCODING 9566
SWIDTH 1000 0
DWIDTH 12 0
BBX 12 12 0 -2
BITMAP
0400
0400
0400
0400
0400
07F0
0400
07F0
0400
0400
0400
0400
ENDCHAR
STARTCHAR u255F
ENCODING 9567
SWIDTH 1000 0
DWIDTH 12 0
BBX 12 12 0 -2
BITMAP
0A00
0A00
0A00
0A00
0A00
0A00
0BF0
0A00
0A00
0A00
0A00
0A00
ENDCHAR
STARTCHAR u2560
ENCODING 9568
SWIDTH 1000 0
DWIDTH 12 0
BBX 12 12 0 -2
BITMAP
0A00
0A00
0A00
0A00
0A00
0BF0
0800
0BF0
0A00
0A00
0A00
0A00
ENDCHAR
STARTCHAR u2561
ENCODING 9569
SWIDTH 1000 0
DWIDTH 12 0
BBX 12 12 0 -2
BITMAP
0400
0400
0400
0400
0400
FC00
0400
FC00
0400
0400
0400
0400
ENDCHAR
STARTCHAR u2562
ENCODING 9570
SWIDTH 1000 0
DWIDTH 12 0
BBX 12 12 0 -2
BITMAP
0A00
0A00
0A00
0A00
0A00
0A00
FA00
0A00
0A00
0A00
0A00
0A00
ENDCHAR
STARTCHAR u2563
ENCODING 9571
SWIDTH 1000 0
DWIDTH 12 0
BBX 12 12 0 -2
BITMAP
0A00
0A00
0A00
0A00
0A00
FA00
0200
FA00
0A00
0A00
0A00
0A00
ENDCHAR
STARTCHAR u2564
ENCODING 9572
SWIDTH 1000 0
DWIDTH 12 0
BBX 12 12 0 -2
BITMAP
0000
0000
0000
0000
0000
FFF0
0000
FFF0
0400
0400
0400
0400
ENDCHAR
STARTCHAR u2565
ENCODING 9573
SWIDTH 1000 0
DWIDTH 12 0
BBX 12 12 0 -2
BITMAP
0000
0000
0000
0000
0000
0000
FFF0
0A00
0A00
0A00
0A00
0A00
ENDCHAR
STARTCHAR u2566
ENCODING 9574
SWIDTH 1000 0
DWIDTH 12 0
BBX 12 12 0 -2
BITMAP
0000
0000
0000
0000
0000
FFF0
0000
FBF0
0A00
0A00
0A00
0A00
ENDCHAR
STARTCHAR u2567
ENCODING 9575
SWIDTH 1000 0
DWIDTH 12 0
BBX 12 12 0 -2
BITMAP
0400
0400
0400
0400
0400
FFF0
0000
FFF0
0000
0000
0000
0000
ENDCHAR
STARTCHAR u2568
ENCODING 9576
SWIDTH 1000 0
DWIDTH 12 0
BBX 12 12 0 -2
BITMAP
0A00
0A00
0A00
0A00
0A00
0A00
FFF0
0000
0000
0000
0000
0000
ENDCHAR
STARTCHAR u2569
ENCODING 9577
SWIDTH 1000 0
DWIDTH 12 0
BBX 12 12 0 -2
BITMAP
0A00
0A00
0A00
0A00
0A00
FBF0
0000
FFF0
0000
0000
0000
0000
ENDCHAR
STARTCHAR u256A
ENCODING 9578
SWIDTH 1000 0
DWIDTH 12 0
BBX 12 12 0 -2
BITMAP
0400
0400
0400
0400
0400
FFF0
0400
FFF0
0400
0400
0400
0400
ENDCHAR
STARTCHAR u256B
ENCODING 9579
SWIDTH 1000 0
DWIDTH 12 0
BBX 12 12 0 -2
BITMAP
0A00
0A00
0A00
0A00
0A00
0A00
FFF0
0A00
0A00
0A00
0A00
0A00
ENDCHAR
STARTCHAR u256C
ENCODING 9580
SWIDTH 1000 0
DWIDTH 12 0
BBX 12 12 0 -2
BITMAP
0A00
0A00
0A00
0A00
0A00
FBF0
0000
FBF0
0A00
0A00
0A00
0A00
ENDCHAR
STARTCHAR u256D
ENCODING 9581
SWIDTH 1000 0
DWIDTH 12 0
BBX 12 12 0 -2
BITMAP
0000
0000
0000
0000
0000
0000
0030
00C0
0100
0200
0200
0400
ENDCHAR
STARTCHAR u256E
ENCODING 9582
SWIDTH 1000 0
DWIDTH 12 0
BBX 12 12 0 -2
BITMAP
0000
0000
0000
0000
0000
0000
8000
6000
1000
0800
0800
0400
ENDCHAR
STARTCHAR u256F
ENCODING 9583
SWIDTH 1000 0
DWIDTH 12 0
BBX 12 12 0 -2
BITMAP
0400
0400
0800
0800
1000
6000
8000
0000
0000
0000
0000
0000
ENDCHAR
STARTCHAR u2570
ENCODING 9584
SWIDTH 1000 0
DWIDTH 12 0
BBX 12 12 0 -2
BITMAP
0400
0400
0200
0200
0100
00C0
0030
0000
0000
0000
0000
0000
ENDCHAR
STARTCHAR u2571
ENCODING 9585
SWIDTH 1000 0
DWIDTH 12 0
BBX 12 12 0 -2
BITMAP
0010
0020
0040
0080
0100
0200
0400
0800
1000
2000
4000
8000
ENDCHAR
STARTCHAR u2572
ENCODING 9586
SWIDTH 1000 0
DWIDTH 12 0
BBX 12 12 0 -2
BITMAP
8000
4000
2000
1000
0800
0400
0200
0100
0080
0040
0020
0010
ENDCHAR
STARTCHAR u2573
ENCODING 9587
SWIDTH 1000 0
DWIDTH 12 0
BBX 12 12 0 -2
BITMAP
8010
4020
2040
1080
0900
0600
0600
0900
1080
2040
4020
8010
ENDCHAR
STARTCHAR u2574
ENCODING 9588
SWIDTH 1000 0
DWIDTH 12 0
BBX 12 12 0 -2
BITMAP
0000
0000
0000
0000
0000
0000
FC00
0000
0000
0000
0000
0000
ENDCHAR
STARTCHAR u2575
ENCODING 9589
SWIDTH 1000 0
DWIDTH 12 0
BBX 12 12 0 -2
BITMAP
0400
0400
0400
0400
0400
0400
0400
0000
0000
0000
0000
0000
ENDCHAR
STARTCHAR u2576
ENCODING 9590
SWIDTH 1000 0
DWIDTH 12 0
BBX 12 12 0 -2
BITMAP
0000
0000
0000
0000
0000
0000
07F0
0000
0000
0000
0000
0000
ENDCHAR
STARTCHAR u2577
ENCODING 9591
SWIDTH 1000 0
DWIDTH 12 0
BBX 12 12 0 -2
BITMAP
0000
0000
0000
0000
0000
0000
0400
0400
0400
0400
0400
0400
ENDCHAR
STARTCHAR u2578
ENCODING 9592
SWIDTH 1000 0
DWIDTH 12 0
BBX 12 12 0 -2
BITMAP
0000
0000
0000
0000
0000
FC00
FC00
FC00
0000
0000
0000
0000
ENDCHAR
STARTCHAR u2579
ENCODING 9593
SWIDTH 1000 0
DWIDTH 12 0
BBX 12 12 0 -2
BITMAP
0E00
0E00
0E00
0E00
0E00
0E00
0E00
0000
0000
0000
0000
0000
ENDCHAR
STARTCHAR u257A
ENCODING 9594
SWIDTH 1000 0
DWIDTH 12 0
BBX 12 12 0 -2
BITMAP
0000
0000
0000
0000
0000
07F0
07F0
07F0
0000
0000
0000
0000
ENDCHAR
STARTCHAR u257B
ENCODING 9595
SWIDTH 1000 0
DWIDTH 12 0
BBX 12 12 0 -2
BITMAP
0000
0000
0000
0000
0000
0000
0E00
0E00
0E00
0E00
0E00
0E00
ENDCHAR
STARTCHAR u257C
ENCODING 9596
SWIDTH 1000 0
DWIDTH 12 0
BBX 12 12 0 -2
BITMAP
0000
0000
0000
0000
0000
07F0
FFF0
07F0
0000
0000
0000
0000
ENDCHAR
STARTCHAR u257D
ENCODING 9597
SWIDTH 1000 0
DWIDTH 12 0
BBX 12 12 0 -2
BITMAP
0400
0400
0400
0400
0400
0400
0E00
0E00
0E00
0E00
0E00
0E00
ENDCHAR
STARTCHAR u257E
ENCODING 9598
SWIDTH 1000 0
DWIDTH 12 0
BBX 12 12 0 -2
BITMAP
0000
0000
0000
0000
0000
FC00
FFF0
FC00
0000
0000
0000
0000
ENDCHAR
STARTCHAR u257F
ENCODING 9599
SWIDTH 1000 0
DWIDTH 12 0
BBX 12 12 0 -2
BITMAP
0E00
0E00
0E00
0E00
0E00
0E00
0E00
0400
0400
0400
0400
0400
ENDCHAR
STARTCHAR u2580
ENCODING 9600
SWIDTH 1000 0
DWIDTH 12 0
BBX 12 12 0 -2
BITMAP
FFF0
FFF0
FFF0
FFF0
FFF0
FFF0
0000
0000
0000
0000
0000
0000
ENDCHAR
STARTCHAR u2581
ENCODING 9601
SWIDTH 1000 0
DWIDTH 12 0
BBX 12 12 0 -2
BITMAP
0000
0000
0000
0000
0000
0000
0000
0000
0000
0000
FFF0
FFF0
ENDCHAR
STARTCHAR u2582
ENCODING 9602
SWIDTH 1000 0
DWIDTH 12 0
BBX 12 12 0 -2
BITMAP
0000
0000
0000
0000
0000
0000
0000
0000
0000
FFF0
FFF0
FFF0
ENDCHAR
STARTCHAR u2583
ENCODING 9603
SWIDTH 1000 0
DWIDTH 12 0
BBX 12 12 0 -2
BITMAP
0000
0000
0000
0000
0000
0000
0000
FFF0
FFF0
FFF0
FFF0
FFF0
ENDCHAR
STARTCHAR u2584
ENCODING 9604
SWIDTH 1000 0
DWIDTH 12 0
BBX 12 12 0 -2
BITMAP
0000
0000
0000
0000
0000
0000
FFF0
FFF0
FFF0
FFF0
FFF0
FFF0
ENDCHAR
STARTCHAR u2585
ENCODING 9605
SWIDTH 1000 0
DWIDTH 12 0
BBX 12 12 0 -2
BITMAP
0000
0000
0000
0000
0000
FFF0
FFF0
FFF0
FFF0
FFF0
FFF0
FFF0
ENDCHAR
STARTCHAR u2586
ENCODING 9606
SWIDTH 1000 0
DWIDTH 12 0
BBX 12 12 0 -2
BITMAP
0000
0000
0000
FFF0
FFF0
FFF0
FFF0
FFF0
FFF0
FFF0
FFF0
FFF0
ENDCHAR
STARTCHAR u2587
ENCODING 9607
SWIDTH 1000 0
DWIDTH 12 0
BBX 12 12 0 -2
BITMAP
0000
0000
FFF0
FFF0
FFF0
FFF0
FFF0
FFF0
FFF0
FFF0
FFF0
FFF0
ENDCHAR
STARTCHAR u2588
ENCODING 9608
SWIDTH 1000 0
DWIDTH 12 0
BBX 12 12 0 -2
BITMAP
FFF0
FFF0
FFF0
FFF0
FFF0
FFF0
FFF0
FFF0
FFF0
FFF0
FFF0
FFF0
ENDCHAR
STARTCHAR u2589
ENCODING 9609
SWIDTH 1000 0
DWIDTH 12 0
BBX 12 12 0 -2
BITMAP
FFC0
FFC0
FFC0
FFC0
FFC0
FFC0
FFC0
FFC0
FFC0
FFC0
FFC0
FFC0
ENDCHAR
STARTCHAR u258A
ENCODING 9610
SWIDTH 1000 0
DWIDTH 12 0
BBX 12 12 0 -2
BITMAP
FF80
FF80
FF80
FF80
FF80
FF80
FF80
FF80
FF80
FF80
FF80
FF80
ENDCHAR
STARTCHAR u258B
ENCODING 9611
SWIDTH 1000 0
DWIDTH 12 0
BBX 12 12 0 -2
BITMAP
FE00
FE00
FE00
FE00
FE00
FE00
FE00
FE00
FE00
FE00
FE00
FE00
ENDCHAR
STARTCHAR u258C
ENCODING 9612
SWIDTH 1000 0
DWIDTH 12 0
BBX 12 12 0 -2
BITMAP
FC00
FC00
FC00
FC00
FC00
FC00
FC00
FC00
FC00
FC00
FC00
FC00
ENDCHAR
STARTCHAR u258D
ENCODING 9613
SWIDTH 1000 0
DWIDTH 12 0
BBX 12 12 0 -2
BITMAP
F800
F800
F800
F800
F800
F800
F800
F800
F800
F800
F800
F800
ENDCHAR
STARTCHAR u258E
ENCODING 9614
SWIDTH 1000 0
DWIDTH 12 0
BBX 12 12 0 -2
BITMAP
E000
E000
E000
E000
E000
E000
E000
E000
E000
E000
E000
E000
ENDCHAR
STARTCHAR u258F
ENCODING 9615
SWIDTH 1000 0
DWIDTH 12 0
BBX 12 12 0 -2
BITMAP
C000
C000
C000
C000
C000
C000
C000
C000
C000
C000
C000
C000
ENDCHAR
STARTCHAR u2590
ENCODING 9616
SWIDTH 1000 0
DWIDTH 12 0
BBX 12 12 0 -2
BITMAP
03F0
03F0
03F0
03F0
03F0
03F0
03F0
03F0
03F0
03F0
03F0
03F0
ENDCHAR
STARTCHAR u2591
ENCODING 9617
SWIDTH 1000 0
DWIDTH 12 0
BBX 12 12 0 -2
BITMAP
AAA0
0000
AAA0
0000
AAA0
0000
AAA0
0000
AAA0
0000
AAA0
0000
ENDCHAR
STARTCHAR u2592
ENCODING 9618
SWIDTH 1000 0
DWIDTH 12 0
BBX 12 12 0 -2
BITMAP
AAA0
5550
AAA0
5550
AAA0
5550
AAA0
5550
AAA0
5550
AAA0
5550
ENDCHAR
STARTCHAR u2593
ENCODING 9619
SWIDTH 1000 0
DWIDTH 12 0
BBX 12 12 0 -2
BITMAP
FFF0
AAA0
FFF0
AAA0
FFF0
AAA0
FFF0
AAA0
FFF0
AAA0
FFF0
AAA0
ENDCHAR
STARTCHAR u2594
ENCODING 9620
SWIDTH 1000 0
DWIDTH 12 0
BBX 12 12 0 -2
BITMAP
FFF0
FFF0
0000
0000
0000
0000
0000
0000
0000
0000
0000
0000
ENDCHAR
STARTCHAR u2595
ENCODING 9621
SWIDTH 1000 0
DWIDTH 12 0
BBX 12 12 0 -2
BITMAP
0030
0030
0030
0030
0030
0030
0030
0030
0030
0030
0030
0030
ENDCHAR
STARTCHAR u2596
ENCODING 9622
SWIDTH 1000 0
DWIDTH 12 0
BBX 12 12 0 -2
BITMAP
0000
0000
0000
0000
0000
0000
FC00
FC00
FC00
FC00
FC00
FC00
ENDCHAR
STARTCHAR u2597
ENCODING 9623
SWIDTH 1000 0
DWIDTH 12 0
BBX 12 12 0 -2
BITMAP
0000
0000
0000
0000
0000
0000
03F0
03F0
03F0
03F0
03F0
03F0
ENDCHAR
STARTCHAR u2598
ENCODING 9624
SWIDTH 1000 0
DWIDTH 12 0
BBX 12 12 0 -2
BITMAP
FC00
FC00
FC00
FC00
FC00
FC00
0000
0000
0000
0000
0000
0000
ENDCHAR
STARTCHAR u2599
ENCODING 9625
SWIDTH 1000 0
DWIDTH 12 0
BBX 12 12 0 -2
BITMAP
FC00
FC00
FC00
FC00
FC00
FC00
FFF0
FFF0
FFF0
FFF0
FFF0
FFF0
ENDCHAR
STARTCHAR u259A
ENCODING 9626
SWIDTH 1000 0
DWIDTH 12 0
BBX 12 12 0 -2
BITMAP
FC00
FC00
FC00
FC00
FC00
FC00
03F0
03F0
03F0
03F0
03F0
03F0
ENDCHAR
STARTCHAR u259B
ENCODING 9627
SWIDTH 1000 0
DWIDTH 12 0
BBX 12 12 0 -2
BITMAP
FFF0
FFF0
FFF0
FFF0
FFF0
FFF0
FC00
FC00
FC00
FC00
FC00
FC00
ENDCHAR
STARTCHAR u259C
ENCODING 9628
SWIDTH 1000 0
DWIDTH 12 0
BBX 12 12 0 -2
BITMAP
FFF0
FFF0
FFF0
FFF0
FFF0
FFF0
03F0
03F0
03F0
03F0
03F0
03F0
ENDCHAR
STARTCHAR u259D
ENCODING 9629
SWIDTH 1000 0
DWIDTH 12 0
BBX 12 12 0 -2
BITMAP
03F0
03F0
03F0
03F0
03F0
03F0
0000
0000
0000
0000
0000
0000
ENDCHAR
STARTCHAR u259E
ENCODING 9630
SWIDTH 1000 0
DWIDTH 12 0
BBX 12 12 0 -2
BITMAP
03F0
03F0
03F0
03F0
03F0
03F0
FC00
FC00
FC00
FC00
FC00
FC00
ENDCHAR
STARTCHAR u259F
ENCODING 9631
SWIDTH 1000 0
DWIDTH 12 0
BBX 12 12 0 -2
BITMAP
03F0
03F0
03F0
03F0
03F0
03F0
FFF0
FFF0
FFF0
FFF0
FFF0
FFF0
ENDCHAR
STARTCHAR u25A0
ENCODING 9632
SWIDTH 1000 0
DWIDTH 12 0
BBX 12 12 0 -2
BITMAP
0000
FFE0
FFE0
FFE0
FFE0
FFE0
FFE0
FFE0
FFE0
FFE0
FFE0
FFE0
ENDCHAR
STARTCHAR u25A1
ENCODING 9633
SWIDTH 1000 0
DWIDTH 12 0
BBX 12 12 0 -2
BITMAP
0000
FFE0
8020
8020
8020
8020
8020
8020
8020
8020
8020
FFE0
ENDCHAR
STARTCHAR u25A2
ENCODING 9634
SWIDTH 1000 0
DWIDTH 12 0
BBX 12 12 0 -2
BITMAP
0000
3F80
4040
8020
8020
8020
8020
8020
8020
8020
4040
3F80
ENDCHAR
STARTCHAR u25A3
ENCODING 9635
SWIDTH 1000 0
DWIDTH 12 0
BBX 12 12 0 -2
BITMAP
0000
FFE0
8020
8020
9F20
9F20
9F20
9F20
9F20
8020
8020
FFE0
ENDCHAR
STARTCHAR u25A4
ENCODING 9636
SWIDTH 1000 0
DWIDTH 12 0
BBX 12 12 0 -2
BITMAP
0000
FFE0
8020
FFE0
8020
FFE0
8020
FFE0
8020
FFE0
8020
FFE0
ENDCHAR
STARTCHAR u25A5
ENCODING 9637
SWIDTH 1000 0
DWIDTH 12 0
BBX 12 12 0 -2
BITMAP
0000
FFE0
AAA0
AAA0
AAA0
AAA0
AAA0
AAA0
AAA0
AAA0
AAA0
FFE0
ENDCHAR
STARTCHAR u25A6
ENCODING 9638
SWIDTH 1000 0
DWIDTH 12 0
BBX 12 12 0 -2
BITMAP
0000
FFE0
AAA0
FFE0
AAA0
FFE0
AAA0
FFE0
AAA0
FFE0
AAA0
FFE0
ENDCHAR
STARTCHAR u25A7
ENCODING 9639
SWIDTH 1000 0
DWIDTH 12 0
BBX 12 12 0 -2
BITMAP
0000
FFE0
C920
A4A0
9260
C920
A4A0
9260
C920
A4A0
9260
FFE0
ENDCHAR
STARTCHAR u25A8
ENCODING 9640
SWIDTH 1000 0
DWIDTH 12 0
BBX 12 12 0 -2
BITMAP
0000
FFE0
9260
A4A0
C920
9260
A4A0
C920
9260
A4A0
C920
FFE0
ENDCHAR
STARTCHAR u25A9
ENCODING 9641
SWIDTH 1000 0
DWIDTH 12 0
BBX 12 12 0 -2
BITMAP
0000
FFE0
D560
AAA0
D560
AAA0
D560
AAA0
D560
AAA0
D560
FFE0
ENDCHAR
STARTCHAR u25AA
ENCODING 9642
SWIDTH 1000 0
DWIDTH 12 0
BBX 12 12 0 -2
BITMAP
0000
0000
0000
0000
1F00
1F00
1F00
1F00
1F00
0000
0000
0000
ENDCHAR
STARTCHAR u25AB
ENCODING 9643
SWIDTH 1000 0
DWIDTH 12 0
BBX 12 12 0 -2
BITMAP
0000
0000
0000
0000
1F00
1100
1100
1100
1F00
0000
0000
0000
ENDCHAR
STARTCHAR u25AC
ENCODING 9644
SWIDTH 1000 0
DWIDTH 12 0
BBX 12 12 0 -2
BITMAP
0000
0000
0000
FFE0
FFE0
FFE0
FFE0
FFE0
FFE0
FFE0
0000
0000
ENDCHAR
STARTCHAR u25AD
ENCODING 9645
SWIDTH 1000 0
DWIDTH 12 0
BBX 12 12 0 -2
BITMAP
0000
0000
0000
FFE0
8020
8020
8020
8020
8020
FFE0
0000
0000
ENDCHAR
STARTCHAR u25AE
ENCODING 9646
SWIDTH 1000 0
DWIDTH 12 0
BBX 12 12 0 -2
BITMAP
0000
3F80
3F80
3F80
3F80
3F80
3F80
3F80
3F80
3F80
3F80
3F80
ENDCHAR
STARTCHAR u25AF
ENCODING 9647
SWIDTH 1000 0
DWIDTH 12 0
BBX 12 12 0 -2
BITMAP
0000
3F80
2080
2080
2080
2080
2080
2080
2080
2080
2080
3F80
ENDCHAR
STARTCHAR u25B0
ENCODING 9648
SWIDTH 1000 0
DWIDTH 12 0
BBX 12 12 0 -2
BITMAP
0000
0000
0000
1FE0
1FC0
3FC0
3F80
7F80
7F00
FF00
0000
0000
ENDCHAR
STARTCHAR u25B1
ENCODING 9649
SWIDTH 1000 0
DWIDTH 12 0
BBX 12 12 0 -2
BITMAP
0000
0000
0000
1FE0
1040
2040
2080
4080
4100
FF00
0000
0000
ENDCHAR
STARTCHAR u25B2
ENCODING 9650
SWIDTH 1000 0
DWIDTH 12 0
BBX 12 12 0 -2
BITMAP
0000
0000
0400
0E00
0E00
1F00
1F00
3F80
3F80
7FC0
7FC0
0000
ENDCHAR
STARTCHAR u25B3
ENCODING 9651
SWIDTH 1000 0
DWIDTH 12 0
BBX 12 12 0 -2
BITMAP
0000
0000
0400
0A00
0A00
1100
1100
2080
2080
4040
7FC0
0000
ENDCHAR
STARTCHAR u25B4
ENCODING 9652
SWIDTH 1000 0
DWIDTH 12 0
BBX 12 12 0 -2
BITMAP
0000
0000
0000
0000
0400
0E00
0E00
1F00
1F00
0000
0000
0000
ENDCHAR
STARTCHAR u25B5
ENCODING 9653
SWIDTH 1000 0
DWIDTH 12 0
BBX 12 12 0 -2
BITMAP
0000
0000
0000
0000
0400
0A00
0A00
1100
1F00
0000
0000
0000
ENDCHAR
STARTCHAR u25B6
ENCODING 9654
SWIDTH 1000 0
DWIDTH 12 0
BBX 12 12 0 -2
BITMAP
0000
0000
6000
7800
7E00
7F80
7FC0
7F80
7E00
7800
6000
0000
ENDCHAR
STARTCHAR u25B7
ENCODING 9655
SWIDTH 1000 0
DWIDTH 12 0
BBX 12 12 0 -2
BITMAP
0000
0000
6000
5800
4600
4180
4040
4180
4600
5800
6000
0000
ENDCHAR
STARTCHAR u25B8
ENCODING 9656
SWIDTH 1000 0
DWIDTH 12 0
BBX 12 12 0 -2
BITMAP
0000
0000
0000
0000
1800
1E00
1F00
1E00
1800
0000
0000
0000
ENDCHAR
STARTCHAR u25B9
ENCODING 9657
SWIDTH 1000 0
DWIDTH 12 0
BBX 12 12 0 -2
BITMAP
0000
0000
0000
0000
1800
1600
1100
1600
1800
0000
0000
0000
ENDCHAR
STARTCHAR u25BA
ENCODING 9658
SWIDTH 1000 0
DWIDTH 12 0
BBX 12 12 0 -2
BITMAP
0000
0000
0000
0000
7000
7E00
7FC0
7E00
7000
0000
0000
0000
ENDCHAR
STARTCHAR u25BB
ENCODING 9659
SWIDTH 1000 0
DWIDTH 12 0
BBX 12 12 0 -2
BITMAP
0000
0000
0000
0000
7000
4E00
41C0
4E00
7000
0000
0000
0000
ENDCHAR
STARTCHAR u25BC
ENCODING 9660
SWIDTH 1000 0
DWIDTH 12 0
BBX 12 12 0 -2
BITMAP
0000
0000
7FC0
7FC0
3F80
3F80
1F00
1F00
0E00
0E00
0400
0000
ENDCHAR
STARTCHAR u25BD
ENCODING 9661
SWIDTH 1000 0
DWIDTH 12 0
BBX 12 12 0 -2
BITMAP
0000
0000
7FC0
4040
2080
2080
1100
1100
0A00
0A00
0400
0000
ENDCHAR
STARTCHAR u25BE
ENCODING 9662
SWIDTH 1000 0
DWIDTH 12 0
BBX 12 12 0 -2
BITMAP
0000
0000
0000
0000
1F00
1F00
0E00
0E00
0400
0000
0000
0000
ENDCHAR
STARTCHAR u25BF
ENCODING 9663
SWIDTH 1000 0
DWIDTH 12 0
BBX 12 12 0 -2
BITMAP
0000
0000
0000
0000
1F00
1100
0A00
0A00
0400
0000
0000
0000
ENDCHAR
STARTCHAR u25C0
ENCODING 9664
SWIDTH 1000 0
DWIDTH 12 0
BBX 12 12 0 -2
BITMAP
0000
0000
00C0
03C0
0FC0
3FC0
7FC0
3FC0
0FC0
03C0
00C0
0000
ENDCHAR
STARTCHAR u25C1
ENCODING 9665
SWIDTH 1000 0
DWIDTH 12 0
BBX 12 12 0 -2
BITMAP
0000
0000
00C0
0340
0C40
3040
4040
3040
0C40
0340
00C0
0000
ENDCHAR
STARTCHAR u25C2
ENCODING 9666
SWIDTH 1000 0
DWIDTH 12 0
BBX 12 12 0 -2
BITMAP
0000
0000
0000
0000
0300
0F00
1F00
0F00
0300
0000
0000
0000
ENDCHAR
STARTCHAR u25C3
ENCODING 9667
SWIDTH 1000 0
DWIDTH 12 0
BBX 12 12 0 -2
BITMAP
0000
0000
0000
0000
0300
0D00
1100
0D00
0300
0000
0000
0000
ENDCHAR
STARTCHAR u25C4
ENCODING 9668
SWIDTH 1000 0
DWIDTH 12 0
BBX 12 12 0 -2
BITMAP
0000
0000
0000
0000
01C0
0FC0
7FC0
0FC0
01C0
0000
0000
0000
ENDCHAR
STARTCHAR u25C5
ENCODING 9669
SWIDTH 1000 0
DWIDTH 12 0
BBX 12 12 0 -2
BITMAP
0000
0000
0000
0000
01C0
0E40
7040
0E40
01C0
0000
0000
0000
ENDCHAR
STARTCHAR u25C6
ENCODING 9670
SWIDTH 1000 0
DWIDTH 12 0
BBX 12 12 0 -2
BITMAP
0000
0400
0E00
1F00
3F80
7FC0
FFE0
7FC0
3F80
1F00
0E00
0400
ENDCHAR
STARTCHAR u25C7
ENCODING 9671
SWIDTH 1000 0
DWIDTH 12 0
BBX 12 12 0 -2
BITMAP
0000
0400
0A00
1100
2080
4040
8020
4040
2080
1100
0A00
0400
ENDCHAR
STARTCHAR u25C8
ENCODING 9672
SWIDTH 1000 0
DWIDTH 12 0
BBX 12 12 0 -2
BITMAP
0000
0400
0A00
1100
2480
4E40
9F20
4E40
2480
1100
0A00
0400
ENDCHAR
STARTCHAR u25C9
ENCODING 9673
SWIDTH 1000 0
DWIDTH 12 0
BBX 12 12 0 -2
BITMAP
0000
0E00
3180
4040
4E40
9F20
9F20
9F20
4E40
4040
3180
0E00
ENDCHAR
STARTCHAR u25CA
ENCODING 9674
SWIDTH 1000 0
DWIDTH 12 0
BBX 12 12 0 -2
BITMAP
0000
0400
0A00
1100
1100
2080
4040
2080
1100
1100
0A00
0400
ENDCHAR
STARTCHAR u25CB
ENCODING 9675
SWIDTH 1000 0
DWIDTH 12 0
BBX 12 12 0 -2
BITMAP
0000
0E00
3180
4040
4040
8020
8020
8020
4040
4040
3180
0E00
ENDCHAR
STARTCHAR u25CC
ENCODING 9676
SWIDTH 1000 0
DWIDTH 12 0
BBX 12 12 0 -2
BITMAP
0000
0A00
2080
4040
0000
8020
0000
8020
0000
4040
2080
0A00
ENDCHAR
STARTCHAR u25CD
ENCODING 9677
SWIDTH 1000 0
DWIDTH 12 0
BBX 12 12 0 -2
BITMAP
0000
0E00
3580
5540
5540
D560
D560
D560
5540
5540
3580
0E00
ENDCHAR
STARTCHAR u25CE
ENCODING 9678
SWIDTH 1000 0
DWIDTH 12 0
BBX 12 12 0 -2
BITMAP
0000
0E00
3180
4040
4E40
9120
9120
9120
4E40
4040
3180
0E00
ENDCHAR
STARTCHAR u25CF
ENCODING 9679
SWIDTH 1000 0
DWIDTH 12 0
BBX 12 12 0 -2
BITMAP
0000
0E00
3F80
7FC0
7FC0
FFE0
FFE0
FFE0
7FC0
7FC0
3F80
0E00
ENDCHAR
STARTCHAR u25D0
ENCODING 9680
SWIDTH 1000 0
DWIDTH 12 0
BBX 12 12 0 -2
BITMAP
0000
0E00
3D80
7C40
7C40
FC20
FC20
FC20
7C40
7C40
3D80
0E00
ENDCHAR
STARTCHAR u25D1
ENCODING 9681
SWIDTH 1000 0
DWIDTH 12 0
BBX 12 12 0 -2
BITMAP
0000
0E00
3780
47C0
47C0
87E0
87E0
87E0
47C0
47C0
3780
0E00
ENDCHAR
STARTCHAR u25D2
ENCODING 9682
SWIDTH 1000 0
DWIDTH 12 0
BBX 12 12 0 -2
BITMAP
0000
0E00
3180
4040
4040
8020
FFE0
FFE0
7FC0
7FC0
3F80
0E00
ENDCHAR
STARTCHAR u25D3
ENCODING 9683
SWIDTH 1000 0
DWIDTH 12 0
BBX 12 12 0 -2
BITMAP
0000
0E00
3F80
7FC0
7FC0
FFE0
FFE0
8020
4040
4040
3180
0E00
ENDCHAR
STARTCHAR u25D4
ENCODING 9684
SWIDTH 1000 0
DWIDTH 12 0
BBX 12 12 0 -2
BITMAP
0000
0E00
3780
47C0
47C0
87E0
87E0
8020
4040
4040
3180
0E00
ENDCHAR
STARTCHAR u25D5
ENCODING 9685
SWIDTH 1000 0
DWIDTH 12 0
BBX 12 12 0 -2
BITMAP
0000
0E00
3780
47C0
47C0
87E0
FFE0
FFE0
7FC0
7FC0
3F80
0E00
ENDCHAR
STARTCHAR u25D6
ENCODING 9686
SWIDTH 1000 0
DWIDTH 12 0
BBX 12 12 0 -2
BITMAP
0000
0C00
3C00
7C00
7C00
FC00
FC00
FC00
7C00
7C00
3C00
0C00
ENDCHAR
STARTCHAR u25D7
ENCODING 9687
SWIDTH 1000 0
DWIDTH 12 0
BBX 12 12 0 -2
BITMAP
0000
0600
0780
07C0
07C0
07E0
07E0
07E0
07C0
07C0
0780
0600
ENDCHAR
STARTCHAR u25D8
ENCODING 9688
SWIDTH 1000 0
DWIDTH 12 0
BBX 12 12 0 -2
BITMAP
FFF0
FFF0
FFF0
FFF0
F9F0
F0F0
F0F0
F9F0
FFF0
FFF0
FFF0
FFF0
ENDCHAR
STARTCHAR u25D9
ENCODING 9689
SWIDTH 1000 0
DWIDTH 12 0
BBX 12 12 0 -2
BITMAP
FFF0
F0F0
EF70
DFB0
BFD0
BFD0
BFD0
BFD0
DFB0
EF70
F0F0
FFF0
ENDCHAR
STARTCHAR u25DA
ENCODING 9690
SWIDTH 1000 0
DWIDTH 12 0
BBX 12 12 0 -2
BITMAP
FFF0
F0F0
EF70
DFB0
BFD0
BFD0
0000
0000
0000
0000
0000
0000
ENDCHAR
STARTCHAR u25DB
ENCODING 9691
SWIDTH 1000 0
DWIDTH 12 0
BBX 12 12 0 -2
BITMAP
0000
0000
0000
0000
0000
0000
BFD0
BFD0
DFB0
EF70
F0F0
FFF0
ENDCHAR
STARTCHAR u25DC
ENCODING 9692
SWIDTH 1000 0
DWIDTH 12 0
BBX 12 12 0 -2
BITMAP
0000
0C00
3000
4000
4000
8000
8000
0000
0000
0000
0000
0000
ENDCHAR
STARTCHAR u25DD
ENCODING 9693
SWIDTH 1000 0
DWIDTH 12 0
BBX 12 12 0 -2
BITMAP
0000
0600
0180
0040
0040
0020
0020
0000
0000
0000
0000
0000
ENDCHAR
STARTCHAR u25DE
ENCODING 9694
SWIDTH 1000 0
DWIDTH 12 0
BBX 12 12 0 -2
BITMAP
0000
0000
0000
0000
0000
0000
0020
0020
0040
0040
0180
0600
ENDCHAR
STARTCHAR u25DF
ENCODING 9695
SWIDTH 1000 0
DWIDTH 12 0
BBX 12 12 0 -2
BITMAP
0000
0000
0000
0000
0000
0000
8000
8000
4000
4000
3000
0C00
ENDCHAR
STARTCHAR u25E0
ENCODING 9696
SWIDTH 1000 0
DWIDTH 12 0
BBX 12 12 0 -2
BITMAP
0000
0E00
3180
4040
4040
8020
8020
0000
0000
0000
0000
0000
ENDCHAR
STARTCHAR u25E1
ENCODING 9697
SWIDTH 1000 0
DWIDTH 12 0
BBX 12 12 0 -2
BITMAP
0000
0000
0000
0000
0000
0000
8020
8020
4040
4040
3180
0E00
ENDCHAR
STARTCHAR u25E2
ENCODING 9698
SWIDTH 1000 0
DWIDTH 12 0
BBX 12 12 0 -2
BITMAP
0010
0030
0070
00F0
01F0
03F0
07F0
0FF0
1FF0
3FF0
7FF0
FFF0
ENDCHAR
STARTCHAR u25E3
ENCODING 9699
SWIDTH 1000 0
DWIDTH 12 0
BBX 12 12 0 -2
BITMAP
8000
C000
E000
F000
F800
FC00
FE00
FF00
FF80
FFC0
FFE0
FFF0
ENDCHAR
STARTCHAR u25E4
ENCODING 9700
SWIDTH 1000 0
DWIDTH 12 0
BBX 12 12 0 -2
BITMAP
FFF0
FFE0
FFC0
FF80
FF00
FE00
FC00
F800
F000
E000
C000
8000
ENDCHAR
STARTCHAR u25E5
ENCODING 9701
SWIDTH 1000 0
DWIDTH 12 0
BBX 12 12 0 -2
BITMAP
FFF0
7FF0
3FF0
1FF0
0FF0
07F0
03F0
01F0
00F0
0070
0030
0010
ENDCHAR
STARTCHAR u25E6
ENCODING 9702
SWIDTH 1000 0
DWIDTH 12 0
BBX 12 12 0 -2
BITMAP
0000
0000
0000
0000
0E00
1100
1100
1100
0E00
0000
0000
0000
ENDCHAR
STARTCHAR u25E7
ENCODING 9703
SWIDTH 1000 0
DWIDTH 12 0
BBX 12 12 0 -2
BITMAP
0000
FFE0
FC20
FC20
FC20
FC20
FC20
FC20
FC20
FC20
FC20
FFE0
ENDCHAR
STARTCHAR u25E8
ENCODING 9704
SWIDTH 1000 0
DWIDTH 12 0
BBX 12 12 0 -2
BITMAP
0000
FFE0
87E0
87E0
87E0
87E0
87E0
87E0
87E0
87E0
87E0
FFE0
ENDCHAR
STARTCHAR u25E9
ENCODING 9705
SWIDTH 1000 0
DWIDTH 12 0
BBX 12 12 0 -2
BITMAP
0000
FFE0
FFE0
FFA0
FF20
FE20
FC20
F820
F020
E020
C020
FFE0
ENDCHAR
STARTCHAR u25EA
ENCODING 9706
SWIDTH 1000 0
DWIDTH 12 0
BBX 12 12 0 -2
BITMAP
0000
FFE0
8060
80E0
81E0
83E0
87E0
8FE0
9FE0
BFE0
FFE0
FFE0
ENDCHAR
STARTCHAR u25EB
ENCODING 9707
SWIDTH 1000 0
DWIDTH 12 0
BBX 12 12 0 -2
BITMAP
0000
FFE0
8420
8420
8420
8420
8420
8420
8420
8420
8420
FFE0
ENDCHAR
STARTCHAR u25EC
ENCODING 9708
SWIDTH 1000 0
DWIDTH 12 0
BBX 12 12 0 -2
BITMAP
0000
0000
0400
0A00
0A00
1100
1100
2480
2080
4040
7FC0
0000
ENDCHAR
STARTCHAR u25ED
ENCODING 9709
SWIDTH 1000 0
DWIDTH 12 0
BBX 12 12 0 -2
BITMAP
0000
0000
0400
0E00
0E00
1D00
1D00
3C80
3C80
7C40
7FC0
0000
ENDCHAR
STARTCHAR u25EE
ENCODING 9710
SWIDTH 1000 0
DWIDTH 12 0
BBX 12 12 0 -2
BITMAP
0000
0000
0400
0E00
0E00
1700
1700
2780
2780
47C0
7FC0
0000
ENDCHAR
STARTCHAR u25EF
ENCODING 9711
SWIDTH 1000 0
DWIDTH 12 0
BBX 12 12 0 -2
BITMAP
0000
0E00
3180
4040
4040
8020
8020
8020
4040
4040
3180
0E00
ENDCHAR
STARTCHAR u25F0
ENCODING 9712
SWIDTH 1000 0
DWIDTH 12 0
BBX 12 12 0 -2
BITMAP
0000
FFE0
8420
8420
8420
8420
FC20
8020
8020
8020
8020
FFE0
ENDCHAR
STARTCHAR u25F1
ENCODING 9713
SWIDTH 1000 0
DWIDTH 12 0
BBX 12 12 0 -2
BITMAP
0000
FFE0
8020
8020
8020
8020
FC20
8420
8420
8420
8420
FFE0
ENDCHAR
STARTCHAR u25F2
ENCODING 9714
SWIDTH 1000 0
DWIDTH 12 0
BBX 12 12 0 -2
BITMAP
0000
FFE0
8020
8020
8020
8020
87E0
8420
8420
8420
8420
FFE0
ENDCHAR
STARTCHAR u25F3
ENCODING 9715
SWIDTH 1000 0
DWIDTH 12 0
BBX 12 12 0 -2
BITMAP
0000
FFE0
8420
8420
8420
8420
87E0
8020
8020
8020
8020
FFE0
ENDCHAR
STARTCHAR u25F4
ENCODING 9716
SWIDTH 1000 0
DWIDTH 12 0
BBX 12 12 0 -2
BITMAP
0000
0E00
3580
4440
4440
8420
FC20
8020
4040
4040
3180
0E00
ENDCHAR
STARTCHAR u25F5
ENCODING 9717
SWIDTH 1000 0
DWIDTH 12 0
BBX 12 12 0 -2
BITMAP
0000
0E00
3180
4040
4040
8020
FC20
8420
4440
4440
3580
0E00
ENDCHAR
STARTCHAR u25F6
ENCODING 9718
SWIDTH 1000 0
DWIDTH 12 0
BBX 12 12 0 -2
BITMAP
0000
0E00
3180
4040
4040
8020
87E0
8420
4440
4440
3580
0E00
ENDCHAR
STARTCHAR u25F7
ENCODING 9719
SWIDTH 1000 0
DWIDTH 12 0
BBX 12 12 0 -2
BITMAP
0000
0E00
3580
4440
4440
8420
87E0
8020
4040
4040
3180
0E00
ENDCHAR
STARTCHAR u25F8
ENCODING 9720
SWIDTH 1000 0
DWIDTH 12 0
BBX 12 12 0 -2
BITMAP
FFF0
8020
8040
8080
8100
8200
8400
8800
9000
A000
C000
8000
ENDCHAR
STARTCHAR u25F9
ENCODING 9721
SWIDTH 1000 0
DWIDTH 12 0
BBX 12 12 0 -2
BITMAP
FFF0
4010
2010
1010
0810
0410
0210
0110
0090
0050
0030
0010
ENDCHAR
STARTCHAR u25FA
ENCODING 9722
SWIDTH 1000 0
DWIDTH 12 0
BBX 12 12 0 -2
BITMAP
8000
C000
A000
9000
8800
8400
8200
8100
8080
8040
8020
FFF0
ENDCHAR
STARTCHAR u25FB
ENCODING 9723
SWIDTH 1000 0
DWIDTH 12 0
BBX 12 12 0 -2
BITMAP
0000
0000
7FC0
4040
4040
4040
4040
4040
4040
4040
7FC0
0000
ENDCHAR
STARTCHAR u25FC
ENCODING 9724
SWIDTH 1000 0
DWIDTH 12 0
BBX 12 12 0 -2
BITMAP
0000
0000
7FC0
7FC0
7FC0
7FC0
7FC0
7FC0
7FC0
7FC0
7FC0
0000
ENDCHAR
STARTCHAR u25FD
ENCODING 9725
SWIDTH 1000 0
DWIDTH 12 0
BBX 12 12 0 -2
BITMAP
0000
0000
0000
3F80
2080
2080
2080
2080
2080
3F80
0000
0000
ENDCHAR
STARTCHAR u25FE
ENCODING 9726
SWIDTH 1000 0
DWIDTH 12 0
BBX 12 12 0 -2
BITMAP
0000
0000
0000
3F80
3F80
3F80
3F80
3F80
3F80
3F80
0000
0000
ENDCHAR
STARTCHAR u25FF
ENCODING 9727
SWIDTH 1000 0
DWIDTH 12 0
BBX 12 12 0 -2
BITMAP
0010
0030
0050
0090
0110
0210
0410
0810
1010
2010
4010
FFF0
ENDCHAR
STARTCHAR u2600
ENCODING 9728
SWIDTH 1000 0
DWIDTH 12 0
BBX 12 12 0 -2
BITMAP
0000
0400
4440
2080
0E00
1F00
DF60
1F00
0E00
2080
4440
0400
ENDCHAR
STARTCHAR u2601
ENCODING 9729
SWIDTH 1000 0
DWIDTH 12 0
BBX 12 12 0 -2
BITMAP
0000
0000
1F00
2080
2040
4040
8020
8020
8120
4640
3980
0000
ENDCHAR
STARTCHAR u2602
ENCODING 9730
SWIDTH 1000 0
DWIDTH 12 0
BBX 12 12 0 -2
BITMAP
0000
0400
1F00
7FC0
FFE0
FFE0
0400
0400
0400
0400
1400
0800
ENDCHAR
STARTCHAR u2603
ENCODING 9731
SWIDTH 1000 0
DWIDTH 12 0
BBX 12 12 0 -2
BITMAP
0000
5F40
1F00
7FC0
2080
AAA0
2080
3F80
4840
4840
4040
3F80
ENDCHAR
STARTCHAR u2604
ENCODING 9732
SWIDTH 1000 0
DWIDTH 12 0
BBX 12 12 0 -2
BITMAP
0000
0820
0840
1080
1100
2200
0400
7060
8980
8A00
8800
7000
ENDCHAR
STARTCHAR u2605
ENCODING 9733
SWIDTH 1000 0
DWIDTH 12 0
BBX 12 12 0 -2
BITMAP
0000
0400
0400
0E00
0E00
FFE0
3F80
1F00
1F00
3B80
3180
4040
ENDCHAR
STARTCHAR u2606
ENCODING 9734
SWIDTH 1000 0
DWIDTH 12 0
BBX 12 12 0 -2
BITMAP
0000
0400
0400
0A00
0A00
F1E0
2080
1100
1500
2A80
3180
4040
ENDCHAR
STARTCHAR u2607
ENCODING 9735
SWIDTH 1000 0
DWIDTH 12 0
BBX 12 12 0 -2
BITMAP
0000
0100
0200
0400
0800
1000
2000
1000
0900
0500
0300
0F00
ENDCHAR
STARTCHAR u2608
ENCODING 9736
SWIDTH 1000 0
DWIDTH 12 0
BBX 12 12 0 -2
BITMAP
0000
3F80
2080
2100
2200
2400
2800
2800
2480
2280
2180
2780
ENDCHAR
STARTCHAR u2609
ENCODING 9737
SWIDTH 1000 0
DWIDTH 12 0
BBX 12 12 0 -2
BITMAP
0000
0000
1F00
2080
4040
4040
4440
4040
4040
2080
1F00
0000
ENDCHAR
STARTCHAR u260A
ENCODING 9738
SWIDTH 1000 0
DWIDTH 12 0
BBX 12 12 0 -2
BITMAP
0000
3F80
4040
8020
8020
8020
4040
2080
60C0
9120
9120
60C0
ENDCHAR
STARTCHAR u260B
ENCODING 9739
SWIDTH 1000 0
DWIDTH 12 0
BBX 12 12 0 -2
BITMAP
0000
60C0
9120
9120
60C0
2080
4040
8020
8020
8020
4040
3F80
ENDCHAR
STARTCHAR u260C
ENCODING 9740
SWIDTH 1000 0
DWIDTH 12 0
BBX 12 12 0 -2
BITMAP
0000
0020
0040
0080
0100
3A00
4400
8200
8200
8200
4400
3800
ENDCHAR
STARTCHAR u260D
ENCODING 9741
SWIDTH 1000 0
DWIDTH 12 0
BBX 12 12 0 -2
BITMAP
0000
01C0
0220
0220
0220
03C0
0400
7800
8800
8800
8800
7000
ENDCHAR
STARTCHAR u260E
ENCODING 9742
SWIDTH 1000 0
DWIDTH 12 0
BBX 12 12 0 -2
BITMAP
0000
3F80
FFE0
FFE0
D160
1F00
3F80
71C0
E0E0
E0E0
F1E0
7FC0
ENDCHAR
STARTCHAR u260F
ENCODING 9743
SWIDTH 1000 0
DWIDTH 12 0
BBX 12 12 0 -2
BITMAP
0000
3F80
C060
9F20
AEA0
E0E0
2080
4E40
9120
9120
8E20
7FC0
ENDCHAR
STARTCHAR u2610
ENCODING 9744
SWIDTH 1000 0
DWIDTH 12 0
BBX 12 12 0 -2
BITMAP
0000
0000
7FC0
4040
4040
4040
4040
4040
4040
4040
7FC0
0000
ENDCHAR
STARTCHAR u2611
ENCODING 9745
SWIDTH 1000 0
DWIDTH 12 0
BBX 12 12 0 -2
BITMAP
0000
0000
7FC0
4040
40C0
4140
6240
5440
4840
4040
7FC0
0000
ENDCHAR
STARTCHAR u2612
ENCODING 9746
SWIDTH 1000 0
DWIDTH 12 0
BBX 12 12 0 -2
BITMAP
0000
0000
7FC0
4040
5140
4A40
4440
4A40
5140
4040
7FC0
0000
ENDCHAR
STARTCHAR u2613
ENCODING 9747
SWIDTH 1000 0
DWIDTH 12 0
BBX 12 12 0 -2
BITMAP
0000
0000
4040
2080
1100
0A00
0400
0A00
1100
2080
4040
0000
ENDCHAR
STARTCHAR u2614
ENCODING 9748
SWIDTH 1000 0
DWIDTH 12 0
BBX 12 12 0 -2
BITMAP
0000
2080
8420
1F00
7FC0
FFE0
FFE0
0400
0400
0400
1400
0800
ENDCHAR
STARTCHAR u2616
ENCODING 9750
SWIDTH 1000 0
DWIDTH 12 0
BBX 12 12 0 -2
BITMAP
0000
0400
0A00
1100
2080
4040
4040
4040
4040
4040
4040
7FC0
ENDCHAR
STARTCHAR u2617
ENCODING 9751
SWIDTH 1000 0
DWIDTH 12 0
BBX 12 12 0 -2
BITMAP
0000
0400
0E00
1F00
3F80
7FC0
7FC0
7FC0
7FC0
7FC0
7FC0
7FC0
ENDCHAR
STARTCHAR u2618
ENCODING 9752
SWIDTH 1000 0
DWIDTH 12 0
BBX 12 12 0 -2
BITMAP
0000
0A00
1F00
1F00
0E00
64C0
F5E0
7FC0
F5E0
64C0
0800
1000
ENDCHAR
STARTCHAR u2619
ENCODING 9753
SWIDTH 1000 0
DWIDTH 12 0
BBX 12 12 0 -2
BITMAP
0000
0020
4E40
9F40
BF40
FF40
FE80
FF40
7F20
3F20
1E20
0040
ENDCHAR
STARTCHAR u261A
ENCODING 9754
SWIDTH 1000 0
DWIDTH 12 0
BBX 12 12 0 -2
BITMAP
0000
0000
0C00
0E00
FF00
FFE0
1FA0
1FA0
1FA0
0FA0
07E0
0000
ENDCHAR
STARTCHAR u261B
ENCODING 9755
SWIDTH 1000 0
DWIDTH 12 0
BBX 12 12 0 -2
BITMAP
0000
0000
0600
0E00
1FE0
FFE0
BF00
BF00
BF00
BE00
FC00
0000
ENDCHAR
STARTCHAR u261C
ENCODING 9756
SWIDTH 1000 0
DWIDTH 12 0
BBX 12 12 0 -2
BITMAP
0000
0000
0C00
0A00
FD00
80E0
78A0
10A0
10A0
08A0
07E0
0000
ENDCHAR
STARTCHAR u261D
ENCODING 9757
SWIDTH 1000 0
DWIDTH 12 0
BBX 12 12 0 -2
BITMAP
0000
0300
0500
0500
1D00
25C0
4140
4080
4100
7E00
4200
7E00
ENDCHAR
STARTCHAR u261E
ENCODING 9758
SWIDTH 1000 0
DWIDTH 12 0
BBX 12 12 0 -2
BITMAP
0000
0000
0600
0A00
17E0
E020
A3C0
A100
A100
A200
FC00
0000
ENDCHAR
STARTCHAR u261F
ENCODING 9759
SWIDTH 1000 0
DWIDTH 12 0
BBX 12 12 0 -2
BITMAP
0000
7E00
4200
7E00
4100
4080
4140
25C0
1D00
0500
0500
0300
ENDCHAR
STARTCHAR u2620
ENCODING 9760
SWIDTH 1000 0
DWIDTH 12 0
BBX 12 12 0 -2
BITMAP
0000
1F00
3F80
3F80
2480
2480
3F80
1F00
0A00
60C0
1F00
E0E0
ENDCHAR
STARTCHAR u2621
ENCODING 9761
SWIDTH 1000 0
DWIDTH 12 0
BBX 12 12 0 -2
BITMAP
0000
0700
1880
6080
8100
0200
0400
0800
1020
20C0
2300
1C00
ENDCHAR
STARTCHAR u2624
ENCODING 9764
SWIDTH 1000 0
DWIDTH 12 0
BBX 12 12 0 -2
BITMAP
0000
0400
FFE0
5540
3F80
0400
1500
2480
1F00
1500
0E00
1500
ENDCHAR
STARTCHAR u2625
ENCODING 9765
SWIDTH 1000 0
DWIDTH 12 0
BBX 12 12 0 -2
BITMAP
0000
0E00
1100
1100
0A00
4440
7FC0
4440
0400
0400
0E00
1F00
ENDCHAR
STARTCHAR u2628
ENCODING 9768
SWIDTH 1000 0
DWIDTH 12 0
BBX 12 12 0 -2
BITMAP
0000
0400
1F00
0400
0400
3F80
0400
0400
0400
0400
0400
0400
ENDCHAR
STARTCHAR u2629
ENCODING 9769
SWIDTH 1000 0
DWIDTH 12 0
BBX 12 12 0 -2
BITMAP
0000
0E00
0400
0400
0400
8420
FFE0
8420
0400
0400
0400
0E00
ENDCHAR
STARTCHAR u262A
ENCODING 9770
SWIDTH 1000 0
DWIDTH 12 0
BBX 12 12 0 -2
BITMAP
0000
1F80
3840
7000
E080
E3E0
E1C0
E140
E220
7000
3840
1F80
ENDCHAR
STARTCHAR u262B
ENCODING 9771
SWIDTH 1000 0
DWIDTH 12 0
BBX 12 12 0 -2
BITMAP
0000
1500
1B00
0000
5540
A4A0
A4A0
A4A0
9520
4E40
1F00
0400
ENDCHAR
STARTCHAR u262C
ENCODING 9772
SWIDTH 1000 0
DWIDTH 12 0
BBX 12 12 0 -2
BITMAP
0000
0400
1500
2480
4E40
D560
D560
CE60
E4E0
DF60
8E20
1500
ENDCHAR
STARTCHAR u262D
ENCODING 9773
SWIDTH 1000 0
DWIDTH 12 0
BBX 12 12 0 -2
BITMAP
0000
1F00
2080
4640
0C20
1820
3420
0220
0140
3080
6F40
C020
ENDCHAR
STARTCHAR u262E
ENCODING 9774
SWIDTH 1000 0
DWIDTH 12 0
BBX 12 12 0 -2
BITMAP
0000
0E00
3580
4440
4440
8420
8E20
9520
64C0
4440
3580
0E00
ENDCHAR
STARTCHAR u262F
ENCODING 9775
SWIDTH 1000 0
DWIDTH 12 0
BBX 12 12 0 -2
BITMAP
0000
0E00
3F80
7B40
7F40
FE20
FC20
F020
6040
6440
3180
0E00
ENDCHAR
STARTCHAR u2630
ENCODING 9776
SWIDTH 1000 0
DWIDTH 12 0
BBX 12 12 0 -2
BITMAP
0000
0000
0000
7FC0
0000
0000
7FC0
0000
0000
7FC0
0000
0000
ENDCHAR
STARTCHAR u2631
ENCODING 9777
SWIDTH 1000 0
DWIDTH 12 0
BBX 12 12 0 -2
BITMAP
0000
0000
0000
7BC0
0000
0000
7FC0
0000
0000
7FC0
0000
0000
ENDCHAR
STARTCHAR u2632
ENCODING 9778
SWIDTH 1000 0
DWIDTH 12 0
BBX 12 12 0 -2
BITMAP
0000
0000
0000
7FC0
0000
0000
7BC0
0000
0000
7FC0
0000
0000
ENDCHAR
STARTCHAR u2633
ENCODING 9779
SWIDTH 1000 0
DWIDTH 12 0
BBX 12 12 0 -2
BITMAP
0000
0000
0000
7BC0
0000
0000
7BC0
0000
0000
7FC0
0000
0000
ENDCHAR
STARTCHAR u2634
ENCODING 9780
SWIDTH 1000 0
DWIDTH 12 0
BBX 12 12 0 -2
BITMAP
0000
0000
0000
7FC0
0000
0000
7FC0
0000
0000
7BC0
0000
0000
ENDCHAR
STARTCHAR u2635
ENCODING 9781
SWIDTH 1000 0
DWIDTH 12 0
BBX 12 12 0 -2
BITMAP
0000
0000
0000
7BC0
0000
0000
7FC0
0000
0000
7BC0
0000
0000
ENDCHAR
STARTCHAR u2636
ENCODING 9782
SWIDTH 1000 0
DWIDTH 12 0
BBX 12 12 0 -2
BITMAP
0000
0000
0000
7FC0
0000
0000
7BC0
0000
0000
7BC0
0000
0000
ENDCHAR
STARTCHAR u2637
ENCODING 9783
SWIDTH 1000 0
DWIDTH 12 0
BBX 12 12 0 -2
BITMAP
0000
0000
0000
7BC0
0000
0000
7BC0
0000
0000
7BC0
0000
0000
ENDCHAR
STARTCHAR u2638
ENCODING 9784
SWIDTH 1000 0
DWIDTH 12 0
BBX 12 12 0 -2
BITMAP
0000
0400
5F40
2480
5540
4E40
FBE0
4E40
5540
2480
5F40
0400
ENDCHAR
STARTCHAR u2639
ENCODING 9785
SWIDTH 1000 0
DWIDTH 12 0
BBX 12 12 0 -2
BITMAP
0000
3F80
4040
8020
9120
9120
8020
8020
8E20
9120
4040
3F80
ENDCHAR
STARTCHAR u263A
ENCODING 9786
SWIDTH 1000 0
DWIDTH 12 0
BBX 12 12 0 -2
BITMAP
0000
3F80
4040
8020
9120
9120
8020
8020
9120
8E20
4040
3F80
ENDCHAR
STARTCHAR u263B
ENCODING 9787
SWIDTH 1000 0
DWIDTH 12 0
BBX 12 12 0 -2
BITMAP
0000
3F80
7FC0
FFE0
EEE0
EEE0
FFE0
FFE0
EEE0
F1E0
7FC0
3F80
ENDCHAR
STARTCHAR u263C
ENCODING 9788
SWIDTH 1000 0
DWIDTH 12 0
BBX 12 12 0 -2
BITMAP
0000
0400
4440
2080
0E00
1100
D160
1100
0E00
2080
4440
0400
ENDCHAR
STARTCHAR u263D
ENCODING 9789
SWIDTH 1000 0
DWIDTH 12 0
BBX 12 12 0 -2
BITMAP
0000
7C00
1300
0880
0880
0440
0440
0440
0880
0880
1300
7C00
ENDCHAR
STARTCHAR u263E
ENCODING 9790
SWIDTH 1000 0
DWIDTH 12 0
BBX 12 12 0 -2
BITMAP
0000
07C0
1900
2200
2200
4400
4400
4400
2200
2200
1900
07C0
ENDCHAR
STARTCHAR u263F
ENCODING 9791
SWIDTH 1000 0
DWIDTH 12 0
BBX 12 12 0 -2
BITMAP
0000
1100
1100
0E00
1100
1100
1100
0E00
0400
3F80
0400
0400
ENDCHAR
STARTCHAR u2640
ENCODING 9792
SWIDTH 1000 0
DWIDTH 12 0
BBX 12 12 0 -2
BITMAP
0000
0E00
1100
2080
2080
2080
1100
0E00
0400
7FC0
0400
0400
ENDCHAR
STARTCHAR u2641
ENCODING 9793
SWIDTH 1000 0
DWIDTH 12 0
BBX 12 12 0 -2
BITMAP
0000
0400
0400
7FC0
0400
0E00
1100
2080
2080
2080
1100
0E00
ENDCHAR
STARTCHAR u2642
ENCODING 9794
SWIDTH 1000 0
DWIDTH 12 0
BBX 12 12 0 -2
BITMAP
0000
03E0
0060
00A0
0120
3A20
4400
8200
8200
8200
4400
3800
ENDCHAR
STARTCHAR u2643
ENCODING 9795
SWIDTH 1000 0
DWIDTH 12 0
BBX 12 12 0 -2
BITMAP
0000
0040
0040
1C40
2240
4140
0140
0140
0240
7FC0
0040
0040
ENDCHAR
STARTCHAR u2644
ENCODING 9796
SWIDTH 1000 0
DWIDTH 12 0
BBX 12 12 0 -2
BITMAP
0000
1000
3C00
1000
1000
1700
1880
1080
1080
1080
1100
1100
ENDCHAR
STARTCHAR u2645
ENCODING 9797
SWIDTH 1000 0
DWIDTH 12 0
BBX 12 12 0 -2
BITMAP
0000
64C0
2480
2480
3F80
2480
2480
64C0
0400
0E00
0A00
0E00
ENDCHAR
STARTCHAR u2646
ENCODING 9798
SWIDTH 1000 0
DWIDTH 12 0
BBX 12 12 0 -2
BITMAP
0000
0400
0E00
4440
E4E0
4440
4440
2480
1F00
0400
0E00
0400
ENDCHAR
STARTCHAR u2647
ENCODING 9799
SWIDTH 1000 0
DWIDTH 12 0
BBX 12 12 0 -2
BITMAP
0000
3E00
2100
2080
2080
2100
3E00
2000
2000
2000
2000
3F80
ENDCHAR
STARTCHAR u2648
ENCODING 9800
SWIDTH 1000 0
DWIDTH 12 0
BBX 12 12 0 -2
BITMAP
0000
60C0
9120
9120
8A20
0A00
0A00
0400
0400
0400
0400
0400
ENDCHAR
STARTCHAR u2649
ENCODING 9801
SWIDTH 1000 0
DWIDTH 12 0
BBX 12 12 0 -2
BITMAP
0000
C060
2080
2080
1100
0E00
1100
2080
2080
2080
1100
0E00
ENDCHAR
STARTCHAR u264A
ENCODING 9802
SWIDTH 1000 0
DWIDTH 12 0
BBX 12 12 0 -2
BITMAP
0000
4040
3F80
1100
1100
1100
1100
1100
1100
1100
3F80
4040
ENDCHAR
STARTCHAR u264B
ENCODING 9803
SWIDTH 1000 0
DWIDTH 12 0
BBX 12 12 0 -2
BITMAP
0000
7E00
8980
8840
8820
7000
0000
01C0
8220
4220
3220
0FC0
ENDCHAR
STARTCHAR u264C
ENCODING 9804
SWIDTH 1000 0
DWIDTH 12 0
BBX 12 12 0 -2
BITMAP
0000
0E00
1100
2080
2080
1080
1100
7100
9100
9120
6120
00C0
ENDCHAR
STARTCHAR u264D
ENCODING 9805
SWIDTH 1000 0
DWIDTH 12 0
BBX 12 12 0 -2
BITMAP
0000
B600
4900
4900
49C0
4920
4920
4940
4940
0080
0080
0360
ENDCHAR
STARTCHAR u264E
ENCODING 9806
SWIDTH 1000 0
DWIDTH 12 0
BBX 12 12 0 -2
BITMAP
0000
0E00
1100
2080
2080
2080
2080
1100
0A00
7BC0
0000
7FC0
ENDCHAR
STARTCHAR u264F
ENCODING 9807
SWIDTH 1000 0
DWIDTH 12 0
BBX 12 12 0 -2
BITMAP
0000
B600
4900
4900
4900
4900
4900
4900
4900
0120
0120
00E0
ENDCHAR
STARTCHAR u2650
ENCODING 9808
SWIDTH 1000 0
DWIDTH 12 0
BBX 12 12 0 -2
BITMAP
0000
01E0
0060
00A0
4120
2200
1400
0800
1400
2200
4100
8000
ENDCHAR
STARTCHAR u2651
ENCODING 9809
SWIDTH 1000 0
DWIDTH 12 0
BBX 12 12 0 -2
BITMAP
0000
5C00
2200
2200
2200
2200
2200
2380
2240
0240
0580
1800
ENDCHAR
STARTCHAR u2652
ENCODING 9810
SWIDTH 1000 0
DWIDTH 12 0
BBX 12 12 0 -2
BITMAP
0000
0000
0000
2240
55A0
9920
0000
2240
55A0
9920
0000
0000
ENDCHAR
STARTCHAR u2653
ENCODING 9811
SWIDTH 1000 0
DWIDTH 12 0
BBX 12 12 0 -2
BITMAP
0000
4040
2080
2080
1100
1100
7FC0
1100
1100
2080
2080
4040
ENDCHAR
STARTCHAR u2654
ENCODING 9812
SWIDTH 1000 0
DWIDTH 12 0
BBX 12 12 0 -2
BITMAP
0000
0400
0E00
3580
4A40
8420
8420
8420
4440
3F80
2080
3F80
ENDCHAR
STARTCHAR u2655
ENCODING 9813
SWIDTH 1000 0
DWIDTH 12 0
BBX 12 12 0 -2
BITMAP
0000
0400
4A40
2480
2480
9520
5F40
5140
2080
3F80
2080
3F80
ENDCHAR
STARTCHAR u2656
ENCODING 9814
SWIDTH 1000 0
DWIDTH 12 0
BBX 12 12 0 -2
BITMAP
0000
2480
3F80
2080
3F80
2080
1100
1100
1100
3F80
4040
7FC0
ENDCHAR
STARTCHAR u2657
ENCODING 9815
SWIDTH 1000 0
DWIDTH 12 0
BBX 12 12 0 -2
BITMAP
0000
0400
0A00
1100
2480
2E80
2480
1100
1100
3F80
4040
7FC0
ENDCHAR
STARTCHAR u2658
ENCODING 9816
SWIDTH 1000 0
DWIDTH 12 0
BBX 12 12 0 -2
BITMAP
0000
0300
0CC0
1240
2040
2E40
3440
0880
1100
3F80
4040
7FC0
ENDCHAR
STARTCHAR u2659
ENCODING 9817
SWIDTH 1000 0
DWIDTH 12 0
BBX 12 12 0 -2
BITMAP
0000
0E00
1100
1100
1100
0E00
1100
1100
1100
3F80
4040
7FC0
ENDCHAR
STARTCHAR u265A
ENCODING 9818
SWIDTH 1000 0
DWIDTH 12 0
BBX 12 12 0 -2
BITMAP
0000
0400
0E00
3580
7BC0
FFE0
FBE0
FBE0
7BC0
3F80
2080
3F80
ENDCHAR
STARTCHAR u265B
ENCODING 9819
SWIDTH 1000 0
DWIDTH 12 0
BBX 12 12 0 -2
BITMAP
0000
0400
4A40
2480
2480
9520
5F40
5F40
3F80
3F80
2080
3F80
ENDCHAR
STARTCHAR u265C
ENCODING 9820
SWIDTH 1000 0
DWIDTH 12 0
BBX 12 12 0 -2
BITMAP
0000
2480
3F80
3F80
2080
3F80
1F00
1F00
1F00
3F80
4040
7FC0
ENDCHAR
STARTCHAR u265D
ENCODING 9821
SWIDTH 1000 0
DWIDTH 12 0
BBX 12 12 0 -2
BITMAP
0000
0400
0E00
1F00
3B80
3180
3B80
1F00
1F00
3F80
4040
7FC0
ENDCHAR
STARTCHAR u265E
ENCODING 9822
SWIDTH 1000 0
DWIDTH 12 0
BBX 12 12 0 -2
BITMAP
0000
0300
0FC0
1DC0
3FC0
33C0
07C0
0F80
1F00
3F80
4040
7FC0
ENDCHAR
STARTCHAR u265F
ENCODING 9823
SWIDTH 1000 0
DWIDTH 12 0
BBX 12 12 0 -2
BITMAP
0000
0E00
1F00
1F00
1F00
0E00
1100
1F00
1F00
3F80
4040
7FC0
ENDCHAR
STARTCHAR u2660
ENCODING 9824
SWIDTH 1000 0
DWIDTH 12 0
BBX 12 12 0 -2
BITMAP
0000
0400
0E00
1F00
3F80
7FC0
FFE0
FFE0
F5E0
64C0
0E00
1F00
ENDCHAR
STARTCHAR u2661
ENCODING 9825
SWIDTH 1000 0
DWIDTH 12 0
BBX 12 12 0 -2
BITMAP
0000
3180
4A40
8420
8020
8020
8020
4040
2080
1100
0A00
0400
ENDCHAR
STARTCHAR u2662
ENCODING 9826
SWIDTH 1000 0
DWIDTH 12 0
BBX 12 12 0 -2
BITMAP
0000
0400
0A00
1100
2080
4040
8020
4040
2080
1100
0A00
0400
ENDCHAR
STARTCHAR u2663
ENCODING 9827
SWIDTH 1000 0
DWIDTH 12 0
BBX 12 12 0 -2
BITMAP
0000
0E00
1F00
1F00
0E00
75C0
FFE0
FFE0
75C0
0400
0E00
1F00
ENDCHAR
STARTCHAR u2664
ENCODING 9828
SWIDTH 1000 0
DWIDTH 12 0
BBX 12 12 0 -2
BITMAP
0000
0400
0A00
1100
2080
4040
8020
8A20
9520
64C0
0A00
1F00
ENDCHAR
STARTCHAR u2665
ENCODING 9829
SWIDTH 1000 0
DWIDTH 12 0
BBX 12 12 0 -2
BITMAP
0000
3180
7BC0
FFE0
FFE0
FFE0
FFE0
7FC0
3F80
1F00
0E00
0400
ENDCHAR
STARTCHAR u2666
ENCODING 9830
SWIDTH 1000 0
DWIDTH 12 0
BBX 12 12 0 -2
BITMAP
0000
0400
0E00
1F00
3F80
7FC0
FFE0
7FC0
3F80
1F00
0E00
0400
ENDCHAR
STARTCHAR u2667
ENCODING 9831
SWIDTH 1000 0
DWIDTH 12 0
BBX 12 12 0 -2
BITMAP
0000
0E00
1100
1100
71C0
8A20
8020
8A20
75C0
0400
0A00
1F00
ENDCHAR
STARTCHAR u2668
ENCODING 9832
SWIDTH 1000 0
DWIDTH 12 0
BBX 12 12 0 -2
BITMAP
0000
2480
4900
4900
2480
2480
1240
5240
A4A0
8020
60C0
1F00
ENDCHAR
STARTCHAR u2669
ENCODING 9833
SWIDTH 1000 0
DWIDTH 12 0
BBX 12 12 0 -2
BITMAP
0000
0400
0400
0400
0400
0400
0400
0400
0400
1C00
3800
3000
ENDCHAR
ENDFONT
